<mxfile host="app.diagrams.net" modified="2024-06-07T13:24:34.027Z" agent="Mozilla/5.0 (X11; Linux x86_64; rv:109.0) Gecko/20100101 Firefox/115.0" etag="leEDzkQImQ7zPMsM75C7" version="24.5.1" type="device">
  <diagram id="6a731a19-8d31-9384-78a2-239565b7b9f0" name="Page-1">
    <mxGraphModel dx="796" dy="-357" grid="0" gridSize="10" guides="1" tooltips="1" connect="1" arrows="1" fold="1" page="1" pageScale="1" pageWidth="1169" pageHeight="827" background="#FFFFFF" math="0" shadow="1">
      <root>
        <mxCell id="0" />
        <mxCell id="1" parent="0" />
        <mxCell id="oaGu5y_zX-QXOi4U40vD-11" style="edgeStyle=orthogonalEdgeStyle;rounded=1;orthogonalLoop=1;jettySize=auto;html=1;entryX=-0.004;entryY=0.694;entryDx=0;entryDy=0;entryPerimeter=0;curved=0;" edge="1" parent="1" source="dEZm_ng8QWsbmra9nYXP-2105" target="dEZm_ng8QWsbmra9nYXP-2098">
          <mxGeometry relative="1" as="geometry">
            <Array as="points">
              <mxPoint x="627" y="995" />
            </Array>
          </mxGeometry>
        </mxCell>
        <mxCell id="dEZm_ng8QWsbmra9nYXP-2167" style="edgeStyle=orthogonalEdgeStyle;rounded=0;orthogonalLoop=1;jettySize=auto;html=1;entryX=0;entryY=0.5;entryDx=0;entryDy=0;entryPerimeter=0;curved=1;" parent="1" source="dEZm_ng8QWsbmra9nYXP-2089" target="dEZm_ng8QWsbmra9nYXP-2163" edge="1">
          <mxGeometry relative="1" as="geometry">
            <Array as="points">
              <mxPoint x="410" y="1370" />
            </Array>
          </mxGeometry>
        </mxCell>
        <mxCell id="oaGu5y_zX-QXOi4U40vD-8" value="&lt;div&gt;analytics.furi.live&lt;/div&gt;" style="edgeLabel;html=1;align=center;verticalAlign=middle;resizable=0;points=[];" vertex="1" connectable="0" parent="dEZm_ng8QWsbmra9nYXP-2167">
          <mxGeometry x="-0.6881" y="1" relative="1" as="geometry">
            <mxPoint as="offset" />
          </mxGeometry>
        </mxCell>
        <mxCell id="dEZm_ng8QWsbmra9nYXP-2085" value="User" style="verticalLabelPosition=bottom;html=1;verticalAlign=top;align=center;strokeColor=#6c8ebf;fillColor=#dae8fc;shape=mxgraph.azure.user;" parent="1" vertex="1">
          <mxGeometry x="70" y="1150" width="47.5" height="50" as="geometry" />
        </mxCell>
        <mxCell id="dEZm_ng8QWsbmra9nYXP-2101" style="edgeStyle=orthogonalEdgeStyle;rounded=0;orthogonalLoop=1;jettySize=auto;html=1;entryX=0.05;entryY=0.5;entryDx=0;entryDy=0;entryPerimeter=0;curved=1;" parent="1" source="dEZm_ng8QWsbmra9nYXP-2085" target="dEZm_ng8QWsbmra9nYXP-2086" edge="1">
          <mxGeometry relative="1" as="geometry" />
        </mxCell>
        <mxCell id="dEZm_ng8QWsbmra9nYXP-2102" style="edgeStyle=orthogonalEdgeStyle;rounded=0;orthogonalLoop=1;jettySize=auto;html=1;entryX=0;entryY=0.5;entryDx=0;entryDy=0;entryPerimeter=0;curved=1;" parent="1" source="dEZm_ng8QWsbmra9nYXP-2086" target="dEZm_ng8QWsbmra9nYXP-2089" edge="1">
          <mxGeometry relative="1" as="geometry" />
        </mxCell>
        <mxCell id="dEZm_ng8QWsbmra9nYXP-2106" style="edgeStyle=entityRelationEdgeStyle;rounded=0;orthogonalLoop=1;jettySize=auto;html=1;entryX=0;entryY=0.5;entryDx=0;entryDy=0;entryPerimeter=0;curved=1;" parent="1" source="dEZm_ng8QWsbmra9nYXP-2089" target="dEZm_ng8QWsbmra9nYXP-2105" edge="1">
          <mxGeometry relative="1" as="geometry" />
        </mxCell>
        <mxCell id="dEZm_ng8QWsbmra9nYXP-2115" style="edgeStyle=orthogonalEdgeStyle;rounded=0;orthogonalLoop=1;jettySize=auto;html=1;entryX=0.5;entryY=0;entryDx=0;entryDy=0;entryPerimeter=0;" parent="1" source="dEZm_ng8QWsbmra9nYXP-2095" target="dEZm_ng8QWsbmra9nYXP-2097" edge="1">
          <mxGeometry relative="1" as="geometry" />
        </mxCell>
        <mxCell id="dEZm_ng8QWsbmra9nYXP-2128" style="edgeStyle=orthogonalEdgeStyle;rounded=0;orthogonalLoop=1;jettySize=auto;html=1;entryX=0;entryY=0.5;entryDx=0;entryDy=0;entryPerimeter=0;curved=1;" parent="1" source="dEZm_ng8QWsbmra9nYXP-2105" target="dEZm_ng8QWsbmra9nYXP-2095" edge="1">
          <mxGeometry relative="1" as="geometry">
            <Array as="points">
              <mxPoint x="710" y="1251" />
              <mxPoint x="710" y="1251" />
            </Array>
          </mxGeometry>
        </mxCell>
        <mxCell id="dEZm_ng8QWsbmra9nYXP-2131" style="edgeStyle=orthogonalEdgeStyle;rounded=0;orthogonalLoop=1;jettySize=auto;html=1;entryX=0;entryY=0.5;entryDx=0;entryDy=0;entryPerimeter=0;curved=1;" parent="1" source="dEZm_ng8QWsbmra9nYXP-2089" target="dEZm_ng8QWsbmra9nYXP-2091" edge="1">
          <mxGeometry relative="1" as="geometry">
            <Array as="points">
              <mxPoint x="410" y="987" />
            </Array>
          </mxGeometry>
        </mxCell>
        <mxCell id="oaGu5y_zX-QXOi4U40vD-9" value="www.furi.live" style="edgeLabel;html=1;align=center;verticalAlign=middle;resizable=0;points=[];" vertex="1" connectable="0" parent="dEZm_ng8QWsbmra9nYXP-2131">
          <mxGeometry x="-0.7991" relative="1" as="geometry">
            <mxPoint as="offset" />
          </mxGeometry>
        </mxCell>
        <mxCell id="dEZm_ng8QWsbmra9nYXP-2136" value="" style="group" parent="1" vertex="1" connectable="0">
          <mxGeometry x="747" y="960" width="51" height="55.200000000000045" as="geometry" />
        </mxCell>
        <mxCell id="dEZm_ng8QWsbmra9nYXP-2098" value="Cache Database" style="verticalLabelPosition=bottom;html=1;verticalAlign=top;align=center;strokeColor=#b85450;fillColor=#f8cecc;shape=mxgraph.azure.database;" parent="dEZm_ng8QWsbmra9nYXP-2136" vertex="1">
          <mxGeometry width="37.5" height="50" as="geometry" />
        </mxCell>
        <mxCell id="dEZm_ng8QWsbmra9nYXP-2133" value="" style="image;sketch=0;aspect=fixed;html=1;points=[];align=center;fontSize=12;image=img/lib/mscae/Cache_Redis_Product.svg;" parent="dEZm_ng8QWsbmra9nYXP-2136" vertex="1">
          <mxGeometry x="21" y="30" width="30" height="25.2" as="geometry" />
        </mxCell>
        <mxCell id="dEZm_ng8QWsbmra9nYXP-2142" value="" style="group" parent="1" vertex="1" connectable="0">
          <mxGeometry x="604" y="1221" width="64" height="49" as="geometry" />
        </mxCell>
        <mxCell id="dEZm_ng8QWsbmra9nYXP-2105" value="Furi Shortener" style="verticalLabelPosition=bottom;html=1;verticalAlign=top;align=center;strokeColor=#666666;fillColor=#f5f5f5;shape=mxgraph.azure.worker_role;fontColor=#333333;" parent="dEZm_ng8QWsbmra9nYXP-2142" vertex="1">
          <mxGeometry width="50" height="40" as="geometry" />
        </mxCell>
        <mxCell id="dEZm_ng8QWsbmra9nYXP-2141" value="" style="shape=image;verticalLabelPosition=bottom;labelBackgroundColor=default;verticalAlign=top;aspect=fixed;imageAspect=0;image=https://upload.wikimedia.org/wikipedia/commons/thumb/2/20/Rustacean-orig-noshadow.svg/1200px-Rustacean-orig-noshadow.svg.png;" parent="dEZm_ng8QWsbmra9nYXP-2142" vertex="1">
          <mxGeometry x="26" y="21" width="39" height="26" as="geometry" />
        </mxCell>
        <mxCell id="dEZm_ng8QWsbmra9nYXP-2144" value="" style="group" parent="1" vertex="1" connectable="0">
          <mxGeometry x="530" y="964" width="50" height="51.200000000000045" as="geometry" />
        </mxCell>
        <mxCell id="dEZm_ng8QWsbmra9nYXP-2091" value="Furi Frontend" style="verticalLabelPosition=bottom;html=1;verticalAlign=top;align=center;strokeColor=#82b366;fillColor=#d5e8d4;shape=mxgraph.azure.script_file;pointerEvents=1;" parent="dEZm_ng8QWsbmra9nYXP-2144" vertex="1">
          <mxGeometry width="40" height="46" as="geometry" />
        </mxCell>
        <mxCell id="dEZm_ng8QWsbmra9nYXP-2143" value="" style="shape=image;verticalLabelPosition=bottom;labelBackgroundColor=default;verticalAlign=top;aspect=fixed;imageAspect=0;image=https://static-00.iconduck.com/assets.00/vue-icon-2048x1766-ntogpmti.png;" parent="dEZm_ng8QWsbmra9nYXP-2144" vertex="1">
          <mxGeometry x="26" y="30.5" width="24" height="20.7" as="geometry" />
        </mxCell>
        <mxCell id="dEZm_ng8QWsbmra9nYXP-2148" value="" style="group" parent="1" vertex="1" connectable="0">
          <mxGeometry x="216" y="1150" width="83" height="52.5" as="geometry" />
        </mxCell>
        <mxCell id="dEZm_ng8QWsbmra9nYXP-2086" value="Cloudflare CDN" style="verticalLabelPosition=bottom;html=1;verticalAlign=top;align=center;strokeColor=#d79b00;fillColor=#ffe6cc;shape=mxgraph.azure.cloud;" parent="dEZm_ng8QWsbmra9nYXP-2148" vertex="1">
          <mxGeometry width="70" height="50" as="geometry" />
        </mxCell>
        <mxCell id="dEZm_ng8QWsbmra9nYXP-2147" value="" style="shape=image;verticalLabelPosition=bottom;labelBackgroundColor=default;verticalAlign=top;aspect=fixed;imageAspect=0;image=https://static-00.iconduck.com/assets.00/cloudflare-icon-2048x927-9dhn82y4.png;" parent="dEZm_ng8QWsbmra9nYXP-2148" vertex="1">
          <mxGeometry x="47" y="36.210000000000036" width="36" height="16.29" as="geometry" />
        </mxCell>
        <mxCell id="dEZm_ng8QWsbmra9nYXP-2152" value="" style="group" parent="1" vertex="1" connectable="0">
          <mxGeometry x="865" y="1226" width="54" height="50" as="geometry" />
        </mxCell>
        <mxCell id="dEZm_ng8QWsbmra9nYXP-2095" value="&lt;span style=&quot;background-color: rgb(255, 255, 255);&quot;&gt;Message Broker&lt;/span&gt;" style="verticalLabelPosition=bottom;html=1;verticalAlign=top;align=center;strokeColor=#b85450;fillColor=#f8cecc;shape=mxgraph.azure.service_bus_topics_and_subscriptions;pointerEvents=1;" parent="dEZm_ng8QWsbmra9nYXP-2152" vertex="1">
          <mxGeometry width="45" height="50" as="geometry" />
        </mxCell>
        <mxCell id="dEZm_ng8QWsbmra9nYXP-2151" value="" style="shape=image;verticalLabelPosition=bottom;labelBackgroundColor=default;verticalAlign=top;aspect=fixed;imageAspect=0;image=https://miro.medium.com/v2/resize:fit:2400/1*pV8ZFTptT-u3NnosIp4fRw.png;" parent="dEZm_ng8QWsbmra9nYXP-2152" vertex="1">
          <mxGeometry x="25" y="27.410000000000082" width="29" height="22.59" as="geometry" />
        </mxCell>
        <mxCell id="dEZm_ng8QWsbmra9nYXP-2154" value="" style="group" parent="1" vertex="1" connectable="0">
          <mxGeometry x="868" y="1075" width="51" height="56.83999999999992" as="geometry" />
        </mxCell>
        <mxCell id="dEZm_ng8QWsbmra9nYXP-2090" value="URLs Database" style="verticalLabelPosition=bottom;html=1;verticalAlign=top;align=center;strokeColor=#6c8ebf;fillColor=#dae8fc;shape=mxgraph.azure.database;" parent="dEZm_ng8QWsbmra9nYXP-2154" vertex="1">
          <mxGeometry width="37.5" height="50" as="geometry" />
        </mxCell>
        <mxCell id="dEZm_ng8QWsbmra9nYXP-2153" value="" style="shape=image;verticalLabelPosition=bottom;labelBackgroundColor=default;verticalAlign=top;aspect=fixed;imageAspect=0;image=https://static-00.iconduck.com/assets.00/postgresql-icon-1987x2048-v2fkmdaw.png;" parent="dEZm_ng8QWsbmra9nYXP-2154" vertex="1">
          <mxGeometry x="24" y="29" width="27" height="27.84" as="geometry" />
        </mxCell>
        <mxCell id="dEZm_ng8QWsbmra9nYXP-2157" value="" style="group" parent="1" vertex="1" connectable="0">
          <mxGeometry x="868" y="1345" width="49.870000000000005" height="56" as="geometry" />
        </mxCell>
        <mxCell id="dEZm_ng8QWsbmra9nYXP-2097" value="Analytics Database" style="verticalLabelPosition=bottom;html=1;verticalAlign=top;align=center;strokeColor=#d6b656;fillColor=#fff2cc;shape=mxgraph.azure.database;" parent="dEZm_ng8QWsbmra9nYXP-2157" vertex="1">
          <mxGeometry width="37.5" height="50" as="geometry" />
        </mxCell>
        <mxCell id="dEZm_ng8QWsbmra9nYXP-2156" value="" style="shape=image;verticalLabelPosition=bottom;labelBackgroundColor=default;verticalAlign=top;aspect=fixed;imageAspect=0;image=https://cdn.worldvectorlogo.com/logos/clickhouse.svg;" parent="dEZm_ng8QWsbmra9nYXP-2157" vertex="1">
          <mxGeometry x="24" y="33" width="25.87" height="23" as="geometry" />
        </mxCell>
        <mxCell id="dEZm_ng8QWsbmra9nYXP-2159" value="" style="group" parent="1" vertex="1" connectable="0">
          <mxGeometry x="387" y="1150" width="62.65999999999997" height="58.13000000000011" as="geometry" />
        </mxCell>
        <mxCell id="dEZm_ng8QWsbmra9nYXP-2089" value="&lt;span style=&quot;background-color: rgb(255, 255, 255);&quot;&gt;Web Server&lt;/span&gt;" style="verticalLabelPosition=bottom;html=1;verticalAlign=top;align=center;strokeColor=#9673a6;fillColor=#e1d5e7;shape=mxgraph.azure.azure_website;pointerEvents=1;" parent="dEZm_ng8QWsbmra9nYXP-2159" vertex="1">
          <mxGeometry width="51" height="50.5" as="geometry" />
        </mxCell>
        <mxCell id="dEZm_ng8QWsbmra9nYXP-2158" value="" style="shape=image;verticalLabelPosition=bottom;labelBackgroundColor=default;verticalAlign=top;aspect=fixed;imageAspect=0;image=data:image/jpeg,/9j/6zLrSlCpAAAAAAAAADLhanVtYgAAAB5qdW1kYzJwYQARABCAAACqADibcQNjMnBhAAAAMrtqdW1iAAAAR2p1bWRjMm1hABEAEIAAAKoAOJtxA3Vybjp1dWlkOjM3ZjUyNDUxLWYwM2QtNGY1Ni05OGNhLThlYzczOGY1MzNhMQAAAAQianVtYgAAAClqdW1kYzJhcwARABCAAACqADibcQNjMnBhLmFzc2VydGlvbnMAAAADIGp1bWIAAABBanVtZGNib3IAEQAQgAAAqgA4m3ETYzJwYS5oYXNoLmJveGVzAAAAABhjMnNoXhlVWoSHkOBSGMGoeq7RSgAAAtdjYm9yomNhbGdmc2hhMjU2ZWJveGVzjaNlbmFtZXOBY1NPSWRoYXNoWCBxVjrYAGFAft6cbzFoNihL03EKUgxaeSte2hy3A2kIFWNwYWRAo2VuYW1lc4FkQzJQQWRoYXNoQQBjcGFkQKNlbmFtZXOBZEFQUDBkaGFzaFggpbugkv/qGbiwV/poyU2sCfAca0V95uZnpd4l6rlbtBpjcGFkQKNlbmFtZXOBZEFQUDFkaGFzaFggow7IX4ji/mamhqg8tPHBxtfwMx9F36Y1MdJKk/zMChNjcGFkQKNlbmFtZXOBY0RRVGRoYXNoWCCz6roXFIfVkeIcYArL/vOFvekosqTDT8EkyxRHkqwE22NwYWRAo2VuYW1lc4FjRFFUZGhhc2hYIAriPEsLiEpOgbUZmp9jrt497yq0OR7gZ2AX0+76cthNY3BhZECjZW5hbWVzgWRTT0YwZGhhc2hYIEOZIfOKtsMxQseaNacrnLcTTB8dbyaLAxbzRV5+xedVY3BhZECjZW5hbWVzgWNESFRkaGFzaFggi33gSmKpOgwEasSxD71IHV762BXSHCZWJT7LoAa233BjcGFkQKNlbmFtZXOBY0RIVGRoYXNoWCAqabdjzjoE8U/M1CiRaSX4mnCr/X6/ak691R9jR4ft42NwYWRAo2VuYW1lc4FjREhUZGhhc2hYIPNXdg8p1I1tkgB5cC7JtIgNxzQTJvEup/Xr9nXv0aHsY3BhZECjZW5hbWVzgWNESFRkaGFzaFggYn9oeDtfUFm8zmTdUOIdC564oIMFHxBdaoCnYM0qVk5jcGFkQKNlbmFtZXOBY1NPU2RoYXNoWCC77mHCVD0uj2bPzra3rXv0ctqev04xjQK1UOXpBPivu2NwYWRAo2VuYW1lc4FjRU9JZGhhc2hYIM3mbnjlQZ3qdN989D2aqHa4xmnUAGeZLnGc75CsXz/gY3BhZEAAAADRanVtYgAAAD5qdW1kY2JvcgARABCAAACqADibcRNjMnBhLmFjdGlvbnMAAAAAGGMyc2heGVVahIeQ4FIYwah6rtFKAAAAi2Nib3KhZ2FjdGlvbnOBpGZhY3Rpb25sYzJwYS5jcmVhdGVkbXNvZnR3YXJlQWdlbnR4G0ltYWdlIENyZWF0b3IgZnJvbSBEZXNpZ25lcmR3aGVudDIwMjQtMDMtMDdUMDE6MjE6NDNaa2Rlc2NyaXB0aW9uckFJIEdlbmVyYXRlZCBJbWFnZQAAAnJqdW1iAAAAJGp1bWRjMmNsABEAEIAAAKoAOJtxA2MycGEuY2xhaW0AAAACRmNib3KnY2FsZ2ZzaGEyNTZpZGM6Zm9ybWF0amltYWdlL2pwZWdpc2lnbmF0dXJleExzZWxmI2p1bWJmPWMycGEvdXJuOnV1aWQ6MzdmNTI0NTEtZjAzZC00ZjU2LTk4Y2EtOGVjNzM4ZjUzM2ExL2MycGEuc2lnbmF0dXJlamluc3RhbmNlSURjMS4wb2NsYWltX2dlbmVyYXRvcngcTWljcm9zb2Z0X1Jlc3BvbnNpYmxlX0FJLzEuMHRjbGFpbV9nZW5lcmF0b3JfaW5mb4GiZG5hbWV4KU1pY3Jvc29mdCBSZXNwb25zaWJsZSBBSSBJbWFnZSBQcm92ZW5hbmNlZ3ZlcnNpb25jMS4wamFzc2VydGlvbnOCo2NhbGdmc2hhMjU2Y3VybHhdc2VsZiNqdW1iZj1jMnBhL3Vybjp1dWlkOjM3ZjUyNDUxLWYwM2QtNGY1Ni05OGNhLThlYzczOGY1MzNhMS9jMnBhLmFzc2VydGlvbnMvYzJwYS5oYXNoLmJveGVzZGhhc2hYIHUIgrcd+UFvuRYpKQRUfIASZCTnkwsf5lFyESkgIMZNo2NhbGdmc2hhMjU2Y3VybHhac2VsZiNqdW1iZj1jMnBhL3Vybjp1dWlkOjM3ZjUyNDUxLWYwM2QtNGY1Ni05OGNhLThlYzczOGY1MzNhMS9jMnBhLmFzc2VydGlvbnMvYzJwYS5hY3Rpb25zZGhhc2hYIE1IwB2tuqpju/L63G419jJ80q0GZnaioq57XsQt15liAAAr2Gp1bWIAAAAoanVtZGMyY3MAEQAQgAAAqgA4m3EDYzJwYS5zaWduYXR1cmUAAAArqGNib3LShEShATgkomd4NWNoYWlug1kGKTCCBiUwggQNoAMCAQICEzMAAAAVl8I3YaV1hhwAAAAAABUwDQYJKoZIhvcNAQEMBQAwVjELMAkGA1UEBhMCVVMxHjAcBgNVBAoTFU1pY3Jvc29mdCBDb3Jwb3JhdGlvbjEnMCUGA1UEAxMeTWljcm9zb2Z0IFNDRCBDbGFpbWFudHMgUlNBIENBMB4XDTIzMDgwMzE4MTUyN1oXDTI0MDMzMTE4MTUyN1owdDELMAkGA1UEBhMCVVMxEzARBgNVBAgTCldhc2hpbmd0b24xEDAOBgNVBAcTB1JlZG1vbmQxHjAcBgNVBAoTFU1pY3Jvc29mdCBDb3Jwb3JhdGlvbjEeMBwGA1UEAxMVTWljcm9zb2Z0IENvcnBvcmF0aW9uMIIBojANBgkqhkiG9w0BAQEFAAOCAY8AMIIBigKCAYEAsOqcLZPRy+QWChddI9v+Ql5VccKGJH3MyyAq2ySIuenP1nL/y8TYr/YYx5GDArqiCWwi87RmkQ1rtXygvxj9TDJwA9BdY59PMUM0+upus/HsfuKaX97Z4HmDiAByKwvi7Xi4OrsKEcDYPgMDhVcA3CooMJjMuNV8dPrlT6kC03kdnF8/PtNfAL0WwVxDEFqWy2Cu1ViJ2U3O8VOUGAnh2YYh2qZMcDBDRvbr+esUwtkf9fPLt6FoEDs7YXIRGhrC2GFynLNmn3XpQ+3LhP976tvt/RltVvYSOlrCd/U/fK+C3Cfg5sN2SyMnoIeZGeKq+zlSOCrZSgbV9O4rwOPaJK2DLtPlERWAECh1/fp4ofBUTO4sy+fr0lRFNLjQGpKtuXd/PnCemAOeHo3gLMHe121v5zjHPs8yu1w2CXaS/CPzLb8qMB3NylDVP2gkiQc7a1bKFbDjARWxIhOV+C9R2bwxABxSSx3NUuXu2NSEBwkpLriAyOntVQeRzHqPhndrAgMBAAGjggFMMIIBSDAZBgNVHSUBAf8EDzANBgsrBgEEAYI3TDsBCTAOBgNVHQ8BAf8EBAMCAMAwHQYDVR0OBBYEFFehcm+JfCbs17aVBdbsn1p3fpv0MB8GA1UdIwQYMBaAFIutmvyPdc3ODY1prXxMpGBW2bREMF8GA1UdHwRYMFYwVKBSoFCGTmh0dHA6Ly93d3cubWljcm9zb2Z0LmNvbS9wa2lvcHMvY3JsL01pY3Jvc29mdCUyMFNDRCUyMENsYWltYW50cyUyMFJTQSUyMENBLmNybDBsBggrBgEFBQcBAQRgMF4wXAYIKwYBBQUHMAKGUGh0dHA6Ly93d3cubWljcm9zb2Z0LmNvbS9wa2lvcHMvY2VydHMvTWljcm9zb2Z0JTIwU0NEJTIwQ2xhaW1hbnRzJTIwUlNBJTIwQ0EuY3J0MAwGA1UdEwEB/wQCMAAwDQYJKoZIhvcNAQEMBQADggIBANGqW49gSPAB6ytMm/SN6AcATaGVp8VzpXcgapVgFmnkdlbvTyiXB6+6SgWmkuxuqiZOwzjcojAVgfCspgP5ZX8m5joi5Aak5uro3rjIWeGZ3Y+RpNpZXAqW0LX1sZnkQckHjdY5sDMhYLAyI3adiq182y2Imy1IGe9PrX/SbosfGruUmL0q4H8OGiB1U+mwi0z2q5k2sbU+OqKWLhDLL6hCJOrsCHZJpsxiYu09hkzgU3GHa+HYjI0qzd9yV5V+qtaEIt0kHgo7hf/bstrvSwjyhvrbVDhXlhaqtCtDwXd/ze17fOnPK8hlWJXZmXKS5UMfwZFZLZ/IPEhIQ2KrQVYY527j/M/eu1s7jJNTGgme0jL8NrVMV6RBT66AGqtoK+4E8YdzFTv6m11iHJHMLjlk4TbtJGgZi8bRGXJt/5BcHu0/httgeb0mDSAi6YKSGiNhNV5+z2DrwDhC9hge1pZeSX5v++95EEGW0IdbVXtheO5ylaqYG2hjyDPuOsYnosl5VBkQ9tSu7UtxxKoJFoZDrcuka3TNFftpcSPhCTfGvJywvWa3nlTgceixjelINmglpTwV7QkjaYmncxPs3E2pO6NREQfL06n5oD5xaEymJXLHKjU1bJ86F37AuYF2IuKieEZIW9A1fH4sgjEJG/spn8KAqrSCNT4vQmFOCU8yWQbWMIIG0jCCBLqgAwIBAgITMwAAAATR1uF6CiJiDwAAAAAABDANBgkqhkiG9w0BAQwFADBfMQswCQYDVQQGEwJVUzEeMBwGA1UEChMVTWljcm9zb2Z0IENvcnBvcmF0aW9uMTAwLgYDVQQDEydNaWNyb3NvZnQgU3VwcGx5IENoYWluIFJTQSBSb290IENBIDIwMjIwHhcNMjIwMjE3MDA0NTI2WhcNNDIwMjE3MDA1NTI2WjBWMQswCQYDVQQGEwJVUzEeMBwGA1UEChMVTWljcm9zb2Z0IENvcnBvcmF0aW9uMScwJQYDVQQDEx5NaWNyb3NvZnQgU0NEIENsYWltYW50cyBSU0EgQ0EwggIiMA0GCSqGSIb3DQEBAQUAA4ICDwAwggIKAoICAQDXJeLb8443bNoExaat+SmT0DUBXhFfqUaWfR6k7SCD6AEWd5EAq0w3Ue+rrNM0kanwhMIOjG41cUIdInoLdbgaHVBeBccEvAJNgir6KJpZo/H8VqNbFi+cQ9h4JLGZHNGFAKZ/rGaQ4kSzZ+zecVwYl9Z0w+ipTO/B412lryhgfZhaJdbifP89TEAaEqE1LDUVMPlISMjvDPoHyA6i/CMw0L+QB0u+ziGT5H7dhbBUXWf7vN369iZS0+Dxt7FfXowzHmnNG5ll9wZinCP6EUyVDdBX3iZMHYCa66kKQMICuyplN2jmRfjy0kV3nGVJC/sUvV262AdgZ1t914LzPeAsrCQRQid5M2aIc6wv/fX24tjor+OVpHxrqraMglsxWXQPuOui1x8HmMaeMLB/TOaHVc4iMrVLikoE9wcYGb0V9mnCpBFaD0S9/pzo6sx9xpl3g1O1L0WU0kIx/SxdnMQ9epxGDtJcjxCgZHHM56MdlmclOybk2DQO4cOO8lp0Dj+FfK2eZ7Bd+t/ZXC0C1RgIGKK3kWotVyv0nUtDPXOu0vwTcd/ckeOtRuBjgLHXPjJM/7rTXF2BN7HnwOtPIG5yniRaxfOUvrtmOfhOO61cWvylcMLNaYnHzwTsbtL2sFxIOV0gSWGJAlbmv2FQSgWXK1cWohnLQiktiGWBNVX1aQIDAQABo4IBjjCCAYowDgYDVR0PAQH/BAQDAgGGMBAGCSsGAQQBgjcVAQQDAgEAMB0GA1UdDgQWBBSLrZr8j3XNzg2Naa18TKRgVtm0RDARBgNVHSAECjAIMAYGBFUdIAAwGQYJKwYBBAGCNxQCBAweCgBTAHUAYgBDAEEwDwYDVR0TAQH/BAUwAwEB/zAfBgNVHSMEGDAWgBQLs2g7r9qv7nCldtkh98xEFgfQ+DBsBgNVHR8EZTBjMGGgX6BdhltodHRwOi8vd3d3Lm1pY3Jvc29mdC5jb20vcGtpb3BzL2NybC9NaWNyb3NvZnQlMjBTdXBwbHklMjBDaGFpbiUyMFJTQSUyMFJvb3QlMjBDQSUyMDIwMjIuY3JsMHkGCCsGAQUFBwEBBG0wazBpBggrBgEFBQcwAoZdaHR0cDovL3d3dy5taWNyb3NvZnQuY29tL3BraW9wcy9jZXJ0cy9NaWNyb3NvZnQlMjBTdXBwbHklMjBDaGFpbiUyMFJTQSUyMFJvb3QlMjBDQSUyMDIwMjIuY3J0MA0GCSqGSIb3DQEBDAUAA4ICAQBpxEcsFAQ9oJ+nX90jxdm0zaRrpzJVb7sSue3McYCfUjf3mnVTtU/AsWpQAWg6C/z65YH0AEeBV8qlDb+QoGDWjAc5Q9JKHzoIdJxJA07Q0GwJHAA8mPCkG9OJDMATcdXHe5Rr3gyWFWADZfcBEPdExeaQrAlXycwDlRtYpI86tjoqzb/9OKs4hl8FfK8kjm+9XeWCdiwlmPBMl6GdH/otPRkHzxtWuFv2ZPfVsIzsA04/QwhmUmY8OrCeKMTD4rY4aOrmgjR7MghQRfDoDNAueUDs5yYVdfkb5z6u3kpXPP5H/AsGrY5U3hvjmTQjGKvqc9vaSTsb9tHXk5g+6EQRK+OC8UE5K/lE+bhBiExQTCfwJeWgahGxTeXy807rrE3KZUg4j80lnaMt0DNbMSxhlPF9zLzMK8edCPctFwKvfWMOoE9mTf9giYJ3V2g45mQKOZfk93VcUkcNazLd+iiUzFlYTB8NLmu4Sc1Lqgr507Wtip3UEANCuVZCt/KyK3xupM40vubUyWHk3QxwPwaXy5/3kGxDtKzy7hVTCc5ILiHBnNQyvjiNYU8zOt2Fs/JkIMpPy7sqAvurpoGsSxv/0od0ns4p3Zg2ZIskuaI66ccB/6qLeAp1AAwTbV7lOgtiqhl9vKS9CyFLH4Sd44M+ZiGKGlunx26nOprkYnZSxVkFszCCBa8wggOXoAMCAQICEGgo1Ux+XNq9QzmuDMFaKjUwDQYJKoZIhvcNAQEMBQAwXzELMAkGA1UEBhMCVVMxHjAcBgNVBAoTFU1pY3Jvc29mdCBDb3Jwb3JhdGlvbjEwMC4GA1UEAxMnTWljcm9zb2Z0IFN1cHBseSBDaGFpbiBSU0EgUm9vdCBDQSAyMDIyMB4XDTIyMDIxNzAwMTIzNloXDTQ3MDIxNzAwMjEwOVowXzELMAkGA1UEBhMCVVMxHjAcBgNVBAoTFU1pY3Jvc29mdCBDb3Jwb3JhdGlvbjEwMC4GA1UEAxMnTWljcm9zb2Z0IFN1cHBseSBDaGFpbiBSU0EgUm9vdCBDQSAyMDIyMIICIjANBgkqhkiG9w0BAQEFAAOCAg8AMIICCgKCAgEAniUBZhkfZDTBnTkjYh1xi1bqJdKbH+8nAYK/d9iUM4MYSJtQnnuWZMLQw19F/zKc6BcXvXjtdZhfOgYIKxw3m0ZKkAqwr0aSPjOJKvq45zJj8yPHbtIU+yZY7v4GhFT6wR83qtvU7FYqv0m9zOsC7cZO/KwZtRI1aRWJF02jaOpsHimaCfPOeiHGCdEZ6o8wRmk7aAQrfIot1mNd6m3WOZ69Bj5b7i8RWyhrp1KkaF5MpOquziO/TDZx2oFFUI7Khs7/U8O4Q7Mk7gd6orT6xwode8ZSNTHsCB+EgJJb+LHaOdbJ5+WJBH5Rf/TmamRHSer47Kb2oENT/trDIyTYJdoTLCq3P5TedxxMeBxq+ZqP62oVd3etSYTOEEDHmUgP1ZYegJxzoTihA2/TTSDQtUPk9y54D073vL9l2m2QC1u/3uonJ5lk+Dl8cz3WIdLu1vNTES5Vw9zq8SlX3lGheHOQCy/1yXU2643SbY55XboaOP/fGQGo0sjR1vLrivUu0cyTE5uckHhlY3kExPGen4w682QM/pgdk+KPVqVjUyO4bnMWRRq293sPzaQy/1r+lo3hh3jbcIOoJIVpIMJtEg3lefYqWc/Wq+eB5qCxiC0IjAuxz9dsNq+e+QNn2UFzqatFuHFgWBjUFixlutEF3pLFUBARkM5HzPuvvyPAnwUCAwEAAaNnMGUwDgYDVR0PAQH/BAQDAgGGMA8GA1UdEwEB/wQFMAMBAf8wHQYDVR0OBBYEFAuzaDuv2q/ucKV22SH3zEQWB9D4MBAGCSsGAQQBgjcVAQQDAgEAMBEGA1UdIAQKMAgwBgYEVR0gADANBgkqhkiG9w0BAQwFAAOCAgEASMc3///BaFfXi0NmRjomay/o+t5ooY9H8T00lXraVTH0ldI4Xyy6j6WNUTFqiVVobCtCZGqFJKBRA8fd0XJY7WwejNiRxedJEZ0ZejdYHndE+8IImELETeObig7PQEVPG4BwWYyTgegP1cgmlan3H3cGuMrvnPvoZtrlOeDS0mLDp9S2GJonmyZQSnKX1bNbKqT9Xy9+5mKjJ2YM+tkZzBEdMagBUgjmVAyZYyvq2ITUtAgW775KW4hY9AYWoOt6XeHHRNa7L1VWJfCeDOQPEtvAf69WXcaJDnGpVhLkuZyoZB61R5WSrtBwyJN9fFpY8QXxSrhschiprh9XmSZ0ZvUdD99d8Oc3W1+68LTv5GMHfh8yGGmpcFqS+XmcWNR+v3JdU0YrbqOZYNaFjGZ3Fnav4sUYW+JdCDbWZjcXZfAuz6HlvOaNDWW0VlNdn8ivTm5Rz4i+kuow+yzndT9CYMRx55efc8efytG4bCPqUCgdDkPM9akbQOummOXlD8WSL6WWx9f6PBjuHRthA/2G5yRBM73Y87ZgfPMcggPVYK/f9CCk5IEGIlrMhTN9ZPjkuL+AF9T7IT9jruePtxdE7HIuNckL0IEd6XIDCUHZ3wlI5s23shxgJRlS8z0SSe2dlCKOcSj4wQdUc904CLSFjxRsqgCvQKu1h862OVxz+ZBmc2lnVHN0oWl0c3RUb2tlbnOBoWN2YWxZFzUwghcxMAMCAQAwghcoBgkqhkiG9w0BBwKgghcZMIIXFQIBAzEPMA0GCWCGSAFlAwQCAQUAMHgGCyqGSIb3DQEJEAEEoGkEZzBlAgEBBglghkgBhv1sBwEwMTANBglghkgBZQMEAgEFAAQgRqG1X4tFLuzupEseESCXncHzGpkjdfXN+y6IwtbK5y8CEQCUnTCDoXtCaQEm3d9kMD1sGA8yMDI0MDMwNzAxMjE0MlqgghMJMIIGwjCCBKqgAwIBAgIQBUSv85SdCDmmv9s/X+VhFjANBgkqhkiG9w0BAQsFADBjMQswCQYDVQQGEwJVUzEXMBUGA1UEChMORGlnaUNlcnQsIEluYy4xOzA5BgNVBAMTMkRpZ2lDZXJ0IFRydXN0ZWQgRzQgUlNBNDA5NiBTSEEyNTYgVGltZVN0YW1waW5nIENBMB4XDTIzMDcxNDAwMDAwMFoXDTM0MTAxMzIzNTk1OVowSDELMAkGA1UEBhMCVVMxFzAVBgNVBAoTDkRpZ2lDZXJ0LCBJbmMuMSAwHgYDVQQDExdEaWdpQ2VydCBUaW1lc3RhbXAgMjAyMzCCAiIwDQYJKoZIhvcNAQEBBQADggIPADCCAgoCggIBAKNTRYcdg45brD5UsyPgz5/X5dLnXaEOCdwvSKOXejsqnGfcYhVYwamTEafNqrJq3RApih5iY2nTWJw1cb86l+uUUI8cIOrHmjsvlmbjaedp/lvD1isgHMGXlLSlUIHyz8sHpjBoyoNC2vx/CSSUpIIa2mq62DvKXd4ZGIX7ReoNYWyd/nFexAaaPPDFLnkPG2ZS48jWPl/aQ9OE9dDH9kgtXkV1lnX+3RChG4PBuOZSlbVH13gpOWvgeFmX40QrStWVzu8IF+qCZE3/I+PKhu60pCFkcOvV5aDaY7Mu6QXuqvYk9R28mxyyt1/f8O52fTGZZUdVnUokL6wrl76f5P17cz4y7lI0+9S769SgLDSb495uZBkHNwGRDxy1Uc2qTGaDiGhiu7xBG3gZbeTZD+BYQfvYsSzhUa+0rRUGFOpiCBPTaR58ZE2dD9/O0V6MqqtQFcmzyrzXxDtoRKOlO0L9c33u3Qr/eTQQfqZcClhMAD6FaXXHg2TWdc2PEnZWpST618RrIbroHzSYLzrqawGw9/sqhux7UjipmAmhcbJsca8+uG+W1eEQE/5hRwqM/vC2x9XH3mwk8L9CgsqgcT2ckpMEtGlwJw1Pt7U20clfCKRwo+wK8REuZODLIivK8SgTIUlRfgZm0zu++uuRONhRB8qUt+JQofM604qDy0B7AgMBAAGjggGLMIIBhzAOBgNVHQ8BAf8EBAMCB4AwDAYDVR0TAQH/BAIwADAWBgNVHSUBAf8EDDAKBggrBgEFBQcDCDAgBgNVHSAEGTAXMAgGBmeBDAEEAjALBglghkgBhv1sBwEwHwYDVR0jBBgwFoAUuhbZbU2FL3MpdpovdYxqII+eyG8wHQYDVR0OBBYEFKW27xPn783QZKHVVqllMaPe1eNJMFoGA1UdHwRTMFEwT6BNoEuGSWh0dHA6Ly9jcmwzLmRpZ2ljZXJ0LmNvbS9EaWdpQ2VydFRydXN0ZWRHNFJTQTQwOTZTSEEyNTZUaW1lU3RhbXBpbmdDQS5jcmwwgZAGCCsGAQUFBwEBBIGDMIGAMCQGCCsGAQUFBzABhhhodHRwOi8vb2NzcC5kaWdpY2VydC5jb20wWAYIKwYBBQUHMAKGTGh0dHA6Ly9jYWNlcnRzLmRpZ2ljZXJ0LmNvbS9EaWdpQ2VydFRydXN0ZWRHNFJTQTQwOTZTSEEyNTZUaW1lU3RhbXBpbmdDQS5jcnQwDQYJKoZIhvcNAQELBQADggIBAIEa1t6gqbWYF7xwjU+KPGic2CX/yyzkzepdIpLsjCICqbjPgKjZ5+PF7SaCinEvGN1Ott5s1+FgnCvt7T1IjrhrunxdvcJhN2hJd6PrkKoS1yeF844ektrCQDifXcigLiV4JZ0qBXqEKZi2V3mP2yZWK7Dzp703DNiYdk9WuVLCtp04qYHnbUFcjGnRuSvExnvPnPp44pMadqJpddNQ5EQSviANnqlE0PjlSXcIWiHFtM+YlRpUurm8wWkZus8W8oM3NG6wQSbd3lqXTzON1I13fXVFoaVYJmoDRd7ZULVQjK9WvUzF4UbFKNOt50MAcN7MmJ4ZiQPq1JE3701S88lgIcRWR+3aEUuMMsOI5ljitts++V+wQtaP4xeR0arAVeOGv6wnLEHQmjNKqDbUuXKWfpd5OEhfysLcPTLfddY2Z1qJ+Panx+VPNTwAvb6cKmx5AdzaROY63jg7B145WPR8czFVoIARyxQMfq68/qTreWWqaNYiyjvrmoI1VygWy2nyMpqy0tg6uLFGhmu6F/3Ed2wVbK6rr3M66ElGt9V/zLY4wNjsHPW2obhDLN9OTH0eaHDAdwrUAuBcYLso/zjlUlrWrBciI0707NMX+1Br/wd3H3GXREHJuEbTbDJ8WC9nR2XlG3O2mflrLAZG70Ee8PBf4NvZrZCARK+AEEGKMIIGrjCCBJagAwIBAgIQBzY3tyRUfNhHrP0oZipeWzANBgkqhkiG9w0BAQsFADBiMQswCQYDVQQGEwJVUzEVMBMGA1UEChMMRGlnaUNlcnQgSW5jMRkwFwYDVQQLExB3d3cuZGlnaWNlcnQuY29tMSEwHwYDVQQDExhEaWdpQ2VydCBUcnVzdGVkIFJvb3QgRzQwHhcNMjIwMzIzMDAwMDAwWhcNMzcwMzIyMjM1OTU5WjBjMQswCQYDVQQGEwJVUzEXMBUGA1UEChMORGlnaUNlcnQsIEluYy4xOzA5BgNVBAMTMkRpZ2lDZXJ0IFRydXN0ZWQgRzQgUlNBNDA5NiBTSEEyNTYgVGltZVN0YW1waW5nIENBMIICIjANBgkqhkiG9w0BAQEFAAOCAg8AMIICCgKCAgEAxoY1BkmzwT1ySVFVxyUDxPKRN6mXUaHW0oPRnkyibaCwzIP5WvYRoUQVQl+kiPNo+n3znIkLf50fng8zH1ATCyZzlm34V6gCff1DtITaEfFzsbPuK4CEiiIY3+vaPcQXf6sZKz5C3GeO6lE98NZW1OcoLevTsbV15x8GZY2UKdPZ7Gnf2ZCHRgB720RBidx8ald68Dd5n12sy+iEZLRS8nZH92GDGd1ftFQLIWhuNyG7QKxfst5Kfc71ORJn7w6lY2zkpsUdzTYNXNXmG6jBZHRAp8ByxbpOH7G1WE15/tePc5OsLDnipUjW8LAxE6lXKZYnLvWHpo9OdhVVJnCYJn+gGkcgQ+NDY4B7dW4nJZCYOjgRs/b2nuY7W+yB3iIU2YIqx5K/oN7jPqJz+ucfWmyU8lKVEStYdEAoq3NDzt9KoRxrOMUp88qqlnNCaJ+2RrOdOqPVA+C/8KI8ykLcGEh/FDTP0kyr75s9/g64ZCr6dSgkQe1CvwWcZklSUPRR8zZJTYsg0ixXNXkrqPNFYLwjjVj33GHek/45wPmyMKVM1+mYSlg+0wOI/rOP015LdhJRk8mMDDtbiiKowSYI+RQQEgN9XyO7ZONj4KbhPvbCdLI/Hgl27KtdRnXiYKNYCQEoAA6EVO7O6V3IXjASvUaetdN2udIOa5kM0jO0zbECAwEAAaOCAV0wggFZMBIGA1UdEwEB/wQIMAYBAf8CAQAwHQYDVR0OBBYEFLoW2W1NhS9zKXaaL3WMaiCPnshvMB8GA1UdIwQYMBaAFOzX44LScV1kTN8uZz/nupiuHA9PMA4GA1UdDwEB/wQEAwIBhjATBgNVHSUEDDAKBggrBgEFBQcDCDB3BggrBgEFBQcBAQRrMGkwJAYIKwYBBQUHMAGGGGh0dHA6Ly9vY3NwLmRpZ2ljZXJ0LmNvbTBBBggrBgEFBQcwAoY1aHR0cDovL2NhY2VydHMuZGlnaWNlcnQuY29tL0RpZ2lDZXJ0VHJ1c3RlZFJvb3RHNC5jcnQwQwYDVR0fBDwwOjA4oDagNIYyaHR0cDovL2NybDMuZGlnaWNlcnQuY29tL0RpZ2lDZXJ0VHJ1c3RlZFJvb3RHNC5jcmwwIAYDVR0gBBkwFzAIBgZngQwBBAIwCwYJYIZIAYb9bAcBMA0GCSqGSIb3DQEBCwUAA4ICAQB9WY7Ak7ZvmKlEIgF+ZtbYIULhsBguEE0TzzBTzr8Y+8dQXeJLKftwig2qKWn8acHPHQfpPmDI2AvlXFvXbYf6hCAlNDFnzbYSlm/EUExiHQwIgqgWvalWzxVzjQEiJc6VaT9Hd/tydBTX/6tPiix6q4XNQ1/tYLaqT5Fmniye4Iqs5f2MvGQmh2ySvZ180HAKfO+ovHVPulr3qRCyXen/KFSJ8NWKcXZl2szwcqMj+sAngkSumScbqyQeJsG33irr9p6xeZmBo1aGqwpFyd/EjaDnmPv7pp1yr8THwcFqcdnGE4AJxLafzYeHJLtPo0m5d2aR8XKc6UsCUqc3fpNTrDsdCEkPlM05et3/JWOZJyw9P2un8WbDQc1PtkCbISFA0LcTJM3cHXg65J6t5TRxktcma+Q4c6umAU+9Pzt4rUyt+8SVe+0KXzM5h0F4ejjpnOHdI/0dKNPH+ejxmF/7K9h+8kaddSweJywm228Vex4Ziza4k9Tm8heZWcpw8De/mADfIBZPJ/tgZxahZrrdVcA6KYawmKAr7ZVBtzrVFZgxtGIJDwq9gdkT/r+k0fNX2bwE+oLeMt8EifAAzV3C+dAjfwAL5HYCJtnwZXZCpimHCUcr5n8apIUP/JiW9lVUKx+A+sDyDivl1vupL0QVSucTDh3bNzgaoSv27dZ8/DCCBY0wggR1oAMCAQICEA6bGI750C3n79tQ4ghAGFowDQYJKoZIhvcNAQEMBQAwZTELMAkGA1UEBhMCVVMxFTATBgNVBAoTDERpZ2lDZXJ0IEluYzEZMBcGA1UECxMQd3d3LmRpZ2ljZXJ0LmNvbTEkMCIGA1UEAxMbRGlnaUNlcnQgQXNzdXJlZCBJRCBSb290IENBMB4XDTIyMDgwMTAwMDAwMFoXDTMxMTEwOTIzNTk1OVowYjELMAkGA1UEBhMCVVMxFTATBgNVBAoTDERpZ2lDZXJ0IEluYzEZMBcGA1UECxMQd3d3LmRpZ2ljZXJ0LmNvbTEhMB8GA1UEAxMYRGlnaUNlcnQgVHJ1c3RlZCBSb290IEc0MIICIjANBgkqhkiG9w0BAQEFAAOCAg8AMIICCgKCAgEAv+aQc2jeu+RdSjwwIjBpM+zCpyUuySE98orYWcLhKac9WKt2ms2uexuEDcQwH/MbpDgW61bGl20dq7J58soR0uRf1gU8Ug9SH8aeFaV+vp+pVxZZVXKvaJNwwrK6dZlqczKU0RBEEC7fgvMHhOZ0O21x4i0MG+4g1ckgHWMpLc7sXk7Ik/ghYZs06wXGXuxbGrzryc/NrDRAX7F6Zu53yEioZldXn1RYjgwrt0+nMNlW7sp7XeOtyU9e5TXnMcvak17cjo+A2raRmECQecN4x7axxLVqGDgDEI3Y1DekLgV9iPWCPhCRcKtVgkEy19sEcypukQF8IUzUvK4bA3VdeGbZOjFEmjNAvwjXWkmkwuapoGfdpCe8oU85tRFYF/ckXEaPZPfBaYh2mHY9WV1CdoeJl2l6SPDgohIbZpp0yt5LHucOY67m1O+SkjqePdwA5EUlibaaRBkrfsCUtNJhbesz2cXfSwQAzH0clcOP9yGyshG3u3/y1YxwLEFgqrFjGESVGnZifvaAsPvoZKYz0YkH4b235kOkGLimdwHhD5QMIR2yVCkliWzlDlJRR3S+Jqy2QXXeeqxfjT/JvNNBERJb5RBQ6zHFynIWIgnffEx1P2PsIV/EIFFrb7GrhotPwtZFX50g/KEexcCPorF+CiaZ9eRpL5gdLfXZqbId5RsCAwEAAaOCATowggE2MA8GA1UdEwEB/wQFMAMBAf8wHQYDVR0OBBYEFOzX44LScV1kTN8uZz/nupiuHA9PMB8GA1UdIwQYMBaAFEXroq/0ksuCMS1Ri6enIZ3zbcgPMA4GA1UdDwEB/wQEAwIBhjB5BggrBgEFBQcBAQRtMGswJAYIKwYBBQUHMAGGGGh0dHA6Ly9vY3NwLmRpZ2ljZXJ0LmNvbTBDBggrBgEFBQcwAoY3aHR0cDovL2NhY2VydHMuZGlnaWNlcnQuY29tL0RpZ2lDZXJ0QXNzdXJlZElEUm9vdENBLmNydDBFBgNVHR8EPjA8MDqgOKA2hjRodHRwOi8vY3JsMy5kaWdpY2VydC5jb20vRGlnaUNlcnRBc3N1cmVkSURSb290Q0EuY3JsMBEGA1UdIAQKMAgwBgYEVR0gADANBgkqhkiG9w0BAQwFAAOCAQEAcKC/Q1xV5zhfoKN0Gz22Ftf3v1cHvZqsoYcs7IVeqRq7IviHGmlUIu2kiHdtvRoU9BNKei8ttzjv9P+Aufih9/Jy3iS8UgPITtAq3votVs/59PesMHqai7Je1M/RQ0SbQyHrlnKhSLSZy51PpwYDE3cnRNTnf+hZqPC/Lwum6fI0POz3A8eHqNJMQBk1RmppVLC4oVaO7KTVPeix3P0c2PR3WlxUjG/voVA9/HYJaISfb8rbII01YBwCA8sgsKxYoA5AY8WYIsGyWfVVa88nq2x2zm8jLfR+cWojayL/ErhULSd+2DrZ8LaHlv1b0VysGMNNn3O3AamfV6peKOK5lDGCA3YwggNyAgEBMHcwYzELMAkGA1UEBhMCVVMxFzAVBgNVBAoTDkRpZ2lDZXJ0LCBJbmMuMTswOQYDVQQDEzJEaWdpQ2VydCBUcnVzdGVkIEc0IFJTQTQwOTYgU0hBMjU2IFRpbWVTdGFtcGluZyBDQQIQBUSv85SdCDmmv9s/X+VhFjANBglghkgBZQMEAgEFAKCB0TAaBgkqhkiG9w0BCQMxDQYLKoZIhvcNAQkQAQQwHAYJKoZIhvcNAQkFMQ8XDTI0MDMwNzAxMjE0MlowKwYLKoZIhvcNAQkQAgwxHDAaMBgwFgQUZvArMsLCyQ+CXc6qisnGTxmcz0AwLwYJKoZIhvcNAQkEMSIEILWYWyh74Pjb/hHIpTA77UP44wXf0fMl2PjBCkmYAAxvMDcGCyqGSIb3DQEJEAIvMSgwJjAkMCIEINL25G3tdCLM0dRAV2hBNm+CitpVmq4zFq9NGprUDHgoMA0GCSqGSIb3DQEBAQUABIICAGg7mJABYtJ17AQWocaMBOgKejonWm0R+w/xah8cPnf2AafpSvxchaK1n9ggpaJf81HeF5PnLE+f4c5ajyiFc11c8U+TiKtBc7iWTsed7MQzuurj+DvvPKuLqskmLRsBmJZrhDQx8NUluOhfpcvHm8vUm451NWBGJI/rrob0ifybgqZWIl5paqj7UF5W1LQ6S2vxah1AnqJqfWyxi8c9Sm5scEM1d9+udQavGCPSS7bcUakq/CJ7/jpM4QnarAcBgsh495zfn9KoIYLcAwN2loZyPE1fyYwdeNgfGaYWn1ES4SIEke+YjMWvH2PmW9vqfO1WyU/TIv3TICpBglmLdlV2vtCS44TSyIvOgCxon97KD1yAZZgygjrAxWlI5tvhlq1IWrPzgZlXp+dg5MrwNe1vRxgmaEPZElYDfZePzUsnOI1DORGnCY81XDZGB7rluwXsbariNitwngqkdXcmCD6yLSCZB59IIaSUrw0bO+X4c3Dog/3UlIcFrbt+7b+AvW5dowk5gMK4sjmr21BObdlZq2BpHKmACRqPQRRZIoYnlECsnnjfHWpJnok/BSE77dFPTWK9SKONIoLeb9CZt7O+mZZkaJDOh24N7p12Y5tlJ9vXcQtY3ZxFDWJdb0Q7Du7Mo5GNypkWXO3dv4qA/S1Nv2K21lkmhqK23MyMB/vj9lkBgEjelMOU0SvBQpTkyajyAxHm/u2vm0MVRB8GOV9BEGijBcjT7cvgRP1yXW31HZGl1BnyvFcUJplKjRFuqG7AHz2h1BqENCRJiULHa1QgObjEkfwsYPrNdRSIiFKowE0HRfqshmICS5Av5B46AquLFNRRffINexjjvXSFmbaodiefSXIZRO4eJAGtZOhKDhesPefX65MdQQKS5f5bEgSv9nspEbpKWobv0Hpbyo+i/FK+AMCbocB4XKrlswogN4dcB9Y1I83h3O3mLBiUWVbfXQA7RTdYmlbLP4tGwzwBFez/d5xTSsraMvhMikds+zVeTUMspFtE1/iFSZ/FgBCUaatzyv2oaxb+IPOqFZ2DLsmN2/AVnP6Hk5tioWSub8LAojxSkkVjozg2XUkQOHrUWG+4/bmrlb/52aIWyj+H5T5hfttWuXhFWsHtDRbYOl/iYwZPrOIpljrbkerS3hruo6u+M/nFS4J1ajvyDRC0CfFlcl7YcB3cWGH1t+RnLDKyFP/gABBKRklGAAEBAQBgAGAAAP/hADpFeGlmAABNTQAqAAAACAADURAAAQAAAAEBAAAAUREABAAAAAEAAAAAURIABAAAAAEAAAAAAAAAAP/bAEMABwUFBgUEBwYFBggHBwgKEQsKCQkKFQ8QDBEYFRoZGBUYFxseJyEbHSUdFxgiLiIlKCkrLCsaIC8zLyoyJyorKv/bAEMBBwgICgkKFAsLFCocGBwqKioqKioqKioqKioqKioqKioqKioqKioqKioqKioqKioqKioqKioqKioqKioqKioqKv/AABEIBAAEAAMBIgACEQEDEQH/xAAfAAABBQEBAQEBAQAAAAAAAAAAAQIDBAUGBwgJCgv/xAC1EAACAQMDAgQDBQUEBAAAAX0BAgMABBEFEiExQQYTUWEHInEUMoGRoQgjQrHBFVLR8CQzYnKCCQoWFxgZGiUmJygpKjQ1Njc4OTpDREVGR0hJSlNUVVZXWFlaY2RlZmdoaWpzdHV2d3h5eoOEhYaHiImKkpOUlZaXmJmaoqOkpaanqKmqsrO0tba3uLm6wsPExcbHyMnK0tPU1dbX2Nna4eLj5OXm5+jp6vHy8/T19vf4+fr/xAAfAQADAQEBAQEBAQEBAAAAAAAAAQIDBAUGBwgJCgv/xAC1EQACAQIEBAMEBwUEBAABAncAAQIDEQQFITEGEkFRB2FxEyIygQgUQpGhscEJIzNS8BVictEKFiQ04SXxFxgZGiYnKCkqNTY3ODk6Q0RFRkdISUpTVFVWV1hZWmNkZWZnaGlqc3R1dnd4eXqCg4SFhoeIiYqSk5SVlpeYmZqio6Slpqeoqaqys7S1tre4ubrCw8TFxsfIycrS09TV1tfY2dri4+Tl5ufo6ery8/T19vf4+fr/2gAMAwEAAhEDEQA/APfqKKK4GdoUUUUgCiiigAooooAKKKKACiiigAooooAKKKKACiiigAooooAKKKKACiiigAooooAKKKKACiiigAooooAKKKKACiiigAooooAKKKKACiiigAooooAKKKKACiiigAooooAKKKKACiiigAooooAKKKKACiiigAooooAKKKKACiiigAooooAKKKKACiiigAooooAKKKKACiiigAooooAKKKKACiiigAooooAKKKKACiiigAooooAKKKKACiiigAooooAKKKKACiiigAooooAKKKKACiiigAooooAKKKKACiiigAooooAKKKKACiiigA/GiiigAooooAKKKKACiiigQtJS0lAwooooAKKKKACiiigAooooAKKKKACiiigAooooAKKKKACiiigAooooAKKKKACiiigAooooAKKKKACiiigAooooAKKKKACiiigAooooAKKKKACiiigAooooAKKKKACiiigAooooAKKKKACiiigAooooAKKKKACiiigAooooAKKKKACiiigAooooAKKKKACiiigAooooAKKKKACiiigAooooAKKKKACiiigAooooAKKKKACiiigAooooAKKKKACiiigAooooAKKKKACiiigAooooAKKKKACiiigAooooAKKKKACiiigAooooAKKKKACiiigAooooAKKKKACkpaKAFpKWkoAKKKKACiiigAooooAKKKKACiiigAooooAKKKKACiiigAooooAKKKKACiiigAooooAKKKKACiiigAooooAKKKKACiiigAooooAKKKKACiiigAooooAKKKKACiiigAooooAKKKKACiiigAooooAKKKKACiiigAooooAKKKKACiiigAooooAKKKKACiiigAooooAKKKKACiiigAooooAKKKKACiiigAooooAKKKKACiiigAooooAKKKKACiiigAooooAKKKKACiiigAooooAKKKKACiiigAooooAKKKKACiiigAooooAKKKKACiiigAooooAKKKKACiiigAooooELRRRQMSiiigAooooAKKKKACiiigAooooAKKKKACiiigAooooAKKKKACiiigAooooAKKKKACiiigAooooAKKKKACiiigAooooAKKKKACiiigAooooAKKKKACiiigAooooAKKKKACiiigAooooAKKKKACiiigAooooAKKKKACiiigAooooAKKKKACiiigAooooAKKKKACiiigAooooAKKKKACiiigAooooAKKKKACiiigAooooAKKKKACiiigAooooAKKKKACiiigAooooAKKKKACiiigAooooAKKKKACiiigAooooAKKKKACiiigAooooAKKKKACiiigAooooAWkpRSUCFooooGJRRRQAUUUUAFFFFABRRRQAUUUUAFFFFABRRRQAUUUUAFFFFABRRRQAUUUUAFFFFABRRRQAUUUUAFFFFABRRRQAUUUUAFFFFABRRRQAUUUUAFFFFABRRRQAUUUUAFFFFABRRRQAUUUUAFFFFABRRRQAUUUUAFFFFABRRRQAUUUUAFFFFABRRRQAUUUUAFFFFABRRRQAUUUUAFFFFABRRRQAUUUUAFFFFABRRRQAUUUUAFFFFABRRRQAUUUUAFFFFABRRRQAUUUUAFFFFABRRRQAUUUUAFFFFABRRRQAUUUUAFFFFABRRRQAUUUUAFFFFABRRRQAUUUUAFFHaigQtJS0lAwooooAKKKKACiiigAooooAKKKKACiiigAooooAKKKKACiiigAooooAKKKKACiiigAooooAKKKKACiiigAooooAKKKKACiiigAooooAKKKKACiiigAooooAKKKKACiiigAooooAKKKKACiiigAooooAKKKKACiiigAooooAKKKKACiiigAooooAKKKKACiiigAooooAKKKKACiiigAooooAKKKKACiiigAooooAKKKKACiiigAooooAKKKKACiiigAooooAKKKKACiiigAooooAKKKKACiiigAooooAKKKKACiiigAooooAKKKKACiiigAooooAKKKKACijtRQAtJS0UAJRRRQAUUUUAFFFFABRRRQAUUUUAFFFFABRRRQAUUUUAFFFFABRRRQAUUUUAFFFFABRRRQAUUUUAFFFFABRRRQAUUUUAFFFFABRRRQAUUUUAFFFFABRRRQAUUUUAFFFFABRRRQAUUUUAFFFFABRRRQAUUUUAFFFFABRRRQAUUUUAFFFFABRRRQAUUUUAFFFFABRRRQAUUUUAFFFFABRRRQAUUUUAFFFFABRRRQAUUUUAFFFFABRRRQAUUUUAFFFFABRRRQAUUUUAFFFFABRRRQAUUUUAFFFFABRRRQAUUUUAFFFFABRRRQAUUUUAFFFFABRRRQAUUUUAHaijtRQAtFFFACUUUUAFFFFABRRRQAUUUUAFFFFABRRRQAUUUUAFFFFABRRRQAUUUUAFFFFABRRRQAUUUUAFFFFABRRRQAUUUUAFFFFABRRRQAUUUUAFFFFABRRRQAUUUUAFFFFABRRRQAUUUUAFFFFABRRRQAUUUUAFFFFABRRRQAUUUUAFFFFABRRRQAUUUUAFFFFABRRRQAUUUUAFFFFABRRRQAUUUUAFFFFABRRRQAUUUUAFFFFABRRRQAUUUUAFFFFABRRRQAUUUUAFFFFABRRRQAUUUUAFFFFABRRRQAUUUUAFFFFABRRRQAUUUUAFFFFABRRRQAUUUUAFFFFAC0lKKSgQtFFJQMKKKKACiiigAooooAKKKKACiiigAooooAKKKKACiiigAooooAKKKKACiiigAooooAKKKKACiiigAooooAKKKKACiiigAooooAKKKKACiiigAooooAKKKKACiiigAooooAKKKKACiiigAooooAKKKKACiiigAooooAKKKKACiiigAooooAKKKKACiiigAooooAKKKKACiiigAooooAKKKKACiiigAooooAKKKKACiiigAooooAKKKKACiiigAooooAKKKKACiiigAooooAKKKKACiiigAooooAKKKKACiiigAooooAKKKKACiiigAooooAKKKKACiiigA7UUdqKBC0UUUDEooooAKKKKACiiigAooooAKKKKACiiigAooooAKKKKACiiigAooooAKKKKACiiigAooooAKKKKACiiigAooooAKKKKACiiigAooooAKKKKACiiigAooooAKKKKACiiigAooooAKKKKACiiigAooooAKKKKACiiigAooqC8vLbT7Oa7vp47e2gQvLLK21UUdSTQBPS4rwbxD+0mltrQi8NaSl3p8T4ee6Zkacf7AH3R6E5PsK9S8D+P9F8e6YbnSJSs8QH2i0k4khPuO49COPx4rR0pxV2jKNWMnZHTUUtFZmglFFFAwooooAKKKKACiiigAooooAKKKKACiiigAooooAKKKKACiiigAooooAKKKKACiiigAooooAKKKKACiiigAooooAKKKKACiiigAooooAKKKKACiiigAooooAKKKKACiiigAooooAKKKKACiiigAooooAO1FHaigBaKKKAEooooAKKKKACiiigAooooAKKKKACiiigAooooAKKKKACiiigAooooAKKKKACiiigAooooAKKKKACiiigAooooAKKKKACiiigAooooAKKKKACiiigAooooAKKKKACiiigAooooAKKKKACiiigAooooAKKKKACiiorm5gsrWW5u5UgghQvJLI2FRQMkk0AQ6nqdno2mXGoapcJbWluheWVzwo/qewA5Jr5T+KHxWvvHt4bS132eiQvmG2z80xHSST1PovQe55p3xX+KNx471Q2lgzwaHayZgiPBnYcea49fQdh715yTXo4fD8vvS3PPrVub3Y7C5rQ0LXdR8N6xBqmi3TWt3Acq69CO6sO4PcGs2lzXY0mc6Z9h/DT4naf8QNL2/Ja6vAgN1Z56/wC2nqpP4joexPc18I6Rq19oWrW+p6TcvbXls++OVD0PofUHoQeCK+uvhp8RLP4geHxOAsGp2wC3tqD91v76/wCye3p0rzK9Hkd1sd9GrzKz3O0pDS0VynQJRRRQMKKKKACiiigAooooAKKKKACiiigAooooAKKKKACiiigAooooAKKKKACiiigAooooAKKKKACiiigAooooAKKKKACiiigAooooAKKKKACiiigAooooAKKKKACiiigAooooAKKKKACiiigAooooAO1FFFAC0UUUAJRRRQAUUUUAFFFFABRRRQAUUUUAFFFFABRRRQAUUUUAFFFFABRRRQAUUUUAFFFFABRRRQAUUUUAFFFFABRRRQAUUUUAFFFFABRRRQAUUUUAFFFFABRRRQAUUUUAFFFFABRRRQAUUUUAFFFFABRRRQAUUUlABXzj8dviZ/at5J4T0OfNjbP/AKdMjcTyD/lmPVVPX1P0r0f4zfEH/hDPC32TTpdusakDHbkHmGPo8v8AQe59q+TSck859zXZhqV3zs5MRUt7iEJzSUtJXpHABooopgKK2/CfinUPB/iO31nSZMSwnDxk/LMh+8jex/Q4PUVh0oNS4pqw02ndH3L4X8S6f4t8O2usaTJuguF5U/eiYfeRvcGtevlD4K/EH/hD/E/9n6jLt0fU2CS7jxBL0WT2HY+3Pavq4HIryK1LkkepTqKcbi0lLSViahRRRQAUUUUAFFFFABRRRQAUUUUAFFFFABRRRQAUUUUAFFFFABRRRQAUUUUAFFFFABRRRQAUUUUAFFFFABRRRQAUUUUAFFFFABRRRQAUUUUAFFFFABRRRQAUUUUAFFFFABRRRQAUUUUAFFFFAB2ooooAWiiigBKKKKACiiigAooooAKKKKACiiigAooooAKKKKACiiigAooooAKKKKACiiigAooooAKKKKACiiigAooooAKKKKACiiigAooooAKKKKACiiigAopaKAEopaSgAooooAKKKKACiiigAooooAKKKKACiiigBKhvLyDT7Ka7vJVit7eNpZZG6KqjJP5VNXj37RHio6X4Qt9BtnxPq8mZcHkQIQT+bYH4GqhHnkokzlyxbPB/HHiy58a+Lr3WrrKLM22CLPEUQ4Rfy5PuTXPUHk0V7cYpKyPIk23cSiiiqJCiiimAUUUUAOHPBr6s+BnjdvFPg3+z7+TfqOk7YXJPMkWP3b/oVP096+UhXafCnxWfCHxCsL2R9tnct9lu+ePLcj5v+AnDfhXPWp88TejPkkfZFJQKWvH2PUEooooAKKKKACiiigAooooAKKKKACiiigAoxRS0CEopaTFABRRRQMKKKKACiiigAooooAKKKKACiiigAooooAKKKKACiiigAooooAKKKKACiiigAooooAKKKKACiiigAooooAKKKKACiiigAooooAKKKKAFooooASiiigAooooAKKKKACiiigAooooAKKKKACiiigAooooAKKKKACiiigAooooAKKKKACiiigAooooAKKKKACiiigAooooAKKKKACiikoA5jx945svAHhz+1L2B7p5JVhgt422mVzk9ewABJP8AjXm1v+07pZbF34ZvYx6xXKP/ADArD/aV1fzvEWjaSh+W1tnuHH+1IwA/RP1rxKu+jh4ygnI4alaSnZH1Xpf7Qfga/wAC7mvtNY/8/NsWH5x7q7nRfFWgeIlzoesWV8cZKwzAsPqvUflXw3ilUlJFdCVdTlWHBB9jVSwkejEsTLqffXSivkPwt8afGPhhkjN//almvW2vvn49n+8PzI9q998CfGHw943MdoH/ALN1Vh/x53DffP8AsN0b6cH2rlqUJwOiFaMjvqKWkrA2CiiigYUUUUAFFFFABRRRQAUlLRQA2vkX41a7/bnxT1PY+6CwK2UPoNg+b/x8tX1vPOttbyXEhwkSmRj7AZ/pXwhd3Ul9dzXcx3SXEjSuT3LHP9a7MJG8mzkxMtEiCg0UGvTPPEooopgFFFFIAopcUYpgApRyCPWkpRSGfZ3ww8QHxN8N9H1CRt04h8ic9/MjOwk/XAP411teJ/s06mZvC+s6Yxz9lvFmUegkXB/VK9srxa0eWbR61OXNBMSiiisjQKKKKACiiigAooooAKKKKACisbxJ4s0Twjp/2zxBqEdpGfuITuklPoqDlvwrw3xV+0fqN0ZLfwhp6WMXQXd4BJKR6hPur+JatIUpz2RlOrGG59FMwRC7kKo5LMcAfjXLar8TvBWisUv/ABJYiRTgxwuZmH4IDXyLrninXfEsxl17Vru+JOdssh2L9EHyj8BWR06cV1xwf8zOaWKf2UfU19+0V4LtXK2sep32OjQ2wUH/AL7ZT+ldN4D+Jei/EFLoaTFc289ptMsNyqhtrZww2kgjjFfGlelfAXWDpXxWs4GbEWpQyWj/AFxvX/x5APxqp4WCi2hQryckmfWNJQOlLXnHeJRRRQAUUUUAFFFFABRRRQAUUUUAFFFFABRRRQAUUUUAFFFFABRRRQAUUUUAFFFFABRRRQAUUUUAFFFFABRRRQAUUUUAFFFFAB2oo7UUALRRRQAlFFFABRRRQAUUUUAFFFFABRRRQAUUUUAFFFFABRRRQAUUUUAFFFFABRRRQAUUUUAFFFFABRRRQAUUUUAFFFFABRRRQAUUUUAFJS0lAHyL8bb03vxc1kbsrb+VAvttjXP6k15/XT/EaUz/ABM8Ru3J/tGYfk2P6VzFe5TVoI8ebvJhRmg0lWQOzSoxRgykqynIYHBB9aZSg0mh3PoP4RfGqS6mg8O+MrgNK2I7TUZDjeegSQ+vo3fvzzXvFfAw5r6j+BvxDk8VaE+i6vMZNV01BiRj808PQMfVh0P4Hua8/EUbe9E7qFW/us9WopaSuE7AooozQAYpay9a8SaL4cgE2varaaehGV8+UKzfRep/AVyv/C7vh55mz/hIlJzjItJ8fnsqlGT2RDnFbs76isvRfEuieI4TLoOq2moKv3hBKGZfqOo/GtSk01uUmnsJRS0lIDB8bTNbeAdfmQ4ZNNuGB9/LNfEQGAB6DH6V9weM7c3XgXXYFGTJp1woHuY2r4fByBXoYPZnFit0FBopK7zhCiilpjFVGZWKqSFGTgdB/k0leqfCbwSPEvhLxjdPHuYWH2a24/5a58zj/vhfzrywgg89e9ZqacmuxbjaKfcSiiirICiiimB7j+zNOR4h1+DPyvaRP+Icj/2avouvnT9mW3ZvEGv3OPlS0ijJ92cn/wBlr6LryMT/ABGenh/4aCkpaSuY6AooooAKKKKACiikoAWvPvij8U7PwBYC2tRHd65cLmC2JysS/wDPSTHb0HU/Tmtn4g+NbbwJ4RuNVlCS3JPlWcDH/WynoPoBkn2HvXxxquqXms6pc6jqlw9zeXLmSaV+rE/yHYDsOK6cPR9o+Z7HNXq8i5VuS63rupeItVl1LWryS8u5T80kh6D0A6AD0HFZ2aKK9RJJWR5wZopKKoQta3hfUW0nxdo+oIcG1voZc+wcZ/TNZIpc7QWHUcilJaDT1PvvucdM8UVW06b7RpdrOessCP8AmoNWa8J7nsoQ0UUUhhRRRQAUUUUAFFFFABRRRQAUUUUAFFFFABRRRQAUUUUAFFFFABRRRQAUUUUAFFFFABRRRQAUUUUAFFFFABRRRQAUUUUAHail7UlAhaKKKBiUUUUAFFFFABRRRQAUUUUAFFFFABRRRQAUUUUAFFFFABRRRQAUUUUAFFFFABRRRQAUUUUAFFFFABRRRQAUUUUAFFFFABRRRQAUUUUCPir4ixmH4meI0br/AGjMfzYn+tc1XoHxw006d8XNWO3CXQiuE99yAH9Qa8+r3KbvBM8iorSaCkoorQgKKXFFACiuj8A+JZPCfjrS9XRisUcwS4A/iib5XH5HP1Arm6DypHtUyjdWGnZ3PvsEMoKnIIyCO4oNYXga/bU/AOhXshy81hCWPqdgB/lW7XhSVmeyndXCvKfjB8WT4NiGi6A6NrcybpJSNws0PQ46Fz2B6Dk9s+m6jfQ6Zpl1f3RxDawvNIf9lQSf0FfDms6vda7rF3qmoOXubyZppCfVjnA9gMAewrfDUlUld7I58RUcVZEV/fXWpX0t5qFzLdXUpzJNM5d2PuTVakzRmvWslsecWLK9udOvI7uwuJbW5iOUmhcq6n2Ir6U+D/xhk8VTL4f8TOg1cKTb3IAUXQA5BA4Dgc8cEZ9K+ZAasWF9caZqFvfWUhiubWVZonHVWU5B/SsqtNTia06jgz7zorN8PavHr/hvTtWhAC3tsk20fwkjJH4HIrSrxmrOx6i1GSxJPC8MgykilWHqDwa+E9Z02TR9dv8ATZxiSzuHhYf7rEf0r7ur5e/aE8LNpHjldahjxaatGGZgOBMoww/EYP5114SVpW7nNiY3jfseS0lLSV6h5wopaSl/hP0piPrD4DaUunfCmzmZcPfSyXDe43bR+i182+OtJ/sPx5rWnBdqQ3b7B/ssdy/oRX194J08aX4D0Syxgw2MKke+wE/qa+b/ANoCw+x/FaeYDAvLSGb6kAof/Qa86jO9V+Z31Y2pLyPMqKSlFegcIUUVPZWdxqGoW9lZxmS4uJFiiQfxMxwB+ZobsgSPpP8AZu0Y2fgW+1WRcNqN4Qhx1SMbR/48Wr2KsjwtoUPhjwrpui2+CllAsZYfxN1ZvxJJrWrxaj5pNnr048sUgNFFFZGgUUYooAKKKKACkpaTO0gnpnmgD5Y+Pvid9a+IL6XG+bTRkECgHgysA0h+ucL/AMBryur2s3z6nrd9fTHc91cyTMT6sxNUa9unHlgkePOXNJsWkopa0IEpaKKAChv9W30oq9o1g2q69p+nxjLXd1FCB/vOBSk7IFufcOjoYtDsI26pbRqfwUVcoVQihV6KMCivCe57SCiiikMKKKKACiiigAooooAKKKKACiiigAooooAKKKKACiiigAooooAKKKKACiiigAooooAKKKKACiiigAooooAKKKKACiiigBaSiigQtFFFAxKKU0lABRRRQAUUUUAFFFFABRRRQAUUUUAFFFFABRRRQAUUUUAFFFFABRRRQAUUUUAFFFFABRRRQAUUUUAFFFFABRRRQAUUUUAFFFFAHgv7Svhxng0rxLAhIjzZ3BA6Anch/PcPxFfP1fc3ibQLXxT4ZvtFvv8AVXcRTdj7jdVYfQgGvifXNFvPD2u3ek6nGY7q0kMbjHX0I9iOa9PCVLx5X0PPxELS5u5QooorsOU3fClxpaastl4jQnSb3EVxIv37c/wzKfVSeR3UsMVb8beBNV8D6t9n1BfOtZeba9jGY517EHscdq5gV9C/CDxTpnjnwo3gPxfHFdS28eLUTHmaEdAD/fTtjnb9DWU5uHvdDSEVP3XufPeKMV6V8TvhDfeCZJNR0wve6IW/1mMvb56B/b/a6euK4PRdKuNc12x0q0UtNeTrCuO2TyfwGT+FWqkXHmREoSTsz7F+GsDW3ww8ORSDDDT4iR9Vz/WunqGztY7GwgtIRiOCNY0HsowP5VNXhy1Z68VZWOW+Jnmf8Kt8SeTnd/Z8vT0xz+ma+LT1r7zvrKHUtNubG6GYbmJopB6qwIP6Gvh/xFoV14a8RX2j36lZ7OUxk4+8v8LD2Iwa78G1qjjxSejMykpTRXecQClHWkFaGh6NeeINds9J02Mvc3kojQAdM9WPsBkn6Um0ldgtWfWvwc8wfCLQPNznyHxn08xsfpXb1R0bS4NE0Oy0u0/1NnAkKe4UYzV2vDlrJs9mKskgrmviB4Pg8ceDbvSJdqzkeZayn/lnKPun6HofY10tFJNp3Q2k1ZnwXf2Nzpmo3FjfwtDc20hjljYYKsDg1BX0/wDGb4THxZbtr/h6If21AmJYRx9rQf8As47evT0r5jkjeGV4pkaORCVZHGCpHUEdjXs0aqqRueVUpuDsMqW2j866hi/56SKn5kCoqtaawTVbNj0W4jJ/76Fay2Zl1Pu2GMRQRxrwEQKPwFfO37TVoE8QaDdgcy20sRP+6wP/ALNX0Wh3KCO4Brwb9p2P/RfDcncSXC/oleRQf71HqVv4bPn4UtFFeueWKBmvcP2fPAT3WonxhqcRFvbbo7BXH+sk6NJ9FGQPcn0rk/hZ8K7zx3qC3t8sltoUD/vZ+hnI/wCWaf1Pb619W2VnbafYwWdjAkFtAgjiiQYVFHAArir1l8KOyhS+0yxTqaKXNedJncgoryH4h/Hiw8M3kuleGYYtU1CMlZp3b9xC393jlyO4GAPXtXj998bPH97MzDXmtlJ4S2t40A9vu5/M1tDDzmrmEq8Iux9f0V8l6R8ePHemzK1zqUOpRd4ru3Tn/gSgN+te3/Dz4x6N45kWwnj/ALM1gjItnfcs2OvltgZPscH64zRPDzgrjhWjLQ9FpDS0VgbCU1l3KVHUjFOoHWgZ8E3MTQXUsLjDRyMjD3BxUVdj8VtBbw/8TtZtAu2Kab7VDxwUk+bj6EkfhR4E+GeuePLoGzT7LpyNia+mU7B6hR/E3sPxIr3PaRUFJnj8j5uU53RdE1HxBqkWnaPayXV1KcKiDp7k9h7mug8aaBp/g0x6Ak8d9rKgSalcpykDdoE9SOrN9Bxzn2HxPqnhz4HeFDpHhSNJPEd7HjzpMPIgPWWQ9v8AZXpntgGvnKeaSeZ5ZpGkkkYu7uclmJyST6k1lTm6j5uhcoqCt1I6UUlLXSYhXpfwH8PtrXxOtbp03W+lRtdSHHG7G1B9cnP/AAGvNVGTX1r8FvBL+D/BKyX0Rj1PUyJ7hWHMa4+RD9Acn3Y1zV58sbdzejDmlfsei0UUV5LPTCiiikMKKKKACiiigAooooAKKKKACiiigAooooAKKKKACiiigAooooAKKKKACiiigAooooAKKKKACiiigAooooAKKKKACiiigAoo7UUCFooooGFJS0lABRRRQAUUUUAFFFFABRRRQAUUUUAFFFFABRRRQAUUUUAFFFFABRRRQAUUUUAFFFFABRRRQAUUUUAFFFFABRRRQAUUUUAFFFFABXmHxh+Fa+N7AapoyqmuWqYUHgXKD+An19D+Fen0VUJODuiZRUlZnwTdWs9ldy2t5DJBPCxSSKRSrIw6gg9Kir7H8efC3w/49jMt9GbTUlXCX1uAH+jDow+v514H4l+A3jHQ5HfTrZdatR0ktD8+PeM85+ma9SniYTWujPOnQlE80FW9O1C60rUrfUNOna3u7aQSRSr1Vgf88VJeaDq+nyGO/wBLvbZx1WW3Zf5imDSdR+ySXX9n3X2eIZkm8htifVsYFbXi+pjZo+s/hz8RNP8AiLoLJLHFFqUUe29sm5VgeC6g9UP6dD2JNC+EXhzw948fxPpiyRv5TLFZ8eVA7cM69+mRjtk+2PlLRdZ1Dw/q9vqmj3LW15btuSRe/qCO4PQg19b/AA1+INn4/wDD/wBpjCwajb4S9tQfuN2ZfVT2P1HauCtTlT1jszupVI1NJbo7OkoNFcR1CV5v8WPhTD47tFv9MZLbW7dNqO3C3Cf3G9D6Ht/L0iiqjJwd0KUVJWZ8K63oWp+HdRex1uymsrhDgpKuM+4PQj3FZ9feV9YWmp2zW2o2sN1CwwY5kDKfwNfHfxK8HP4J8cXemKGNo/7+zc/xRMeB9Ryp+lepRr+00e551ajyK6Ob06wn1TU7bT7NVa4upVhiVmCgsxwBk8Dmvqf4UfCiHwHbvf6m8d1rdwmxnTlLdO6Ke5Pc/h9flJGaN1eNirqQysDgqR0Ir7M+G3iyPxn4GsdV3A3IXybtR/DMoAb8+GHs1Z4lytpsXhlFvXc6uiiivNO8KKKKBiA15v8AEr4OaX4536hp7pputY5nC/u5/aQDv/tDn616RRVRlKDuiZRUlZnxH4p8Fa94MvBb+ILB7feSI5h80cuP7rDg/TrWECV5XqORX0L+03egab4dsc8yTTzkegVVUf8AoRr57HWvXpTdSF2eXUiozsj7j8LakmseEtJ1GM5F1ZxScepUZH55ryD9pxc6X4cP/Tef/wBBSur+Ad5Ld/Ca0SbkWtzPBGT/AHd24f8AoRrste8KaH4na0Ov6bFfizZmhWbJVS2ATtzg9B1zXmJ+yq37He06lOy6nxVpOi6nrt4LTRrC4vp2P3IIy2Pr6D3Ne3+A/wBngh47/wAdyggfMum275z/ANdHH8l/OvdLHTrLS7cW+m2cFnCOkcEQRfyFWcVpUxM56LREQw8Y6vUitrWCztYrWzgjgt4VCRxRKFVFHQADpUuKWkrmudIV5p8cPG83hPwYLTTZTFqOrO0EUinDRRgZkce+CFH+9ntXpVfMv7R15JL4/sbVifLt9OVlHu7sSf8Ax0flWtCHPUSZlWlywbR5CfakpKK9mx5Q4VJBPLbXEc9vI0U0TB45EbDKwOQQR0Oahp1DGfYvwp8at448EQ3t0V/tC2b7PeADGXA4fH+0MH65rtq+dv2Z7511vXbDP7uS2jmx/tK5X+TV9EV41eKjNo9SjLmgmLSUtR3FxBZ2stzdzRwQQqXklkYKqKOpJPQVganJ+LvhjoPjbXtM1TWllZrBWUxRnC3Ck5CueuAc9MdTXOfEX4q6R8P9P/sbw6lvPq6Jsjt4gPJsxjgvjjI7J+eB14j4kfHu4v2m0nwO721rykmpYIkl9fLB+6P9rr9K8RZizMzsSSckk5JNd9KhKSXPscVStFNqBPqWo3eq6hPfajcSXN1cOXlmkOWdjVSnzRvBIY51aJx1VwVI/A0xcM2FIYnoAcmvQVktDk3DFH1rrPDvwx8X+KJF/s3RLhIW/wCXm6XyYwPXLdfwzXuvgH4DaR4ali1DxHImsaihDJGV/wBHhPqFP3yPU8e1Y1K8ILuzSFKUnocj8FfhJJdXNv4q8UWxS2jIksLSVcGVu0rD+6OwPXr0xn6HoxS15k6jm7s9GFNQVkFFFFZGgUUUUAFFFFABRRRQAUUUUAFFFFABRRRQAUUUUAFFFFABRRRQAUUUUAFFFFABRRRQAUUUUAFFFFABRRRQAUUUUAFFFFABRRRQAUUUUALRRRQAUlFFABRRRQAUUUUAFFFFABRRRQAUUUUAFFFFABRRRQAUUUUAFFFFABRRRQAUUUUAFFFFABRRRQAUUUUAFFLRQIKSlooASilooGJRRRQAUUUUAFJS0UAG4nqSar3lpBqFjPZ3sYmtriNopY26MrDBH5GrFJQB8WePPCc3grxne6NIWeKMiS2lI/1kTcqfr2PuDUfgrxZeeCvFVrrNiSwjOy4hzgTRE/Mh/mPQgGvff2gPBv8AbfhJNfso83mkZMmBy8BPzf8AfJ+b6bq+Y8169Oaqw1PKqRdKpofdmlana61pNrqWnSia1uollicd1Iz+B9R61brwP9nbxr/x8eD7+XpuuNP3H8ZIx/6EB/vV75XmVYckrHo05qcbhRRRWZoFeYfHbwb/AMJJ4HbU7SPdf6RmZdo5eL+Nfw+9+Br0+kZVdGSRQysMMpHBHpVQk4yTREoqSsz4IFer/ADxh/YXjNtEu5NtlrACpk8JOPun8RlfyrlPiZ4SbwZ48vtNRSLSRvPtCe8Tcgfgcr+FctDLJBMk0DmOWNg6Op5VgcgivXklUgeYm6cz72pMVzfw+8Vx+M/BNhq6kec6eXdKP4Jl4cfieR7EV0teRJWdj1E01dCUUGipGIaSnUgGSB6nFAz5f/aI1T7Z8SI7IN8unWMcZHoz/Of0K15QOtdN8RtV/tv4ka/fhtyyXroh9UT5F/RRXOQwSXNxHbwjdJM6xoB3Zjgfzr2aa5aaPIm+aTPrn4K6cdO+EWih1w9wkly3vvdiP/Hdtd5VTStPj0nRrLToeI7O3jgXHoqhf6VbryZu8mz1IK0UhKWiioLCkpaKAEr54/aV0KSPVtI15FJhlhNnIwHAZSWXP1DN+VfQ9Y/ivwxY+MPDN1oupgiKdflkUfNE4+649wa0pT9nNSM6keeLR8O4pK6Hxj4M1fwTrb6drMDKMkw3Cj93Ov8AeU/06iufr2lJNXR5Li1owpaQV0vgrwRqvjnXI7DSoiIgQbi6Kny4E7kn19B1NEpKKuxJNuyPXv2adDkjtdY16VSI5ilpCSPvbfmc/mVFe8Vl6Foth4Y8PWulacBFZ2UW0MxAz3LMfUnJJ96868efHfR/DyyWPhjy9Y1IfKZQf9HhPuw++fZePevGlzVptpHqx5aMEpHfeKvF+jeDNIbUdeuxCnIihXmWdv7qL3Pv0Hcivl74h/FbWPH0xgfNhpKNmOxjfIYjo0h/iP6DsO9ctr2v6p4l1aTUtdvZLy7k43yHhR2VR0UD0FZtd9HDqGr3OKrWc9FsJjJr1/4LfCtvEN5D4j8QW5GkW77reGQf8fcinrjugPX1Ix6034UfBqbxMYdc8URSW+jg7obc5V7z39Qnv1Pb1r6Whgit4I4LeJIYYlCRxxqFVFAwAAOgFRWr6csS6NG/vSI7jT7G8/4/LG2uP+u0Kv8AzFJb6Xp1m26z0+0t29YYEQ/oKs0tee2d1kB5680UUUhhRRRQMKKKKACiiigAooooEFFLRQMSilooASilooEJRS0lABRRRQMKKKKACiiigAooooAKKKKACiiigAooooAKKKKACiiigAooooAKKKKACiiigAooooELRRRQMSiiigAooooAKKKKACiiigAooooAKKKKACiiigAooooAKKKKACiiigAooooAKKKKACiiq99qFnplo11qV3BZ26felnkCKPxNAixRmvMPEHx+8G6OGTTZZ9ZnGRttUKx593bAx7jNeZ67+0b4ov8AcmiWlnpMZ6MV8+Qfi3y/+O1tGhUnsjGVenHqfTYyegzWdqXiLRdHH/E31ewsfa4uUjP5E18a6z478U6+W/tfxBf3Ct1i84pH/wB8Lhf0rn8c57+tdEcG+rMXiuyPsO7+Mvw/s3KyeJreRh2ghll/VEIrKn/aC8BQn5Lq+uPeKycf+hYr5RyaK1+pw6sz+szPqYftF+BycFNWHubQf/FVct/j98P5v9ZqV1B/11spf/ZQa+TaKPqkAWImfZ2nfFTwNqhAtPE9gGPRZ3MJP4OBXVwTRXUIltpUmjYZDxsGB/EV8DYzVzTNW1HRbjz9Hv7mxlznfbStGT9cdazeE7MtYl9UfeFFfLfhz9ofxZpLLHraW+t246mVRFLj/fUY/NTXtXg34v8AhXxkyW8F0dP1Bv8AlzuyFZj/ALLdG/Dn2rmnRnDodEa0JHc4oxS0ViaiUUtJQMKSlooAjmhjuIJILhFkilUo6MOGUjBB/CvjL4heEpPBXja+0lgxtw3m2jn+OFuV/EdD7ivtCvLfjx4K/wCEj8GHWLKPN/pAMnyjmSH+Nfw+9+Brpw9TklZ7M5sRDmjfsfMul6ndaNq1rqWnSmK6tJVlicdmBz+XavtXwn4jtfFnhWw1qywI7qIF0zny3HDIfo2RXw/XqPwh+Ktt4Cjv7DW0uJtNn/fRLAoZkl4B4JAwR79QK68RTcldbnNQqKDs9j6oorxtP2lvDBl2vo+rKn94LEf0312Xhr4r+DvFU6W2naskV23S2ulMTsfQZ4Y/QmvPdKaV2juVSD2Z2NFL9aKzLPKvj74P/t7wT/bFpHm90cmQ4HLwn74/DhvwNfLYr72lhjuIJIJ0EkUilHRujKRgj8q+LPH3hWTwb421DR3DGGN/MtnP8cTcqfy4PuDXoYWd1ys4cTCz5j0D9nbxZ/Znii58OXUmLfVF8y3BPAnQdP8AgS5/75FfSwr4OsL640zUba/snMdzayrNEw7MpyP5V9teFvEFv4p8L6frVmR5d5CHKg/cfoy/gwIqMTCz5jTDzvHlZr0lFFcR1BWJ4t8S2fhHwveaxfyqiwRnykJ5llI+VB6kn9MntS+K/Fuk+C9Dk1TXLjy4xxFEvMk79kQdz+g6nAr5L8eeP9V8f619s1I+TbRZFpZI2UgX+rHu3f2GBW9Gi6j8jGrVUFbqcs7s7F3O52OWPqTya6/4UaSNZ+KugWzLuSO5+0vx2iBf+agVx/U17f8As2+HJZtc1LxFNGRb28H2SF2HDSOQWx9FUZ/3q9KrLlgzz6ceaaR9E0UppK8Y9YKKKKBhRRRQAlApaSgCpqukadrunvY6xZQ3ttJ1imTcM+o9D7ivi/x3DpNv491i38OQiHTILkwwIGLD5AFYgnkgsCa+t/iD4mXwh4E1PVwQJoovLtwf4pn+VPyJz+FfFbZJyxyepJ7mu/CJ6s4cTJXSLOlGyGsWR1XcbEXCG5CDLGPcNwHvjNe7XX7QWhaLpq2Pgvw2wjRcJ5+2GNffauSfzFeAClzXVOlGbvI541JQVonWeKviT4n8Y7o9X1JltSciztx5cQ+oHLf8CJrlfpSxRSTzJDBG8srnCRxqWZj6ADrXqng34B+IdeKXPiEnQ7E4O2Rd1w49k/h+rflQ5U6S7CSnUfc8ysNOvNVv4rLTLWW7upjtjhhQszfh/WvoL4cfAW30xotV8cLHd3Yw0WnKd0UR9ZD/ABn2+79a9L8J+B9A8FWP2fQbFYnYYluZDuml/wB5v6DA9q6GuGriJT0WiOynh1HWQgAAAAAAGAB2paKK5bnUFFFFIYUUUUAFFFFABRRRQAUUVheJPGnh7wjCJPEGqwWjEZWEndK/0RcsfrjFGr0Qm0ldm7RXg/iD9peFGeLwvoTS9luL+TaPr5a5P/jwrz7U/jj4+1Jm26ytlG3/ACztLZEx/wACILfrXRHDVJGEsRBH10AT0BNG1/7jflXw3e+LfEeok/b/ABBqlxnqJL2Qj8s4rLeeZzmSaRj6s5P9a1WDl3MvrS7H3xtb+6fyowR1B/KvgdLieM5jnlQ+qyEfyNaVp4q8RWBBstf1SDH/ADzvZB+m6h4SXcf1pdj7mor490740eP9NCqniGS4QfwXUMcufxK5/Wux0n9pjXLfC61odjfD+9byNA367h/Ks5Yaoi44iDPpGivK9D/aF8G6oVTUvtejyHjNxF5iZ/3kz+oFej6XrGm65ai50bULa+hP8dvKHA/LpWEoSjujaM4y2ZdpKWipKEooooGFFFFABRRRQAUUUUAFFFFABRRRQAUUUUAFFFFABRRRQAUUUUAFFFFAB2oo7UUALRRRQAlFBooAKKKKACiiigAooooAKKKKACiiigAooooAKKKKACiiigAooooAKKKKACiikNAHCfF3xte+B/BYvNJWP7ddXK2sMki7hFlWYvjuQF4B4yfwr5S1rXdU8Q37XuuX89/cN/HO+7b7KOij2AAr6Q/aLs2uPhnDcKM/ZdQikb2BVk/mwr5er0sLGPJfqefiW+awZopKK7TkDNGaSimAtFJRQAUtJRSAXNFJRQMWlptLSsB6r8P/AI56z4XaKx8QGTV9KGFBdszwD/ZY/eHs34EV9LaFr+meJdJi1PRLuO7tJRw6HkH0I6gj0NfCldV4C8fat4C1oXmmv5trIQLqzc/JOv8ARh2b+Y4rkq4dS1W51UqzWkj7SorI8MeJ9M8XaDBq2jTebbyjDKeGibujDsR/9ccVr15rTTszvTuJRRRSGJVHW9W0/Q9Du9R1qVIrG3jJmZxkEHjbjuTnAHfNXq+ef2j/ABU8upaf4Yt5CIoEF5dKD9524jB+gyf+BCtKcOeSiZ1JckbnjGrTWk+s3sumQvBZyTu1vE5yyRliVU+4GKp5pCeaK9paI8li0vWm0UWA9j+FnxrvdDurfRvFlw93pLkRxXUhzJa+mT1ZPryO3AxX0ujrJGrxsGVgCrKcgg9xXwOD619Qfs/eLZdc8Gy6PeyF7nR2VEZjyYG+5+RBH0xXBiaSS5kduHqt+6z1qvHf2hvCH9q+FofEVombnSztmwOWgY/+ytg/QmvYahvbODUdPuLK8jElvcRtFKh/iVhgj9a46c3CSkjpnHmi0fBle8fs3eLNk2oeFLqT5XzeWYY9+BIo/DDfga8h8YeHJ/CXi3UNFuck2spEbkffjPKN+IIqLwtrs3hnxVputW2d9nOsjKP4k6Mv4qSK9apFVKeh5sJOnPU+5M1zHjrx9pHgHRTeao/m3MgItbJG/eTt/RfVjwPc4FYnjz4v6H4P0mF7Nl1LUbyBZrW2RvlCMMq8h7DB6dT+o+W/EPiDUvE+tz6rrVy1xdzHljwEXsqjso7CvPo4dzd5bHbVrKOkdy34u8X6t41119U1ubfJ92GFOI4E/uoPT36nvWF1or1r4UfBqfxS0Wt+Jo5LbRQd0UJyr3n+Ce/U9vWvQlKNOJwqMpyM34W/CW88dXC6hqXmWehRN80wGHuCOqx57erdvc19S6XplloulwadpVtHa2luuyKKMYAH9T3JPJNS21tBaWsVtaQpBBCoSOKNQqoo6AAdBUwrzatVzep6NOkoIWkNFFYGwUUUUAFFFFABRRUVxPFa20lxcuI4YkLyOeiqBkn8hQB8+/tIeJfP1TTfDUEny2q/bLpR/fYYjB+i5P8AwKvDiM1reKNfn8T+KtS1q5zvvbhpAD/CnRV/BQB+FULGzn1DULeytE33FzKsMS+rMQB+pr2acVTp2PIqS553O18FfB7xL450kapp7WdpYGRo1mupGG8rwdqqpJGeM8V6joP7Nej2xWTxHrNzfuOTDaqIY/pk5Y/pXrHh7Rbfw54c0/RrMDybGBYgQPvED5m+pOT+NaQrgqV5vZnbChBbmN4f8HeHfCsW3w/o9rZtjBlVN0jfVzlj+dbVFNkdYo2kkdURRlnYgAD3Jrlbbd2dCSS0HUVyN/8AFPwNpkpiu/FFhvBwRCxmx/3wDV7RvHnhXxDKsWja/Y3UzdIRLtkP/AGwf0quWVr2Fzxva50FFLSYqSgooooGFFFFABRRRQAVR1fWdP0DS5dR1i7is7SEZeWQ8fQDqT6Acms7xj4y0rwRoL6nrEnqsFuh/eXD9lUfzPQCvkzxx4+1jx5q32vVpNkEZP2azjJ8uAe3q3qx5PsMCtqVGVR+RhVqqnp1PQPHX7Qepam0tj4NRtMs8lTeSAGeQeqjog/M/SvG7i4muriSe5mkmmkbc8krFmc+pJ5NRk5pK9SnSjBaHnznKTuwozSUVqZi5opKKYC0UlFIBaKSigY7FT2V7dabdLc6fczWtwv3ZYJCjD8RVfNLmpaTC5614T/aC8S6PJHB4hVNbsxgFnAjnUezAYb8Rz619H+H9esfE2gWmsaU7Pa3Sbk3DBHOCCPUEEH6V8LjrX178E4TB8HtD3cGRZZPwaVyK4cTSjFcyO3D1JN8rO9pKWkrgO0KKKKACiiigAooooAKKKKACiiigAooooAKKKKACiiigAooooAKKKKADtRR2ooAWiiigBDRRRQAUUUUAFFFFABRRRQAUUUUAFFFFABRRRQAUUUUAFFFFABRRRQAUUUUAFFFFAHL/EnRjr3w112wRd0jWrSRj/aTDj9Vr4t68198kBgQwyDwQe4r4m8daA3hjx1q2klSEguGaHPeNvmQ/kRXdg5bxOLFR2kc/SUtJXonCBpKWkpgFFFFABRRRQAUUUUAFFFFABThTaWkB3Pwt+IVx4C8SrJKWk0m7IS9gHOB2kX/AGl/UZHpj6+triG7tYrm2kWWGZBJHIhyHUjIIP0r4JFfRn7O/jZr7TZ/Cl/LumslM1kWPJiJ+ZP+Ak5HsfauHE0rrmR24ep9lnt9JS0V5p3DTXx/8Zpnm+L2veZ1SSNB9BEoFfYNfKPx90p9P+Kt1clSI9Qt4p0PYkLsb9V/WuvCNc5zYn4DzKkpaSvWPNCiiloAK9f/AGcLt4viHe2wPyXGmuWHuroR/M15BXtv7NWjyTeJtW1llPk21qLYNjq7sG/QJ+tYV7KmzWjf2iPo7tRRRXjHqnh/7RvhD7Vpdp4qtE/e2hFvd4HWMn5GP0Y4/wCBCvnbFfdmsaVba7ol5pV+u63vIWikGOgI6/Udfwr4k1/Rbnw74hvtIvhiezmaJj/ex0I9iMH8a9LC1OaPK+hwYmFnzdzP3EnLEscAZJzwBgClVGd1VFLMxwFAySabX0P+z34L0iXQW8V3kIutR+0vDb+YMrbquPmA/vEnr2GMd66KlRU43MKcHOVir8LvgVgQ6346g54e30tvzDS//Efn6V70qhVCqoVVGFUDAA9KXGetLXlTm5O7PThBQVkGKKKKyLCiiigYUUVT1PVtO0WzN3q99b2NuOstxKEX9etG4ti5RivO7747eALFyq6vJdsDg/ZrSRh+ZUA/nRYfHfwDfSBG1Wa0YnA+02sij8wCBV+zn2I9pDueiVw3xnvJrH4R63JbFg8iRwkr2V5VVv0JH411+napYaxaLdaVeQXlu3SSCQOv5inajptpq+mXGn6lAtxa3CGOWJ+jKaUXyyTY5e9FpHwg3XivTfgJ4e/tr4kx30qbrfSIWuWJHHmH5Yx+pb/gNdbrH7M8j6k76F4gijs2bKx3cJLxj03Kfm+vFeofDr4f2Pw98PvY20xu7q4fzLq6ZNpkYcAAc4UDoM9ye9ehVxEHC0ThpUJKackdWBTqKSvObPQMLxl4u07wT4bn1fVCWVPkhgU4aeQ/dRf6nsATXyb40+Imv+Ob5pNYuilqGzFYwkrDEO3H8R/2jk/Suq+P3ieXWPiA+ko/+iaOgiRQeDKyhnb69F/CvKs16OHopR5nuefXqOUrLYX6UuM9abmlzXZY5j1b4b/GvVfDF1Dp/iOeXUdGYhN0h3S2w9Vbqyj+6fw9D9P2t1De2cV1aSpNBMgkjkQ5V1IyCD6V8Fg19H/s5+Kpb/Qr7w5dyb204ia2yeRE5wV+gb/0KuHEUlbmR24eq78rPa6Q0tFeedolFFFABWZ4i1+w8MaBd6xq0nl2tqm5sfec9AqjuScAVpV8x/Hzxy2u+J/+EesZc6fpL4lKniW4x8x/4DkqPfdWlKm6krGdSfJG5wnjXxnqXjjxFLquqtt/gt7dTlLePsq/1Pc1zmaU0lezGKirI8ptt3YUlFFUSFFFFMApaSloAMUUUUAJRRRQAUopKWkAZwCfQV9weCtM/sbwLomnMMNb2MKOP9raCf1Jr448IaO2v+M9H0pV3C6vI0cf7G7Lf+Og19xcDp07VwYuWyO3DLdhRRRXnncFFFFABRRRQAUUUUAFFFFABRRRQAUUUUAFFFFABRRRQAUUUUAFFFFAB2oo7UUALRRRQAlFBooAKKKKACiiigAooooAKKKKACiiigAooooAKKKKACiiigAooooAKKKKACiiigArwH9pLwsQ+n+KbZOCPsd0QPqY2P6j8q9+rI8U+H7fxV4V1DRbvAS8hKBj/A3VW/AgGtKU3CSZnUjzxaPhykq1qWn3Ok6rdadfRmO5tZWilUjowOKq17Sd1c8lqwUlLRVCEoooNABRRW74Q0bTPEGvxaXq+pnShcjZBdFAyLLn5VcZGAemexxUuSSuxpN6IwqK9I8R/AvxloO+S2tE1a3X/lpZNlse6Hn8s155cW09pcNBdQyQTKcNHKhVh+B5pRnGWzHKEo7ojpKWirJEooooEOrd8F+IpPCvjPS9ZiJAtZwZQP4ozw4/75JrBpcZBHrxUyV1YqLs7n3zG6SRq8bBkcBlYdweQadXK/DLVG1j4Y+H7yRtzmzWNz6lMof/AEGuqrwpKzaPYTuriV5v8avAUnjPwiLnTY9+q6ZmWFQOZU/iT68ZHuPevSKAcURk4u6CUVJWZ8CspVirAqQcEEYIPpSGvqD4m/A+08V3MuseG5I7DVZPmliYYhuT6/7Le/Q9/Wvn3XfA/iXw1cNFrOi3lvtOPM8otG30dcg/nXsU60Jrc8ydKUHqYIpaTpVvS7Majq9nYtPHbC6nSHzpPux7iBuPsM1s3ZXMbXYulaXeazqtvp2mW73N3cuEiiQck/0HcntX2P8AD3wdD4G8H22kRsslxky3Uy/8tJW6n6DAA9hWf8PPhdo/w/t2kt2N9qkq7Zb2RQCB/dQfwr+p7124FeXXre00Wx6NGjyK73FooorkOkK+c/2kPDQtdc0/xFAmEvU+zzkD/log+Un6rx/wGvoyuG+MWg/8JB8LtUjRN01mou4fqnJ/8d3CtqM+SaZlWjzQaPj+vo/9mjUxN4U1fSyfntb0Tgf7MiAfzQ184Zr1b9nfWv7O+JUmnyNiPVLRowD3dPnX9A1ejXjeBw0JWmj6kpKWkryD0wooooGFFFct8RPF6eCPBV5q4CPcjENpG/R5m4X6gcsfZaEnJ2Qm0ldnNfFX4u2/geM6Xo4ju9dkXJVuUtFI4Z/Vj2X8TxjPzHreu6n4i1J7/W76a+un6yTNnA9AOij2GBVa8vLi/vJ7u9mee5nkMksshyzsTkk1Xr16VGNNeZ5dSpKb1AmikorczNPQvEOreGtQW+0G/msrgdWjPDezKeGHsRX018LfjFa+NgulawsdlrirlVU4jugByUz0b1X8R3x8pipra5ms7qK5tJWhnhcPHIhwyMDkEH1rGpRU0a06rgz72orj/hj41Xxz4Kt9Rk2rfQnyL1F4xKAPmx6MCD+OO1dhXkyTi7M9KLTV0JRRRUlHxR8QfM/4WN4i83O/+0p85/3zj9K5uvUfj54bk0b4jS6isZFpq0azowHHmABXH1yAfxry417dJpwTR5FRNSaEooorQzFr1r9nN3X4mTqn3X0yXf8AQPHj9a8mFfQn7NvheWC11HxPcxlVuB9ktSR95Qcuw9shR+BrCvJRps2opuaPdxRRRXjnqCUUUhoGc9478SDwn4H1TWRjzbeEiAHvKx2p/wCPEH8K+KpHd3Z5GLuxLMxPJJ6mvof9pXWGh0LRtGjbAurl7iQDusagD9XP5V86k5r08JC0ObuediJXlYSg0UldhyhRRS0AJRS0UwCkqe0srm/uVt7KCW4nc/LHEhZj+AqIqVYhuoODSASg0UUAJRRRTAKUUlKKAPXP2ddBOo+Pp9Xdcw6VbHaf+mknyj/x3fX0/XmvwK8M/wDCP/DW3uZk23WrP9rkyOQpGIx/3yAf+BV6TXkV5c0mz1KMeWKQtFFFcxuFFFFABRRRQAUUUUAFFFFABRRRQAUUUUAFFFFABRRRQAUUUUAFFFFAB2oo7UUALRRRQAhopTSUAFFFFABRRRQAUUUUAFFFFABRRRQAUUUUAFFFFABRRRQAUUUUAFFFFABRRRQAUUUUAfPn7RHgYxXMfjDT4/3cgWC/Cjo3RJPx+6fwrwg194anptprGlXOnajEJrW6jMUqHupr4y8eeDrvwP4sudIutzxA77WcjiaI9D9ex9xXpYardcrODEU7PmRzdJSmkrtOMKKKKYBS9abS0mhn0d8Fvi2NUhg8L+JrnF/GAlldSt/x8KOkbH++Ox/i+vX1jW/DWi+JLU2+vaZbX0fbzYwSv0bqPwr4bBIYFSQwOQR1Br334XfHVSkOieO59rDCQao3RuwEvv8A7f5+tefWotPmidtKqmuWRc8Ufs3addb5/CWpSWUnUWt3mSP6B/vD8c14z4n+H3ifwe5/tzS5YoM4FzH+8iP/AAIdPxxX2nG6yRrJE6vG4DKynIYeoNK6rJGySKrowwysMgj6VnDEzjvqaSoQltofA1FfWPiz4F+E/EnmT2ELaLesc+baD92x94+n5Yrw/wAX/BfxX4U8ydbX+1LBOftNmNxA/wBpPvD9RXbTxEJ+RyToSief0o60dCQeCOD7UoPNdBhsfWPwElMnwh09W/5Z3Fwg+nmE/wBa9Irz34GWxtvhDpW4YMzzS/nI2P0FehV4dX42evT+BBRRRWZoJQeRjtS0UAfHnxc8K/8ACJ/Ea/t4k22l2ftdtxgBHJJUfRsj8BXE/Tg9q+nP2h/C/wDavgqHXLdM3GkyfvCByYXIB/Jtp/OvmOvYoz54HlVock2fZ3w08Sr4t+Hul6mW3T+UILn1EqfK2frgH8a6uvnX9mzxN9m1nUvDU74ju0+12wJ/5aLw4H1XB/4DX0XXm1ockrHoU588UxKKKKxNApksSTwvDMoaORSjqe4PBH5U+kpgfDnijRZPD3ivU9IlBzZ3LxAnuuflP4jBpPDOsP4f8VaXq8RINldJKcd1B+YfiMivS/2jNCFh46tdWjXEep2o3n1kj+U/+OlK8hxkYNexCSnTTPJkuSdj73ikSaJZYiGjkUMjDuCMg/lTq4b4O+IP+Eh+F+lyu+6ezU2c31j4H5rtNdzXkTVpNHqxfMriUUUVJQhr55/aX1dn1PQ9GRiEiiku5F7EsQi/kFb86+hq+YP2jo3X4kWrN91tNi2/g75rowyTqIwxDtTPJKSiivXPMCjNFGKBBSikooGez/s3ay9t4y1HSC37m+s/OC/9NI2H/srNX0rXyh8AI3f4uWZTolpcM/024/mRX1fXlYpJTPRw7vAKKKK5DpOc8c+C7Dx14Zl0rUD5b5329woy0Eg6MPUdiO4r5H8XeC9b8Faq1lrlq0YJPlXCjMU49Vb+nUdxX23Va/0+z1Sze01O0gvLZ/vQzxh1P4HiuijXdPToYVaKnr1Pg2ivZvj18PNO8NPp+teHrGOzsrgm3uIoRhFkHzK2O2Rkf8BrxqvUhNTjzI86cHGVmegfDP4Val461GK4uY5bTRI2zNdEY8wD+CPPUn16D8gfrLT7G10zT4LHT4FgtbeMRxRIMBVHQV5N+zp4j/tLwTc6HM+ZdJnJjB/55SfMPybd+Yr2HFebXnKUrM9CjCMY3QtIaKK5jcKQ0tIaBnzH+0ddtL8QrK2z8tvpyED0LuxP8hXkNeqftDKR8UyT0bT4CP8Ax4V5ZivZoL92jyar99iUUtS2lpc390ltY28tzcSHCRQoXZvoBWz0M7ENB9+K9a8K/s9+JdZCT6/LHolsedj/ALycj/dBwPxP4V7P4W+D3g/wqUlg04X94nIur7EjA+oX7q/gK5p4qEdtTeFCcvI+a/C/ww8WeLtr6VpUiWzf8vd1+6ix6gnlvwBr2Dwz+zZptrsm8VapLfSDk29oPLj+hb7x/DFe3AYUDsOgrzv4qfFWy8Cae1lYNHc69On7qDqtuD/y0k/ovU/SuR16tR2idHsacFeRyHxY8R6D8O9Afwn4KsbWy1K+j23Utug328JHQt13sPU5A57ivng1PfXtxqF7Nd3s73FzO5kllkOWdickk1XrvpQ5I2OOc+ZhSUUGtTMSloopgFdJ4A8LP4x8cado6g+TJJ5lyw/hiXlz+I4+pFc4K+mv2fPBR0XwvJ4iv4tt7qwHkbhyluOR9Nx+b6bawrT5Ym1KHNI9eiiSGJI4lCRooVVUYCgDAFPooryZM9NBRRRUFBRRRQAUUUUAFFFFABRRRQAUUUUAFFFFABRRRQAUUUUAFFFFABRRRQAdqKO1FAC0UUUABpKWkoAKKKKACiiigAooooAKKKKACiiigAooooAKKKKACiiigAooooAKKKKACiiigAooooAK434m+ALfx/4Xe1G2LUrfMllOR91v7p/2W6H8D2rsqBTjJxd0S0pKzPgy/sLrTNQnsdQge3urdzHLE4wVYVXr6o+MfwoXxlZHWdDjVNct0wUHAu0H8J/2h2P4emPlqaKSCd4Z42iljYq6OuGUjggjsa9ijVVSNzy6lNwdmR0UUVuZBRRRQAU6m0Umhnd+BPi34h8ClLaFxqGlA82Nwxwv+43VfpyPavovwb8V/C/jVEisrwWeoMPmsbohJM/7J6N+B/KvjqjHI9R0rlqYeM9UbwrSjoz75wR1pQ2K+P8Awx8ZPGXhdUhh1EahaJwLe/XzAB7N94fnj2r1vw5+0foN9ti8S6fPpMneWL9/F+gDD8jXHOhOJ1xrwl5Ha+K/hb4T8Yh5NR05YLxh/wAflqfLkz744b8Qa8R8Wfs9eItIkabw3KutWvZABHMv1UnDfh+VfQui+LfD/iJA2h6zZ3mRnZHKN4+qnkfiK2gDURq1KexUqcJ6mX4Z0hdB8LaZpSgD7JaxxNj+8F5/XNalLRWTd3c1SsrCUUYopDCiiigRV1PTrfV9Ju9OvV3W93C0Mg/2WGDXw/rmkXGga/faTeDE1lO0Le+DgH8Rg/jX3VXzb+0b4YNj4otPEUCYh1KMRTEDpKg4/Ncf98muzCztLl7nLiY3jzdjyzw3rk/hrxPp2tWpIksp1lIH8S9GX8VyK+4LO7hv7GC7tXDwXESyxMO6sAQfyNfBmPWvqX9n7xOdb+H50u4fdc6NL5PJ5MLfMh/D5l/AVrioXXMZ4aVnynqlFFIa847goorz/wCLnxGj8CeG/KsnVtbv1KWidfKXo0pHoO3qfoaqMXJ2QpSUVdnlP7RHiq11fxPZ6HZMsn9jh/PlU5Hmvtyg/wB0KM+5I7V46BzSySPLK8krs7uxZmY5LE9Sa0NA0S+8R67aaTpURlurqQIg7KO7H0AGST7V7EIqnCx5MpOcrnvf7NH2j/hHdcDBvs32uMxk9N+z5gPw2/nXttYfhDwzZ+D/AAvaaLp/zJAuZJSMGWQ8s5+p/IYHatuvKqy5pNnp0ouMEmFFFFZGoV4d+0p4de40jSvEMCZFo7W1wR2R+VP03Aj/AIFXuNUtZ0ez1/RLvStTj821u4jHIvse49weR9K0py5JJmdSPPFo+EsYptdR488Dal4E8QyafqCtJbsS1rdBflnT19mHcdq5ivajJSV0eU007MSiilqiRKUUV0XgnwZqXjjxFFpmloQmQ1xcEfJAndifX0Hc1MpKKuxxTbsj139mvwy6Lqnie4QhXH2K2JH3hkNIfzCj8DXvlZ2haLZeHdCs9I0yPy7WzjEcY7n1J9STkn3NaNeNVlzyuetTjyRsFFFFZGgUlLRQBzXxC8NL4t8BappIXM8kXmW59JV+ZfzIx+NfFbKyOVcEMpwQexr756V8ifGfwv8A8Iz8Sr4Qx7LTUP8ATIMDgbvvgfRt34Yruwk9XFnFiY7SG/BnxR/wi/xKsmmk2Wmof6HcZPADfdP4MB+tfX1fA6kqQUO1gcgjsa+z/hv4nXxd4A0zVC2bjy/JuR6Spw358H8aMVD7QYad04s6mkNLSVwnYFFFFAz5t/aU08w+L9J1A4CXNkYgT3aNyT+jivOPD3gPxP4plVdE0e5mQ9Z3XZEP+BtgV9nXuk6dqU0Euo2FtdyWzFoGnhVzET1K5HB4FWtuFCjhR0A6CuuGKcYKKRyyw6lNybPBvC37NkSbJ/GOqmU9TaWJwv0Mh5P4AfWvYfD/AIU0LwtbeR4f0u3sVIwzxr87/wC8x5P4mtiq99f2ml2jXWp3UFnboMtLPIEUfiawnUnPdmsacYbFikd1jjaSV1RFGWZjgKPUmvKPFH7QfhjR1aLQEl1y6HAaMGKFT7uwyf8AgIP1rw7xj8UPE3jYtFql75NiTkWNqNkX492/4ETWlPDznvoZzrwjtqev/Ej4+Wmmxy6V4HkS8vCCsmo4zFCf9jP329/u/Wvna6up726lubuaSe4mcvLLK25nY9SSepqAmivRp0o01ocM6kpu7CkoorYzCiiigApaKv6Jot/4h1q10rSYDPd3T7I0HQepJ7ADkn0pNpK7KSuzpvhZ4Ek8d+MIraVGGmWmJr6QdNueEz6sePpk9q+w4okhiSKJFSNFCqqjAUDgACuc8A+CrLwH4Vg0qzxJMf3l1cY5nlI5b6dgOwArpq8yrU5nc9GlT5UFBpaSuVm4UUUUhhRRRQAUUUUAFFFFABRRRQAUUUUAFFFFABRRRQAUUUUAFFFFABRRRQAdqKKKAFooooADSUGigAooooAKKKKACiiigAooooAKKKKACiiigAooooAKKKKACiiigAooooAKKKKACiiigAooooABXlnxX+Dtt4zSTV9C8u111V+YHhLsDs3o3o34H1HqdFVCbg7oiUVJWZ8G6hp15pOoTWGp20lrdwNtkhlXDKarV9o+OPh1oPj2x8vV4THdxriC9hGJY/bP8S+xr5q8c/CHxJ4KaS4aE6lpini9tlztH+2vVf1HvXqUsRGej0Z59SjKGvQ4KiilrqOcSiloxQISlzRRSGFLSVoaNoWp+IdSSw0WymvLlzwkS5x7k9APc8UnZasZQxhgRwR0PpXQ6V4+8W6JtGmeItQhRekbTl0H/AWyP0rudR/Z08V2ulxXFldWV7c7My2ivsKn0Vjw36V5prGg6t4euza63p1zYy54E8ZUN9D0P4Gs1KnU21KcakNdj0fQ/wBofxhpsijVltNYh/iEkQik/BkAH5qa9e8JfHHwl4m2QXVwdGvm48m8OEY/7Mn3T+OD7V8l0YB61lPDwlsawrzjvqffSkOgZCGVhkMDkGlr4q8LfEPxP4NYDQtUkS3zzazDzIT/AMBPT8MGvZ/C37SWm3bJb+LtNbT3OAbu1JkjJ9Sn3l/DdXHPDTjtqdUMRGW+h7dRVDR9c0vxBZC70PULe/gP8cDhsexHUH2NX65mmtzovcK474q+GR4q+HOpWaJuuYE+023r5ic4H1G4fjXY0U4vldyZJNWZ8DV6T8CPEn9g/E2C1mfbbavGbR89A/WM/wDfQx/wKsf4qeF/+ET+ImpWUabbWZ/tNtxx5b84H0OR+Fclb3EtpdRXNuxSaB1kjYdQwOQfzFezK1SHqeXFuE/Q+9KKyvDOtxeI/C+m6xARtvbdJSB/CxHzD8GyK1C2Byce57V4stHY9Za6mV4n8SWHhLw5d61qr4t7ZMhAfmlc/dRfcnj9e1fGfifxLqHi7xFdazq77ri4bhF+7Eg+6i+wH+Ndl8Z/iH/wmnib7Dp0udF0xysGOk8nRpT7dQvtz3rzavTw9LkjzPc86vU53ZbB9a+o/gh8Ov8AhFdB/tvVodusajGCFYc28JwQnsx4J/Adq84+Bfw5HiPWB4j1iHdpenyfuI3HFxOMH8VXr7nA7Gvpypr1L+6jShT+0wFLQKK89s7UFFFFIYUUlYHjTxjp3gfw3LrGqhnRXWOOGMjfM7HhVyfTJ+gNNauyE3ZXZe8QeHdK8UaTJpuu2aXVq/O1uCp7MpHIPuK+ffGH7Our6fLJc+ELganbZyLaZgkyD0B+636Gva/CnxH8MeM4wNF1FPtOMtaTjy5V/wCAnr9RkV1PIraNSdJ2RlKEKiufDepeE/EOjyFNV0TULUjvLbMAfocYNR6f4a1vVpRHpmj3925OMQ2zt+uOK+6AzDoT+dG4nufzrf63K2xj9WV9z5k8Jfs8a/qkqT+KJl0e0yCYlYSTuPTA4X6kn6V9B+GfC2keEdHXTdAs1toAcu3V5W/vM3Un/IrXxS1zTqzm/eZvClGGwYooorI1CiiigAooooAK8o/aC8Mf2x4DXV4Ezc6RJ5jEDkwtgMPwO0/ga9XqC+soNS064sbxN9vcxNFKvqrDB/nV05OMkyJx5otHwfXuP7NniQQanqnhqd8LcKLy3BP8a8OB9Vwf+A15D4k0Sfw34m1DR7v/AFlnO0Wf7y5+VvxGD+NS+Etfk8MeLtM1qEn/AEO4V3A/iTo6/ipIr1qkeeGh5kJOE0z7fopkE8dzbxz27h4ZUDxsOjKRkH8jUV9qFppllJealdQ2ltGMvNM4RV/E143Wx63mWKgvL210+zkutQuYbW3jGXmmcIqj3Jrxvxj+0Tp1l5lr4NtP7Rn6fbLgFIVPqq/eb8cD614X4k8W654tvPtPiHUprxlPyRscRx/7qDgflmuinhpy1ehzTxEY6LU+i9e/aD8IaW7RaYLrWJF/it49kef958H8QDXHX/7Td48ZGmeGYIX7NcXTSD8gq/zrwymmu2OFprc5HiKjPRNW+OvjvVdyx6nDp0bcbLK3VSP+BNub8jXCahqV9qtybjVL24vZz/y0uJWkb8yaq9+aWt404R2RlKcpbsTNFFJVkhRRS0AJRS4ooASlorY8M+FdY8X6sun6DZvcynl36JEP7zN0A/yKUpKKuxpNuyKGn6fd6rqENjptvJc3U7hI4o1yzGvq34T/AAug8A6YbvUNk+u3SYnlHIgXr5aH+Z7n2Aq18Nvhdpnw/sfNJW91iZcT3hX7o/uJ6L+p79gO6rzatdz22PQpUeXV7i0tJRXK3c6UgoooqRhRRRQAUUUUAFFFFABRRRQAUUUUAFFFFABRRRQAUUUUAFFFFABRRRQAUUUUAFFFFAC0UUUAIaKKKACiiigAooooAKKKKACiiigAooooAKKKKACiiigAooooAKKKKACiiigAooooAKKKKACiiigAooooAKOoweQetFFAHA+Kvgx4P8UvJO1k2m3r8m5sTsyfUp90/lmvKNd/Zt1+zLP4f1O01OPtHMDBJ/Vf1FfStFbQr1IbMylRhLdHxhqPwt8caUx+1+GdQYD+K3j85fzQmsKXQ9WgfbPpV9E3o9s4P8q+7OnSl3N6n863WMl1Rg8LHoz4Vg8Oa5dMBa6LqUxPQR2kjfyFdLpHwd8dayy+VoE9pGesl8RAB+DfN+Qr7F3H1P50lJ4ub2Q1hY9WeEeGf2a4ImSfxdq5nI5NrYDap9jIeT+AFeyaH4d0jw1YCy0HT4LGAdREvLn1ZurH3NadFc8qkp/EzeNOENkJiq99p9nqtm9pqdrDd27jDRTxh1P4GrNFQjTc8e8V/s66BqpefwxdSaNOefJbMsBP0J3L+B/CvFfFXwr8W+EN8upaa01mv/L5afvY8epxyv4gV9l0ZrohiZw31OeeHhLbQ+Be1FfX/i34O+EfFvmTSWX9nXz8/a7H92SfVl+634jPvXiXiz4AeKdB3z6Ns1yzXn9wNkyj3jJ5/wCAk/SuyGIpz30OSVCcTzrS9X1DRL5bzR72eyuV6SQOVP0OOo9jXrvhb9o/V7HZB4rsI9TiHBubfEUw9yPut/47XjE0MttM8NxG8UqHDxyKVZT7g8imCrlTjJaomM5R2Ptbwt8QfDXjKIHQ9SjefGWtZfklT/gJ6/UZFdL9a+CIpHhkWWF2jkQ5V0JBU+oIr0bw98dfGWgwLBPcQarCowovoyzqP99SGP45rjnhX9k6Y4hfaPRf2ltFhl8N6VrigCe3ufsrHuyOpYfkVP5184A11/jr4l694/eFdXeKG0tzuitLZSsat03HJJJxxknjtiuPrsoRlCHLI5qklKV0fR/7OfihLrw5eeG7iUefYyGe3UnkxP8AeA+jf+hVJ8dfiQukaW/hbR7gHULtcXjo3MER/h9mb9B9RXztp+pXuk3iXml3c1ncx52TQuVZc8HkVDLPLczSTXErzTSMXkkkYszsepJPU1l9WTqc7L9u1T5EM+ldJ4E8HXfjjxXb6RZ7kjP7y5nA/wBTECNzfXnAHqRXPRRvLKkcaM7uwVVUZLE8AAV9efCbwCngTwmqXKKdWvgst6/XaccRg+i5/Mk1pWnyqyIpU+eWux1uj6RZaDo1rpelwiG0tYxHEg7Adz6k9Se5NXqKWvMlI9NIKSlpKzKCkpaSgAr5U+OnjQeJ/Gx02zlD6do5aGMqeJJv+Wj/AIEbR9D617v8VfGY8E+Bbq8gcDULn/RrJe/mMOW/4CMt9cetfHRJJ5JJ6knvXbhad3zs48TUsuVCqxR1dGKupyrKcEH1Br0Pwr8bvGHhto4Z7oavZrgGC8+ZgPaT7355rzquj8BeFpPGXjbT9GTcIpn3XDr/AARLy59uOB7kV2zjFr3kckXJP3T7E8M65H4l8MafrUMElvHfQLKIpPvLnt7/AF7itSo7eCG0tYra1iWGCFFjijQYCKBgAD0AFSV48t9D1VtqFFFFSUFFFFABijFKKKBCUUtFACUlLSdaBnzx+0h4X+z6tp/ia3TEd2v2W4IH/LRRlSfquR/wGvDwPWvqD47eJvDQ8DX2g3l/FLq0hSS3tovneN1YHLY4UY3dfWvl89a9XDNyp2Z5ddJTdj1/w78fL7w94BtdFi0xbrUbUGKK6nf92sQ+7lRySOmMgYA5rzvxN4v1zxdei58QajLdsp/dxn5Y4/8AdQcD+dYmaD7mtY0oRd0jOVSclZsXNJjJAHU8ADvXongv4K+J/Fqx3U8X9j6c3IuLtCHcf7EfU/U4Fe/eDfhP4X8FhJrS0+26go5vbsB3B/2R0X8Ofes6mJhDRas0hQlPU8G8GfA7xN4oEd1qCf2Lp7YPm3KHzXH+zH1/E4r3zwh8KfCvg1UlsbEXV8o5vbvDyZ/2ey/gK7P60V586057s7YUYwPPvHfwb8O+NPMuo1/svVW/5e7deHP+2nRvrwfevnrxf8JvFfg55JLuwa8sVPF5ZgumPVh95fxH419jUtVTxE4abinQjLU+A6TNfauu/Dbwf4ldpNX0G1kmbrNEDFJ/30uCfxrjL39nDwdcMWtLvVrPPRVnV1H/AH0uf1rrji4PdHPLDS6Hy9mivo5v2ZNFLfJ4j1AD0MEZqza/s0+GY2Bu9Z1W4Honlx5/8dNV9apkfV5nzTV7SND1TX7sW2i6fc38xONsEZbH1PQfjX1hpXwV8BaQysuiC8kX+O9laX/x0nb+ldraWVrp9uILC1htYV6RwRhFH4CspYz+VGkcM+rPn7wb+znd3DR3fja7+yxdfsNq4aRvZn6L+GfqK930PQNK8N6Ymn6FYw2Vsv8ABEvLH1Y9WPua0cUVxzqSm7yZ1wpxhsJiloorMsKKKKBhRRRQAUUUUAFFFFABRRRQAUUUUAFFFFABRRRQAUUUUAFFFFABRRRQAUUUUAFFFFABRRRQAtFFFACUUUUAFFFFABRRRQAUUUUAFFFFABRRRQAUUUUAFFFFABRRRQAUUUUAFFFFABRRRQAUUUUAFFFFABRRRQAUUUUAFFFFABRRWJ4k8Y+H/CNsJvEWqwWQYZSNiWkf/dRcsfyo1eiE2lqzboryG6/aR8IwzlLew1e5QH/WLFGoP0DOD+groPDnxq8F+I5kt01B9PuZDhYb+Py8n2bJX8M1o6U0r2IVWDdrnfUUAgjI6HkGjFZmgUUUYoAKSlooAKAaKSgDD8SeC/Dvi6Dy/EGlQXTAYWbG2VPo4ww/OvFvGH7OFxbRyXfgu/a7A5+w3ZAfHosnQ/QgfWvoWlBraFWcNmZSpRlufBt7Y3Wm3stnqFvLbXMLbZIZVKsh9CKgr3r9pqwso5NB1BEVb+YyxOw6vGoUjP0LY/GvBK9OlLnjzHnVI8krBSZoorYzDNFFLQB6l8AfDMWu/EE393H5lvpEX2gAjgyk4jz9Pmb6qK+p8V4L+zEyeV4lX/lputifpiT+te+V5eIk+dno0IpQQUUUhrkOgKKKKBhSdenXtS1xXxX8Yf8ACG+Aby8gkC39z/otmO/mN1b/AICuW+oFNRcnZCb5VdngHxu8ZDxV48ltrSUPp2k5toCp4d8/vH/Fhj6KK83pT19frRXtwioRUUePKTk7sAOa+mf2e/Bv9keF5PEd5Fi71UbYMjlIAeP++iM/QLXhHgTwtL4y8aafo0YIilffcOP4Il5c/lwPcivtS2tobS1itraNYoYUEcaKMBVAwAPwrmxE7e6dOHhf3iSloorzWd6CikrA8beLLXwV4Tu9au1EhhASCHODNK3Cp+fJ9ACaSTbsgbSV2ReM/H2heBdPFxrdwfOkB8i0h+aab6DsP9o4FeE6/wDtG+Jr+Vl0C0tNJh7F18+T82G39K8x17XtR8Sa1carrNy1xd3DZdz0A7Ko7KBwBWbmvTp4WMVeWrPOqV5SemiO7/4XV8Q/M3/8JJID6fZYMflsrpvD37R3iWwlRPENna6tB/E6KIJfrkfKfptH1rx7NFbOjTa2M1UmnufbXg/xzofjjTTd6Fc72jx51tINssJPZh/UZB9a6Kvhjw34j1LwrrsGraLOYbmE9P4ZF7ow7qfT+tfZPgzxXZ+M/CtprVgNgmXbLFnJhkH3kP0P5gg159ah7PVbHdSq8+j3N7H5183/ABT+NWp3mp3mheFpmsLGCRoZbuM4lnIOG2n+Fc+nJ9R0r6QHbNfEXjHQb/w34rv9O1OF45FmZkZhxKhJIdT3BFPCxjKT5icRKSirGIzFmLMcsxySeSTSVr+G/Cmt+LtQ+yeH9Pku5B99xxHGPVmPAr6D8C/AHR9C8u+8VumsX4wwgx/o8R+nVz7nj2rtqVoU9OpyQpSnseMeCPhZ4k8cMs1jbi007OGvroFU/wCAjq5+nHuK+hvBXwd8MeDvLuDb/wBqakvP2y7UHYf9hOi/Xk+9d6qKkaoihEUYVVGAB6AUtefUrznvsdsKMYebF69aKKQnCljwo6k9BWBuLRWTN4q8PW0vlXGv6XFIONj3sYP5Fq0bW6t72ES2c8VxGejwuHH5inZi5k+pLRS0mKRQUUUUAFFFFABRRRQAUUUUAFFFFAgooooGFFFFABRRRQAUUUUAFFFFABRRRQAUUUUAFFFFABRRRQAUUUUAFFFFABRRRQAUUUUAFFFFAC0UUUAJRRRQAUUUUAFFFFABRRRQAUUUUAFFFFABRRRQAUUUUAFFFFABRRRQAUUUUAFFFFABRRRQAYpaQ5AyenrVR9X02OTZJqNmr/3WuEB/LNOzFdIt4oojdZUDRMrqejKcilpAJRS0lAwoopDQBxXxS8fp4A8K/aYFSXU7tjDZRP03YyzsP7qj8yQO9fI2qape6zqU+oardS3d5O26WaVssx/oPQDgdq9J/aE1aW++JZsWY+Vp1rHGi9gXG9j+OR+VeU16uHpqMObqzza83KVhaX2NNpc10nOex/Bv4tz6DfweHvEl00ukTER288rZNmx4Ayf+Wfr/AHevAzX0yAfQ18CZq9LrerTribVb6QYxh7lz/WuOrhud3jodNPEOCs9T7qkkWJcysqD1YgVm3XifQLLP2zXdMt8dfNvY1/m1fDTs0pzKxc+rHP8AOm7QOgA/CoWDfVlvFPoj7RuPid4Htc+b4r0s/wDXO4En/oOazJvjZ8PYTg+Ikc/9M7Sdv/adfIVFUsHHuS8VPsfVV1+0J4Ft8+VNqF1/1xsyP/QytZU/7Svhlf8Aj30fV5f99Yk/9nNfNVFWsJAn6zUPoOf9py0Gfs3ha4f08y+VP5Iazrr9pvUGQix8MW0LdjNeNIB+AVf514bmlzVLDU0T7ep3Nzxd4x1jxrrH9pa7OryKuyKONdscS5ztUf5JrBpSaTNdEYpKyMm29woooqiQpaSloA9X/Z41xdN+I0mnTNtj1W1aJc95EO9f0DD8a+pO1fCGk6ncaNrFpqdk224s5lnjP+0pzX29oGtWviLw/ZavYMGt7yFZV5+6T1U+4OR+FebioWfMehhpXjymjSGlpDXAdYUUUUwEr5U+PHi8eIvHjadayB7HRgbdCp4eU48xvzAX/gNfQnxF8Vr4M8C6hqylftKr5Vqp/imfhfy5b6LXxa7M7lnYszHLMepPc124Snd87OPEzsuVCUopBWp4c0S48R+JdP0e0z5t5OsWQPujPzN+Ayfwr0W7K5wpXdj3/wDZ18IjTvDdx4mu4sXOpExWxI5WBTyf+BMD+CivaKq6bp9vpWmW2n2MYjtrWJYYkHZVGB/KrVeRUld3PVhFRVgooorA0Er51/aT115tc0nQo2IitoTdygHgu52rn6Kp/wC+q+ijXyj8fg4+LV3v6G0t9v02f45rowqvUMMQ7UzzM0lLSV655gUUUUAKK9v/AGbdfkg17VNAkYmG5g+1RKT0dCFbH1Vh/wB814fXpXwE3/8AC3rDZ0+z3G/6eWf64rGsr02a0XaaPrIdKoapoela3EsWs6ZaX8aHKrcwrIFPtkcVfHAorxj1SvY2Fnplqttp1pBaQL0igjCKPwFWKKKAEoornvHXiqPwZ4Mv9adVeSBAsEbdJJWOEH0zyfYGizbsgbSV2c78TfizY+AofsVmkd9rcq7kty3yQKejyY/Rep9hzXzR4m8beIfF1w0uvarPcrnKwA7Ik+iDgfz96ydQv7rU9QuL7UJ3uLq5kMs0rnJdj1NVc161KhGC8zzKlWU35BgdgPyq1p2pX2kXS3OlXk9lOvSW3kKN+YqrmjNbuKMrnvHw8/aBuUuItN8eFZoXIVNTRArIf+mijgj/AGh07g9a+gYpUnhSWF1kjdQyOpyGB6EH0r4HHvX0N+zx45mu4Z/COpSlzbRmewZjzsB+eP8ADII9s9gK4a9BJc0TsoVm3yyPdaKKK4DtEooooAKMUUtAhMUUtFABRRRQAUlLRQAlFFFAwooooAKKKKACiiigAooooAKKKKACiiigAooooAKKKKACiiigAooooAKKKKACijtRQAtFFFACGiiigAooooAKKKKACiiigAooooAKKKKACiiigAooooAKKKKACiiigAooooAKKSgkAZJAHqT0oAiu7u3sLSW6vZ47e3hUvJLKwVUUdSSeleC+Of2iJTLLY+BYVSNfl/tK5TJb3SM9B7t+Vcr8YfihL4x1WTSdJmZNCtJMLtOPtbj/AJaN/s5+6Px69PLya76OGVuaZwVcQ27RNPWfEmteIZzNreq3d85OcTTEqPovQfgKySif3F/75p2aSu5RS2OW7LWn6lfaVOJtLvLiylH8dtK0Z/NSK9R8IftBeJNFlSDxGF1uy4BZgEnQeoYDDfQjn1ryWiolTjJaoqM5Reh9xeF/Fuj+MdIXUdBulni6SIeHib+6y9j/AD7VtV8R+DfGGqeCdfj1TSJemFngY/JOndWH8j2r7F8LeJbDxb4ctdY0p90FwvKn70bj7yN7g15tai6eq2PQpVVNeZrUlOpK5jc+V/2hNLksfig94ynytQtYpEbsSo2MP/HR+deWV9f/ABc8AHx34T2WQUarYky2hJxv4+aMn3H6gV8jXdrPY3ctteQyQTwsUkikUqyMOoI7GvXw1RThbseZXg4zv3IKKWlxXSc4lalt4Y169UNZ6HqVwGGQYrORs/kK7b4Q/DK48a63HqGowtHoVnIGmdhgXDA58pfXPc9h7mvrIsT3wPQVyVcSoOy1OmnQc1d6HxVB8N/G1x/qvCesf8Ds3T/0ICtKD4MfEG4+74anQf8ATWaJP5vX2DS1g8ZPsb/Vo9z5Ot/gB4+mxvsLSD/rpex/+yk1pwfs3eMJP9df6PB9Z5G/klfT2KMVP1qoV9WgfOdv+zHrDf8AH14ksI/XyoJH/nitKH9mGIY+0+LHPqI7AD+cle94pMVH1mr3H9Xpni0H7M3h9cfadf1SX18tI0/mDWjD+zj4Kjx5tzrM3+9dIM/klesUUnXqPqV7Cn2POYPgL8PoR8+lXM/vLfS/0Iqw/wAD/h4ybf8AhHtvut5Pn/0Ou9oqPaT7j9lDseKeJ/2b9Iurd5fCeo3FjcgZW3u282Jvbd95frzXgOu6BqXhrWJtL1q0e1u4fvI3Rh2ZT0IPqK+6a4r4n/D228f+G2iQJFqtqC9lcEd/+ebH+636HmuijiZJ2lsY1KCavE+O6Sp7u0nsb2a0vImhuIHMcsbjBRgcEGoa9O5wNAK91/Z48cC2u5vCGoy4juCZ7Asej/xx/iBuHuD614VU1rdT2V3DdWkrQ3EEiyRSIcFGByCPxrKpBTjZl05uErn3rRXIfDXx3bePfCkV8pRL+ACK+gB+5Jj7wH91uo/EdjXX140ouLsz1U01dCUdKWs/W9XttA0O91W+bEFnC0z++BwPqTgfjU76D21Pnn9ozxT/AGh4otfDlu+YdLTzZ8HgzOAcf8BXH/fRrxmreqalc6xq13qV85e5vJmmlY92Y5qpXt0ockEjyakuaVwr2r9m/wAOfbPE2oeIJlzHp8PkQkj/AJaSdSPoo/8AHq8WHWvrr4JaENE+FOmFk2zX+69lPrvPy/8AjgWs8RLliaYePNP0PQKKKK8ts9JBRRRUjEr57/aU8OyJqOleIokJikj+xzsB91gSyZ+oLD8K+hayvE3h2x8V+HLvRtUXMFym3cPvI3VWHuDzWlKfJNMzqR542Phqm10XjLwbqngjX5NM1eI45MFwB8lwnZlP8x1Fc8a9qMk1dHkuLTsxKKWjFUIK95/Zs8MSG71LxRcIViVPsVsSPvEkNIR9MKPxNeX+AvAWqePtdWy05DHaxkG7vGHyQL/Vj2H9MmvsLQ9EsvDuh2mk6VF5VpaRiOMdz6k+pJySfU1xYmqrcqOvD023zM0KKKK8w9AKKKKAENeE/tMapIlhoOlI2EmmluZB67Aqr/6G1e7V8+/tN2ri98O3mD5Zjniz6EFD/I1vh0nVRhX/AIbPBzSUtJXsHmBRRRQIUV1Xw11V9H+Jvh+7Rto+2xwv7pIdjD8mrlRW94Is5NQ8faDawglpNRg6egcEn8gaifwu5UX7yPt0ccelBpT1P1pK8M9gKKKKQwzVPVNY07RLJrzWL63sbdestxIEH0Gep9hXmfxP+Ndp4TeXSPDnlX2sj5ZZD80Vqff+8/8As9u/pXzdrev6p4j1J7/XL+a+uW/jlbO0eijoo9hgV1UsPKer0RzVMRGLstT6W1n9oXwZprFNP+26s4720OxP++n2/oDXNS/tP2wY+T4TmZfV79VP5BDXz4TRXWsLTW5zPETZ9HWH7TejSNjUvD19bj1gmSXH57a77w38VfB3iqVINM1mNLpultdKYZCfQbuGP0Jr4zowD1pSwsOhUcRJbn35RXyd4A+NeveEJIrTU3fVtIBCmGVsywr/ANM3Pp/dPH0619PeHvEemeKdFh1TRLlbm1lHUcMh7qw7EelcVSjKnudcKkZrQ06SlorE0EooooGFFFFABRRRQAUUUUAFFFFABRRRQAUUUUAFFFFABRRRQAUUUUAFFFFABRS0lAhaKKKBiUUUUAFFFFABRRRQAUUUUAFFFFABRRRQAUUUUAFFFFABRRRQAUUUUAFFFFACV5r8c/Fb+HPh7La2khS81aT7JGQcFUxmQ/8AfPH/AAKvSq+bf2k9RabxdpGnZ+S2smnx/tSPj+UYrahHmqJGNaXLBnjJPpTaKK9k8oSiiigAooooAcK9j/Z38WPpvi6bw7cSH7JqiF4VJ4WdBnj/AHlBH4CvGxWx4U1F9J8Y6NqERw1tfQvn23gH9CazqRUotGlOXLJM+5KSl7nHTNJXiHrhXH+Nfhf4b8dDzdVt2t78LtW+tSFkx2DdmH1H0xXYUU4ycXdEuKkrM+f7j9mGXzv9E8VRmLP/AC2sjuH5Piuj8Ofs6+G9KmSfXLy41mRTnymHkw/ioJJ/OvXaK1deo1ZszVGmnexFbWsFlax21nBHbwRKFjiiUKqD0AHSpKWkrE1ClpKpaxrFhoGk3Gp6vcpa2duu6SV+3sB1JPQAcmgC9S181eLf2itbv7iSHwlbx6XaAkLPOglnceuDlV+mD9a4WT4p+OpLjzm8U6iGznCyBV/75Ax+ldUcNUa1OaWJgmfZ9JXzD4V/aG8S6XcJH4lSLWrQn5n2LFMo9ioCn6EfjX0R4a8T6X4t0WLVNDuRPbycEdGjburDsRWdSjOnuawqxnsa1FFFYmolLRSUAFFGaQ8KWPCjkk8AUgPnL9o7wtFY65Y+I7VAi6iDBcgDrKgyG+pX/wBBrxSvff2hPGGhanodjoem6hDe3sN6J5RbsHWJQjLgsOMksOM9q8CNexhm3TVzy61ud2EpRSUtbmJ03gTxrf8AgXxNFqlh+8iPyXVuT8s8eeV9j3B7H8RX2D4e8Rab4p0SDVdFuFntph2+8jd1YdmHpXwyDXReD/HGueB9SN3oVyEWTAmt5BuimH+0v9Rg1y16HPqtzoo1uTR7H2vmvEv2jvFotNEtPC9rIPOvmFxdAHlYlPyA/wC83P8AwGsa4/abvXsStr4Zt4rsrgSyXbOgPrsCAn6bq8a1vWtQ8Q6zc6rrFy1zeXL7pJG4z2AA6AAcADoKwoYaSnzSNateLjaJn9TSikpa9I4Sa1tnvLuG1iGZJ5FiX6sQB/Ovu2wtI9P062s4BiO3iSJAOwUAD+VfGnw2shf/ABN8O27DKnUInI9lO7/2WvtKvPxb1SO7CrRsKKKK4DtCiiigAooooAzde8PaV4n0p9O12yjvLZ+dr9VPqpHKn3FfM3xj+GGmfD9tOuNGu7mWC/eRTFcYJjKhTwwAz97v6V9VV4Z+02f+JT4cH/Tzcf8AoCV04eclNLoc1eK5Gz55xXsHwb+E+jeN9JuNZ165uTFb3Rt1tISED4VWyzdf4sYGOnWvH6+nf2b1x8N7w/3tUl/9Fx12YiTUNDloRUpanp+kaNp2gaZHp+i2UNlaR/diiXA+p7k+55q9RRXltnpJWCiijFIAooooASuC+M/hhfE3w2vdm0XOnD7ZCzHH3Qdwz7rn8cV3rukUbSSuqIilmdjgKB1JPYV8xfGL4tnxZNJoPh6Vk0SF/wB7MODesD1/3Aeg79T2xrRjKU1ymVacYxtI8ipKeabXtnlhRRS0CsJXtH7OvhCW+8STeKLqMi105WhtmYffmYYJH+6pP4sK5j4c/CXWPHN1HczJJYaKrZkvJFwZB/djB+8ffoP0r6s0fR7HQdHttL0m3W3s7VNkca/zJ7knknua4cRWVuWJ10KTvzMvGiiivNZ3hXlXxq+JbeEdJXRtFm26zfpkyKebWE8b/Zj0H4n0r0zUb+DS9Nub+8fZb2sTTSt6Koyf5V8R+JfEF34o8R32tagf395KZCvZF6Kg9goA/CujD0ueV3sjCvU5Y2XUy2YliSSSTkk9SabRSV6x5oUUUUwClpMUUAKDXa/DL4hXfgHxIs+Wl0u5IW9tgeq/31/2l/Xp9OJpwNRKKkrMqMnF3R962d3Bf2UN3ZyrNbzxrJFIpyHUjII/Cpq8V/Zz8WvqGgXnhq8k3S6aRNbZPPkseV/4C3/oVe1V49SHJKx6sJc0biGiiisywooooAKKKKACiiigAooooAKKKKACiiigAooooAKKKKACiiigAooooAWkpaSgQtFFFAxKKKKACiiigAooooAKKKKACiiigAooooAKKKKACiiigAooooAKKKKACiiigBK+X/2jYWj+JNrIfuyaZFj8HcGvqGvDP2ltAebSdI8QQpkWsjWs5HZX5U/mCPxrfDO1RGFdXps+d6KKSvYPLCiiimAUUUUCFFW9MiafV7KGMZeS5iRR7lwKqV3Pwf0BvEHxR0mIoWgtJPtkxx0WPkfm20fjWdR2i2XFXkkfYQGKKDRXiM9gKKKKQwooooAQ0UUUgEr5l/aA8ZTat4r/AOEct5MWOlEGQKeJJyuST/ug7R/wKvofWfEui+HIRLr2qWtgvUCaQBm+i9T+Ar4r8Q6h/aviTUtQ37/tV3LMG9Qzkj9K7MJC8+ZnJiZ+7yozSaM0lFeocA4V6N8FPGUvhfx7bWk0mNO1Z1trhCeFc8I/1BOPoTXnAqW3kaK4jkjOHRwykdiDxUTipRaZUZOLuj729jRTImZolZ/vMoJ+uK5z4jandaP8Nte1DT2ZLmGzcxuvVCeNw9xnP4V4drux697K5X8Q/FHwd4Yne31TW4Dcx8Nb24MzqfQhQcH64rz7Vv2ltLhyuh6DdXR7PdSrCv5DcT+lfOucH1PcnqaM16UMJH7R50sTN7HqGr/H/wAbaizCyms9LjPQW1uGbH+8+79MVwur+Jtc19i2t6xe32TnbPOzKPoucD8qyc46kVc0/S9R1eYRaVYXV9If4baFpD+groVOnBbGDlOW7Kh9uKaa9G0b4F+OdX2tNp8WmRN/HeyhT/3yMt+ld1pf7MsAVW1zxHI7d47KAKP++mJ/lUyxFOPUqNKb2R8/UV6X8U/hJL4CMV/ps817pExCeZKBvhf+62OCD2OB6fXzatYzjNXiKUXF2YlGaKSqIFpKDSUALS0lLQB3vwVjEvxg0IH+F5W/KF6+vR0FfInwScJ8YtDz/EZh/wCQHr67HSvMxfxnoYX4H6hRRRXGdYUUUUAFFFFACV4V+04wGneG17+dcH/x1K9K+Ifj6x+H/h031yguLyY+XZ2m7BlfuT6KOpP0HU18oeLvGmt+NdSF5r14ZjHnyYVXbHCD1Cr26Dk5Jxya6sNTk5KfQ5cRUSjydTAr6f8A2cCD8M7kDtqkuf8AviOvmCum8G+Pte8DX3naHdlYXYNNaS/NDN9V7HAxkYPvXbWpucbI5aU1CV2famKMVzfgXxtp3jvw6mp6d+6kU7Lm1ZstBJjp7g9Qe49DkDpa8mScXZnpJpq6ExS0UlSUFDMFUsxChRkknAA9TRXzl8Z/i9/a7T+GPC1x/wAS9TsvbyM/8fJ7xqf7nqf4vp10p05VJWRnUqKmrsr/ABj+L58RSTeHfDM5XSY223N0hx9sI/hH/TMH/vr6V42eaK6bwN4H1Lx14hTTdNHlxqA9zcsMrBHnqfU+g7n8TXrRjClA8yUpVJEngHwFqXj3XhZWIMNrFhru7ZcrCn9WPYd/pk19Kj4OeBn0O30yXQ45EgXAuNzLMx7szqQST+XtXQeF/C+meENBh0nRYfLgj5d25eZ+7se5P/1hxWyK8+pWlN3Tsd1OiorXU8lk/Zv8GvMXS91iNc/cFxGQPxKZroNC+DPgfQJUmh0cXs6HIkv5DNg+u0/L+ld3RWTqTas2aKnBbIQKFUKoAVRgADAApaKKzNApKKKQzzT4+au2mfCy5gjJD6jcRWuQf4c72/RMfjXyiTk19JftLbv+EN0bH3f7ROfr5TY/rXzbXq4Rfu7nm4h++JSUtFdZzCUUUUAFFFFMApRSUtID0L4H6q2l/FvSl3YjvhJaSD13KSv/AI8q19dCvin4cFh8T/DOzr/akH/oXP6V9qivNxa95HoYZ+6LSUtJXEdYUUUUAFFFFABRRRQAUUUUAFFFFABRRRQAUUUUAFFFFABRRRQAUUUUAHaijtRQIWiiigYhooNFABRRRQAUUUUAFFFFABRRRQAUUUUAFFFFABRRRQAUUUUAFFFFABRRRQAVm+ItCtPE3h290bUVzb3kRjYjqp7MPcHB/CtKihOzuJ6nw14m8OX/AIT8RXWjarGVnt2wGxxIn8Lj2IrJr7I+I/w2074haOI5mFrqVuD9lvAuSv8Ast6qf06ivlHxR4R1rwdqrWGvWb275/dy4zHMPVG6H+detRrKas9zzatJwfkYlFLSV0nOFLRU1nZ3OoXkdrY28tzcSnakUKFmY+wFDaSuwsRKMn/Cvqj4G+ApPCfhd9T1SHy9U1QKzIw+aGEcqh9Cc5P4DtWF8KfgedHuIde8aRo94hD22n5DLCezSdi3oOg+vT27vXnV66lpHY76NFx95i0UYorhbOsKKKp6pqtjommTahq11HaWkC7pJZTgD29z6AcmluMuVheI/Gnh3wlDv8Qarb2jEZWEndK/0RcsfrjFeGeO/wBoHUdTeWx8GK2nWeSpvXH7+Ueqjog/M/SvG7i4murh57mV5ppDueSRizMfUk8muynhZS1loclTEpaRPf8AX/2lLZGeLwxobzdluL+TYPr5a8n/AL6Feba38Y/G+uB0m1p7OFv+WVighAHpuHzfrXC5pUVpJAkYLuxwFUZJ/CuyOHpx6HJKrOW7HyzSTSNLM7SSMcs7sWLfUmoTXa6F8JfGviHa1rok1tC3/Le9/cqB64bk/gK9BtP2Z7g6VM2oeIY11Ar+5SGHMKt6MTyR9MY96p1qUNLijSnLZHhGKXFb3ifwVr3g+8MGvafLbrnCTgbopPdXHB+nB9qwcj1H51qpJ6pkuLWjExXXfDHwpL4v8fadYBCbaKQXF22OFiQgnP1OF/GqvhTwJ4h8Z3iw6Hp8kkecPdSDZDGPUuePwGT7V9UfDr4e6f8AD7QjaWzfab64Ia7uyuDIR0UDso7D8a5q9aMVZbm1Gk5O72OvNQXtlb6lp9xY3sQltrmNopY26MrDBH5VPRXlHpHz3q/7M94dSc6Dr1stkzEql5G3mRj0yoIb68VqaR+zNpcW1te8QXd0e8dpEsS/m24/yr3Cit/rFS1rmPsKd72OM0b4R+BtD2m18PW9xIv/AC1vCZ2Pv8xIH4CuvgghtYRFawxwRjokSBFH4CpKSsnJy3ZqoxjsgIoopakoo6zo9nr+i3elanEJbW7jMci/XuPcHkfSvi7xd4Zu/CPiq90W+yXt3+STHEkZ5Vh9RX2/XjP7RPg8aj4cg8TWkf8ApOmkR3BA5aFj1/4Cx/U104apyys9mc1eHNG/Y+a6SlNJXrHnBSUtFMQlOptKKAOt+F96LD4qeHJ2OF+3JGT7OCn/ALNX2cOK+DLK7ewv7e8iOJLeVJVPupB/pX3ZY3keoafb3sBzFcxLMhHcMAR/OvNxi1TO/CvRosUlLRXAdglFFcz428faL4E0v7Tq82+4cf6PZRHMsx9h2X1Y8fjxTSbdkJtJXZ0vXpWFqvjjwtobumq+INOtpU+9E1wpcf8AAQSf0r5f8afF7xN4ykkhe6bTtObgWVoxVSP9tur/AI8e1cJXZDCN/EzklirfCjuPi54zTxn47uLmynM2m2qi3szggFQMswB/vNk/TFcLmgmkr0IRUY8qOOUnJ3YuaM0lFUSdZ4A+IOpfD7WpL7Too7qKePy57WViqyDqDkdCD0PufWvRP+GndYP/ADLVh/4Ev/hXiFFZSowm7tGkak4qyZ7eP2m9X/6Fqw/8CX/wp4/ac1P+LwxZfhdv/wDE14dRUfVqfYft6nc9V8Y/HrW/FPh+XSbSwh0mK4+W4lhmZ3kTugJA2g9+5HHTNeVE0ZpM1rGnGCtEiU5Td2LmvS/Bfxnl8D+Hk0vS/DdixzvnuGmcPO/95uPTgDoK8zzQTROmp6SCM5Rd0e2j9pvVx/zLdj/4Ev8A4Uv/AA05q3fwzY/+BT//ABNeIZo4rP6tT7F+3qdz3H/hp3U/+hYs/wDwLf8A+Jo/4ad1Tt4Ysv8AwLf/AOJrw6jNH1en2H7ep3Pb/wDhpzVu3hqx/wDAl/8AClH7Tmrd/DNj/wCBT/8AxNeH0uaPq1PsHt6nc9xH7Tmp9/DFl/4Fv/8AE1Iv7Tl7/F4Wtz9L5v8A4ivCwaXNL6tT7B7ep3PRfiJ8YLn4g6HDplxo0NisNwJ1kS4LnIVlxyo/vfpXnFKabW0IKCsjOUnJ3YUtJRWhAUUUUCCiiigApaKAMmgZ3/wT0ttU+Lej4XKWZe7kPoEQ4/8AHitfXteIfs4eFWstFvvE13Htkvz9ntdw58pT8zD6tx/wGvbq8nES5pnpYePLAKKKK5TpCiiigAooooAKKKKACiiigAooooAKKKKACiiigAooooAKKKKACiiigA7UUdqKAFooooAKSlpKACiiigAooooAKKKKACiiigAooooAKKKKACiiigAooooAKKKKACiiigAooooAKq6lpdhrNi9lq9nBe20n3op0DKfwNWqKNhHk2ufs6eEtRkaTSbi90hj/AARv5sY/4C3P61zj/swDf+78Wnb/ALWn8/8AoyvfKK2VaotmZOjTfQ8Z0n9mrw9ayK+saxf6hj+CNVgU/X7x/WvTPD3hDQPClv5Xh/SreyyMNIi5kf6ueT+dbVJUSqSl8TKjTjHZBilFJWV4n8SWHhPw7dazqzlbe2XO1fvSMeFRR6k8frUavRFvRXZpz3ENrbvPdTRwQxjLySMFVR6knpXDah8a/AGnTNE+vLcupwRawSSj/voLtP5182+OfiJrfjzUDLqs3lWatmCwiY+VEO3H8TerH8MDiuUJruhhLq8mcU8S7+6fWh+OvgU6Zc3cOoyyPAm4WzQMkkp7KoIwf6d6+efHvxE1fx9qgn1FvIs4iTbWMbExwj1/2m9WP4YHFchmjNdNPDwpu5hOtOasx/Jrp/CPw68S+N5P+JHYn7Mpw95OfLhX/gXc+wBNei/CT4M2+t2Nv4j8VgSWMw32lkr/AOuGfvSEdF44Xv39D9DW8EVrbx29tEkMMahY4o1CqgHYAcCsq2J5XaBpSw7kryPHvDX7OGh2KpL4o1CfVJuphgPkwj2z94/mK9P0XwroHh2MJoejWVjgY3xQjefq3U/nWvRXDKpOXxM7Y04R2QhPrRS0lZmg2SNJY2jlRZEYYKuoIP4Gsn/hD/DJn84+G9I83Od/2CLdn67a2KWgVkNRFjjWONVRFGFVRgD6CnUUUAFFFFAwooooAKKKKACiiigAqrqenQaxpF3pt4oaC7haGQH0YYq1RRsI+EdZ0ubRdcvdMuhiaznaF/facZqlXqf7QWiDTPiYb2Jdsep2yTcdN6/K38gfxryyvbpy5opnk1I8smgoNFBrQyEpRSUtMYor6s+A3itfEHw/j02Z83ujn7O6k8mLrG35ZX/gNfKVb3g/xfqfgrxDFq2jyASKNksT5KTIeqsP84Nc9en7SNkbUZ8krn29RXj1j+0j4Xms1fUNO1O2udvzxRIki5/2W3Dj6gVxnjb9oXUtYtZLDwnayaRBICr3cjg3DL6LjhPqCT6EV5kcPUk7WO+VeCV7novxO+Mmn+DEk0zRjFqGukYKZzHa+7kdW/2Pzx3+YNX1e/1zVJtR1e7ku7udt0kshyT7ewHYDgVTZizEk5JOST3ptenSoxprQ8+pUlN6i5opK6zwT8N/EHjy6xpNuIrNGxLez5WJPbP8R9h+laykoq7ISbdkcmaMV9NWn7OfhqHQJbW7vLu41GReL4HaIm/2Y+hHsck+orx3xf8ACXxT4RuJDLYyX9iD8l7ZoXQj/aUcofrx7msoV6cna5rKjOKvY4ejFSrbTPKIkikaQnARVJY/h1rvvCHwW8V+KJ0e4s30iwJ+a5vUKNj/AGUPzE/kPerlUhFXbM1CTeiKvwo8Bf8ACeeL1trxZhpVqhlvZYjtIGPlQH1Zv0Br3H/hnjwJ/d1T/wADP/sa7Pwh4Q0vwVoMelaLEVQHdLM/Lzv3Zj/ToK3q86piJN3i7HfChFL3tzy7/hnjwJ/d1T/wM/8AsaP+GePAnpqv/gZ/9jXqNFZe2qdy/Y0+x5f/AMM8eBP7uqH/ALfB/wDE0f8ADPHgP/nnqf8A4Gf/AGNeoUUe2qdw9jT7Hl//AAzx4D/556p/4Gf/AGNB/Z38B/3dUH/b5/8AY16hRR7ap3D2NPseXf8ADO/gT+7qv/gZ/wDY0v8Awzv4D/u6p/4Gf/Y16hRT9tU7h7Gn2PLv+Gd/Afpqv/gZ/wDY0f8ADO/gP+7qv/gYP/ia9Roo9tU7h7Gn2PLj+zt4EPQasPpeD/4mk/4Z28Cf9Rb/AMDR/wDE16lRR7ap3D2MOx5d/wAM7eBP+ot/4G//AGNKP2ePAg/h1U/W9/8Asa9Qope2qdw9jDseZp+z/wCAU62l+/8AvXrf0xXC/FT4HWmk6MdZ8EwTbLVP9Lsi7SEr/wA9FJ5yO49OR0r6Gopxrzi73E6EGrWPgSivoX4pfApr2efXfBEaiZyXn0wYAc92j7A/7P5elfP1xbzWlzJb3UMkE8R2yRSKVZD6EHpXqU6saiujz505QdmRUUUtamYlFLRTAK634deA73x74ljsoA0dlCQ95c44jTPQH+8egH49qu+APhRrvjudJo42sNKB/eX0y4DD0Qfxn9PU19T+FvCuleDtCi0rQ4PKhT5nduXmfu7HuT/9YVx1sQl7sTpo0XLV7Ghp9hbaXp1vY2ESw21tGsUUa9FUDAFWaAKWvNk7nopBRRRUjCiiigAooooAKKKKACiiigAooooAKKKKACiiigAooooAKKKKACiiigA7UUUUALRRRQAUlLSUAFFFFABRRRQAUUUUAFFFFABRRRQAUUUUAFFFFABRRRQAUUUUAFFFFABRRRQAUUUUAFFFFABSUtFACV86/tJeIZZta0vw/G5EFtF9smUHhnclVz9FB/76r6KNfKn7QMUkfxWuGcHbJZ27J9NpH8wa6MLFOpqc+IbVM8wzRRSV655gtKKSlFAH0v8As5681/4NvNGmbL6XPmPPaKTJA/Bg/wCdexV4B+zJbSG48RXWCIgkEQPYtlz+g/nX0BXj10lUaR6lBt01cKKKKwNwooooAKKKKACiiigAooooAKKKKACiiigAooooAKKKKAPD/wBpnTRJoOhamB80N09ux9nXcP1Q186V9XftAWgufhLdykZNrdQyj2+bb/7NXyketephXemebiFaYlFFFdZzCUUUUwFpabRSAdmikopgFAGTRXVfDvwdL448ZWulLuW2GZruRf4IlIz+JyFHuaiUlFXZUU27I6r4SfCN/GUq6xrqyQ6HE2FUEq12w6gHso6E/gO5H0/Z2dtp9lFZ2FvHbW0KhY4olCqo9ABTbKyt9OsYLKxhWC2t4xHFEgwEUDAAqyK8qrNzd2enTpqC0CgEjpS0Vzmwg65A59aXr15oooAKKKKACiiigAooooAKKKKACiiigAooooAKKKKACiiigAooooAK5vxV4A8NeM48a/pscswGEuYz5cyfRxz+ByK6Simm07oTSaszwbV/2ZIWkZ9A8RvGv8MV7Bux/wADUj+VYD/s0+KQ3yaxozL6l5R/7Ia+mKK3WIqLqYuhTZ87ad+zLqTuDq/iOzhTuLWB5D+bba9D8NfA3wb4ekSea0k1a5Q5El+wZQfZBhfzzXo1FRKtUluxxowj0GoioioihVUYVVGAB6AU6iisjYKKKKACiiigAooooAKKKKACiiigAooooAKKKKACiiigAooooAKKKKACiiigAooooAKKKKAFooooAKSlpKACiiigAooooAKKKKACiiigAooooAKKKKACiiigAooooAKKKKACiiigAooooAKKKKACiiigAooooASvFv2iPBs2p6Na+JtPiMkunKYrpVGSYSchv+AnP4NXtNI6JLG0cqq6OCrKwyGB6girhNwlzIicVOPKfA5oxXvfxA/Z8me6m1LwKyFJDubTJW27T/0zY8Y/2Tj69q8e1Dwd4k0m4MOo6DqUDg4+a1cg/QgYP4V68K0Jq6Z5cqU4uzRi0+CGS4njhgjaWWRgiIgyWYnAAHc102h/DTxh4gnWPT9AvVUnma5iMMY99z4/TNfQHwx+C9l4KmTVtZlj1HWQP3ZUfurbI5256t/tH8KmpiIQWjuyoUZSZvfCvwY3gjwLbafcgfb52NzeEc4kYD5f+AgAfga7OiivJlJyd2enFKKsgoooqSgooooAKKKKACiiigAooooAKKKKACiiigAooooAKKKKAOF+NMfm/B3Xx/dijb8pUNfH5619jfF4Z+EPiPP/AD6j/wBDWvjk9a9LB/Czz8T8QlBooNdpyCUUUUwCiiigApaSloAWvpv9nbw0NN8ET65Mg+0atKdjHqIYyVA/Ftx/KvmTBwcde1fcnhXSl0TwjpOmIuBa2cUZ+oUZ/XNceKlZJHVho3k2amKdRRXmN3PQQUUUUhhRRRQAUUUUAFFFFABRRRQAUUUUAFFFFABRRRQAUUUUAFFFFABRRRQAUUUUAFFFFABRRRQAUUUUAFFFFABRRRQAUUUUAFFFFABRRRQAUUUUAFFFFABRRRQAUUUUAFFFFABRRRQAUUUUAFFFFAC0UUUAFJQaKACiiigAooooAKKKKACiiigAooooAKKKKACiiigAooooAKKKKACiiigAooooAKKKKACiiigAooooAKSlooASlDEdCfzoooAM565ooooAKKKKACiiigAooooAKKKKACiiigAooooAKKKKACiiigAooooAKKKKAOG+M0vlfB7xCx7wIv5yoK+Pj1r6v+P12Lf4Q38ZODc3MEI9/nDf+y18oHrXp4Re4efifjEoNFJXacgUUUUAFFFFABSikpRQBoaHbi78Q6bbEZE15DGR9XAr7sxjpXw34TYL400Nj0Go25P/AH8WvuTua87F7o7sLsxKKKK4DtCiiigAooooAKKKKACiiigAooooAKKKKACiiigAooooAKKKKACiiigAooooAKKKKACiiigAooooAKKKKACiiigAooooAKKKKACiiigAooooAKKKKACiiigAooooAKKKKACiiigAooooAKKKKACiiigBaKKSgAooooAKKKKACiiigAooooAKKKKACiiigAooooAKKKKACiiigAooooAKKKKACiiigAooooAKKKKACiiigAooooAKKKKACiiigAooooAKKKKACiiigAooooAKKKKACiiigAooooAKKKKACiiigAoopKQHiX7TGo+V4Z0TTQebm9ecj2jTH83r5yr139o3VvtvxCtdORsrptkoYejyHef0215FXsYdWpo8uu7zYUlKaSukwCiiigAooooAKUUlKKALelz/AGXWLK5PAhuY5D+Dg194A7uR0PIr4FP3DjrjivuTwpqI1fwfo+oKd32myikJ99gz+ua8/GLZnbhXujXpKWkNeedwUUUUAFFFFABRRRQAUUUUAFFFFABRRRQAUUUUAFFFFABRRRQAUUUUAFFFFABRRRQAUUUUAFFFFABRRRQAUUUUAFFFFABRRRQAUUUUAFFFFABRRRQAUUUUAFFFFABRRRQAUUUUAFFFFABRRRQAUUUUALSUtJQAUUUUAFFFFABRRRQAUUUUAFFFFABRRRQAUUUUAFFFFABRRRQAUUUUAFFFFABRRRQAUUUUAFFFFABRRRQAUUUUAFFFFABRRRQAUUUUAFFFFABRRRQAUUUUAFFFFABRRRQAUUUUAFFFFABRRRQAU12VELSMFQDLE9h3P5U6vP8A40eKB4a+Gt95Mmy81D/QrfB5y33z+CZ/MU4rmkkTJ8qufL/jHXn8TeM9W1lzkXlyzp7IOEH/AHyBWJRx26UV7kVZWPIk7u4GkpaSrJCiiigAooooAKUUlFADh1r6t+AOtf2p8LYLVmzLplxJbEd9pO9f0bH4V8oivZ/2b/EAsvFuoaHM+E1K3EsQJ6yR5JH4qT+Vc2JjzQOjDytM+laKBRXjnpiUUtJTAKKKKACiiigAooooAKKKKACiiigAooooAKKKKACiiigAooooAKKKKACiiigAooooAKKKKACiiigAooooAKKKKACiiigAooooAKKKKACiiigAooooAKKKKACiiigAooooAKKKKACiiigAooooAWkpaSgAooooAKKKKACiiigAooooAKKKKACiiigAooooAKKKKACiiigAooooAKKKKACiiigAooooAKKKKACiiigAooooAKKKKACiiigAooooAKKKKACiiigAooooAKKKKACiiigAooooAKKKKBBRRRQMQ18r/HvxYNf8dnTLWQPZ6MphBU5DTHBkP4HC/hXvnxK8ZxeB/BV1qQZftsg8myjJ+/K3Q49FGWP096+M5JGkkZ5GLu7FmZjyxPUmuzCU7y52cmJnZco2ikor0zzwooopgFFFFABRRRQAUUUUALWl4f1q48O+IrDWLI4msZ1mUf3gDyv0IyPxrMpRUtXVhp2dz7x0rUrbWNJtdRsXD213Es0TD+6wzVuvCv2dvG6z2U3hDUJgJoN09huP3kPLxj6H5gPQn0r3WvFqwcJNHrQkpxuFJS0VmaCUUtFAhKKKMUAFFGKMUAFFGKKACiiigYUUUUAFFFFABRRRQAUUUUAFFFFABRRRQAUUUUAFFFFABRRRQAUUUUAFFFFABRRRQAUUUUAFFFFABRRRQAUUUUAFFFFABRRRQAUUUUAFFFFABRRRQAUUUUALSUtFACUUUUAFFFFABRRRQAUUUUAFFFFABRRRQAUUUUAFFFFABRRRQAUUUUAFFFFABRRRQAUUUUAFFFFABRRRQAUUUUAFFFFABRRRQAUUUUAFFFFABRRRQAUUUtACYoxS0UCExRS0maACiilIIGSCB60AJRWRqPi3w5pJI1PX9MtWHVZbtA3/AHznNcze/Gz4f2W4f2+twy/w29vK+fx24/WmoyeyJc4rdne1T1PVLLRtLn1HVbmO1s7dN8s0hwFH9T6Ack9K8g1n9pXRYI2XQdGvL2Xs9yywp9eNxP5CvGPGXxC8QeOblX1u7H2eNt0NnCNsMZ9cdz7nJreGGnJ66GU8RCK01LXxN8f3Hj/xM13teHTrYGOxt2PKJnl2/wBpsAn04HauLpTzSV6sIqKsjzpScndhRRRVEhRRRTAKKcASQB1PAHrTpYZYH2TxvG2M7XUqf1pXGR0UuKKBCUUUUwClFJRQBc0zUrvR9UttR02ZoLu1kEsUi/wsP5j2719ifDvx9YePvDiXlsVivoQFvbTPMT+o9VPUH8OoNfGArU8P+I9V8LaxFqmhXbWt1Hxkcq691YdCD6VzV6XtF5nRSq8j8j7oorxfwt+0fol7CkPiyzl0u4Aw1xAplhY+uB8y/TB+teg6d8SfBmqgfYfE2msW6JJMIm/75fBry5U5xeqO+NSMtmdPRUUFzBdRh7WaOdD0aJww/MVNgjqKgsSiiigAooooAKKKKACkxS0UAJRS0UAJRRRQAUUUUDCiiigAooooAKKKKACiiigAooooAKKKKACiiigAooooAKKKKACiiigAooooAKKKKACiiigAooooAKKKKACiiigAooooAKKKKACijtRQAtFFFACUUGigAooooAKKKKACiiigAooooAKKKKACiiigAooooAKKKKACiiigAooooAKKKKACiiigAooooAKKKKACiiigAoopaAExRilooEJijFFH0oGGKKp6lq+m6NB52r6ha2Ef965mWMfqa4jVvjn4D0tXEerPqEi/8s7K3d8/8CIC/rTUZS2RDnGO7PQ6K8I1P9pu2UsujeGppP7sl3dBP/HVB/nXHan+0N43vciybT9NXt5FtvYfjIW/lW8cPUfQyeIpo+qBk9BVW/1Sw0qHzdUvrWyj/v3Myxj82Ir4z1T4ieMNZLf2j4k1GRW6pHOYkP8AwFMD9K5t2Mjl5CXc9WY5J/E1ssG+rMniuyPsTUPjF4B01isviS2mcfw2sck2fxRSP1rldR/aR8LW+4afp2qXrDoSiRKfxLZ/SvmXNJWqwkFuZPETZ7tfftOXjqRpnhiCE9mubtpP0VV/nXM337Qfjq7z9mnsLAf9MLMMf/Hy1eX0ZrVYemuhDqzfU67UPip451LP2nxRqCg9RbyCAf8AkMLXN3mp3+ovu1C+urtvWedpP5k1Vpa0VOK2Rm5N7gBjoMUUCum8I/D7xH43n26HYloFOJLuY7IU+rdz7DJptxirsSTbsjmaSvoWw/ZmsRY41XxFcPeEdbaFVjQ/8CyW/SvGvG3hC88EeKJ9Gv3WUxqJIplGBLG3RsdumMdiDUQrQm7RZcqUoK7Rz9a9l4S8RanY/bdO0PULq1/57RWzMp+hxz+FSeC9Lt9c8daLpd7/AMe93exxyjPVSeR+I4/GvtyKOOGFIbeNYoY1CpGgwqqOgArKtXdN2SNKNH2mrPglkZHKupVlOCCMEH0pK9r/AGifB6afrVp4lsodkN/+5uto484DIY+7L/6DXihranNTjzIzqQ5JWEopaK0IPoD9nDw3pk+maj4guYY57+O5+ywl1B8lQoYsPQndjPt7mvXPFXg/SPGWiyadrNuHVh+6mUYkhbsynsf0NfM/we+Ia+BfEjxakSdH1HalyQMmFh92UD2yQfY+wr6ygmjnhjmgkWSKRQ6SI2VZSMgg9xXl11KM+Y9Gg4uFj4n8Y+E7/wAGeJbjSNTUlozuimAws0Z6OP8APB4rBNfZfxH+H1n4/wDDrWshWDUIAXs7nH3G/un/AGT3/OvkHWNIvtC1e50zVbdre7tn2SRsOh9R6g9Qe9dlGqqi8zlq0uR+RRooorpOcKKKKBBS0lFAxaQjPWilzSsMdC72777eRonHRo2KkfiK3bHx34t03H2HxLqsQXov2t2X/vkkisDNFQ4Re6HzNHodl8dfiBZkb9Zju1H8NzaRHP4qoP610lh+0v4ihI/tLRNNux38pnhJ/Vh+leMUVm6FN9DRVZrqfQ9n+07p7Ef2j4YuofU292kn8wtdLp/7QngW8A+1T32nn0uLRm/VN1fKdFZvCwZaxE0faWn/ABO8E6pj7H4n07ceizTeU35Pg10tvcwXcYktJ4rhD0aJw4P4ivggjPWnQSSWsoktZHhkHR4mKkfiKyeE7M0WJfVH31g9xRXxVpvxJ8aaQR9h8T6ioHRZZvOUfg+RXV6b+0P44ssC9bT9SXuZ7bYx/FCo/SsnhZrY0WIi9z6qorwbTP2nbdsLrPhmWP1e0ug//jrAfzrsdL+PfgLUVUT6jcadI38F3bOMf8CUMv61k6U1ujVVYPqekUVlaV4o0DXFB0fWrC9z2huFY/lnNa2D6VnZo0unsJRRRSASilooASilooASilooASiiigYUUUUAFFFFABRRRQAUUUUAFFFFABRRRQAUUUUAFFFFABRRRQAUUUUAFFFFABRRRQAUUUUAFFFFAB2oo7UUALRRRQAhooNFABRRRQAUUUUAFFFFABRRRQAUUUUAFFFFABRRRQAUUUUAFFFFABRRRQAUUUUAFFFFABRRRQAUUUUAFFHqew6n0rk9e+KHg3w2zR6nr1sZ16wWxM0mfQhM4/HFNJvYlyUd2dZR9K8H139piBN8fhrQXkP8M9/JtH/fC5J/76Feb658ZvHOuh0l1t7KFv8AllYRiED23D5//Hq3jhqkt9DCWIgttT6y1XW9L0O38/WtStbCL+9czKmfpk8157rX7QPgrSwVsJbrV5Bni1hKpn3Z9v5jNfK800tzM01zI80rHLSSMWY/Unmm5rpjg4/aZhLFSex7XrH7S2tXAKaFolnYj/npcyNO35DaB+tcHrHxW8b64pW98RXaRn/lna4t1+nyAE/ia4+iuiNGnHZGEqk5bsdJI80pkmdpJGOS7sWY/iaTNJmitrWMwopKKAFzRSUUAFFFFAwpaKKACpIYJbmdIbeN5ZZGCpGi7mYnoAB1NaXhvwzq3izWI9N0K0a5uG5YjhY17szdAK+o/hv8JtL8B263c+y/1p1+e7Zfliz1WMHoPfqfbpXPWrxp6bs1p0pT9Dhfhx8AlCxar49Qkn5otLVunvKR/wCgj8T2r3a3t4bS1jtrSGOCCJQscUShVQegA4FSYrE1HxhoWleIrDQbu+T+1L9wkNrGNzjjOWx90cd+vavMlOdR3ep6EYwprQ2wK+Zf2kQB8RLA9zpaZ/7+yV9NV8yftI/8lDsP+wYn/o2StcN/EIxH8M8q0zUJtJ1ez1K1/wBfZzpPH/vKwI/lX2/4e1yz8SeH7LWNNffbXkQkX1U91PuDkH6V8LivVvgl8SR4S1g6JrM23Rr+T5ZHPFtMeA3sp6H04PrXXiKbkro5qFTldmfRvinw1ZeLvDV3o2pD91cJhXA5jccq49wa+M/E/hvUPCfiK60fVo9s9u3DAfLIvZ19QRX3GDXCfFX4cwePfDxNsFj1i0UtaSnjf6xsfQ/ofxrkw9b2bs9jprU+dXW58gUlT3drPY3k1rdxPDPC5jkjcYZGBwQRUJr1jzRRXs/wU+Kw0OeLwx4kuMaZK22zuZDxauT9xj/cJ7/wn2PHi4pevWspwU1Zlwm4O6PvkGvPfiv8L7fx5pP2qxCQ63ap+4lPAmXr5bH+R7GuK+CnxaWaODwp4ouQsyAR6fdyn746CJj6j+E9+nXGfeAa8tqVGZ6KcakT4LvrG506+ms76CS3uYHKSxSLhkYdQRUFfXvxH+E+k+P4ftIYWGrxriO8RchwOiuP4h79R+lfMvi/wF4h8E3hi1yxZIScR3cfzQyfRu30ODXpUq0ai8zhqUZQ9Dm6KKK6DAKKKKBBRRRQAUUUUDCiiikAUuaSimAuaM0lFIBaKSigYtFJS0guJtGc45HQ1v6R448VaAy/2R4gv7dV6R+cXQf8BbI/SsHNGalwT3Q1Jo9X0j9ovxlYFV1OKw1VB1MkPlOfxTj9K7vR/wBpfQrkqmuaLeWDHq8DrOg9/wCE/oa+baKxlh4PoaqtNdT7R0X4n+C/EBVdN8Q2nmt0inJhfP0cDNdWpDqGQhlPQg5Br4CKg9efrWtovinXvDsgfQ9YvLHBztimIQ/VT8p/KueWE7M3jiX1R9z0V8u6H+0X4u04qurwWWsRjqZE8mQ/8CTj/wAdr0bQf2jPCuo7U1u2u9HkPVmXz4wf95Rn/wAdrnlQnHobRrQZ65RWZo3iTRPEMPm6Hqtpfr38iUMR9R1H41qH3rKzW5smnsJRRRSASilpKACiiigYUUUUAFFFFABRRRQAUUUUAFFFFABRRRQAUUUUAFFFFABRRRQAUUUUAFFFFABRRRQAUUUUALRRRQAhooNFABRRRQAUUUUAFFFFABRRRQAUUUUAFFFFABRRRQAUUUUAFFFFABRRRQAUUUUAFFFYXiLxp4d8Jxb/ABBq9tZtjKws26Vvoi5Y/lQk3sJtLc3aM8E9h1PpXg/iX9pSFN8HhLR2lPRbu/O1fqI15P4kfSvI/EvxE8VeLNya3rNxJAf+XaI+VF/3wuAfxzXTDDTlvoc8sRCO2p9Q+JPiz4N8MF473WIri6T/AJdrMec+fQ7eFP1IryjxD+0pqNwHi8MaPDZL0FxeN5r/AFCDCg/UmvD+nTikrrhhYR31OaWInLbQ6HxB478T+KMjXdbu7mM/8sQ/lxf98Lhf0rn+nTikzSV0qKjsc7be4pNJRRVAFFFFAgopaSgAooopgFFFFIAooooAKKWigArtfh58MtX8f3xNtm00yJsT30i/KP8AZUfxN7du9dZ8M/gZea+YtW8XpLY6Zw0doflmuR790X9T2x1r6RsbC102xhstPt47a1hXbHFEu1VH0rhrYm3uw+866VC+sjK8J+D9H8F6OunaFbCJODLM3Mkzf3nbuf0Hat3gDJwAOST2qrqWpWWjabNf6pdRWlpAu6SWVsAD+p9upr5o+J/xqvPFfnaR4dMljo2Sryfdlux7/wB1fbqe/pXFTpyqvQ6p1I00dj8TfjvHYvNo3geVJrhcpNqeNyRnuIh0Y/7XT0zXlfwtnmvPjNoFzdTSTzy3peSWVizOxVskk9TXFE12Hwl/5K34c/6+/wD2Vq9ONKNODSODnlOabPsevmX9pH/koWn/APYMT/0a9fTVfM/7SQ/4r7TT/wBQ0f8Aox64cN/FO2v8B48Kd14NNpa9U80+jvgV8TRqlpF4S16f/TrdMWEznmeMD/Vk/wB5R09R9OfbQa+CYLia1uIri1laGeFw8ciHDIwOQQexBr61+E/xHi8eeHwl4yx61ZKFu4hx5g6CVR6Hv6H2xXm4ijyvmR30avMuV7nNfHH4Xf25ZyeKNBhzqNumbuBBzcRj+ID+8o/MfSvmqvvsGvmv45fC/wDsO8k8UaDBjTbh/wDS4UHFvIT94DsrH8j9RWmGrfYkTXpfaR4xRQaK7ziFr3X4XfHX7LHDonjmdmiUBLfUyMlR2WX1H+1+frXhNFZVKamrM0hUcHdH3tbzxXVtHcWsyTwyKGSSNgysD0II60lzbW97ayW17BHcQSDa8UqhlYehB618b+C/iZ4j8CzBdJuhNYlsvY3HzRN9O6n3H45r6E8GfHDwv4q8u2vpP7G1FsDyLpvkc/7MnQ/Q4PtXnTozgd0K0ZmJ4y/Z30fVS934SuP7JuTk/ZpMvAx9u6fhke1eEeKPA3iLwdceXr+mywRk4S4Ub4n+jjj8Dg19tjlQykFT0I70yeGG6t3guokmhkGHjkUMrD0IPWqhiJR0eop0Iy20PgeivqHxf+z74d1vfc+HZG0S7PPloC8DH/d/h/Dj2rwvxb8MvFHgxnfVdOeS0U4F5bfvIj9SOV/ECu6nXhM450ZROSooorcxsFFFFAgooooAKKKKBhRRRQAUUUUAFFFFABRRRSAKKKKAFzRmkooGLRSUtKwDoneCZZYXaOVTlXQlWH0I5ru/D/xo8b+Hgkaar/aFuv8Ayxv0Eo/764b9a4LNFRKEZbopSa2Po7w9+0rpV0yReJ9Im09jwbi1fzo/qVwGH4Zr1TQfGPh3xRGH0DWLW9OMmNHxIv1Q4I/Kvh2lRmjkWSNijqcqynBB9jXNLCxex0RxEluffZGOtFfIXhr41eNPDeyIakNStV/5Yagvmcez/fH5mvX/AAx+0X4c1UrD4itZdFnPHmAmaEn6gZH4j8a5J0JxOmNaMj16kqtp2qWGsWa3elXsF7bt0lgkDqfxFWqwNhKKKKBhRRRQAUUUUAFFFFABRRRQAUUUUAFFFFABRRRQAUUUUAFFFFABRRRQAUUUUAFFHaigQtFFFAxKKKKACiiigAooooAKKKKACiiigAooooAKKKKACiiigAooooAKKKKACiiigAooooA84+OHiTVvDPgBZ9Cna2lurtLeS4j+/EhVidp7ElQM9s8c18oTSyTTPLM7SSyMWeR2LMx9STya+3PF/hq38XeE7/RLo7Vuo8I//PNxyrfgQK+KtV0y70XV7rTNRiMV1aSGKVCOhH9O9ejhHG1upwYmLvcqUlFJXccYuaKSimAUUUUAFLSU5VLMAASTwABSASp7OwvNRm8nT7Se7l/uW8TSH8gK92+G/wAAoZLWLVvHiOWkAeLS1YrtHYykc5/2R07+le5adptjpFotrpNlb2NuvSK3jCL+Qrjniop2irnVDDuWr0Pimfwd4mtYfNufDurRR9Sz2UgA/SsZlKsVYFWHUEcivvoEjufzrnvFHgLw34xtWi1zTIpJSPluYxsmQ+occ/gcj2qI4vX3kW8L2Z8S0V6V4y+CPibw7rQh0WxutbsZjmG4t4ssv+zIB90+/Q/pTNM+A3jzUdpm06DT0P8AFd3KjH4LuP6V1e2p2vc53Sne1jzilzXvOk/sySttbXfEiL6x2UBP/jzEfyrt9J+AXgXTdrXNnc6m473dwcH/AICm0VnLFU1tqWsPNnydkFsZ5PQVvaV4H8U63tOleH9RuFbo4t2VP++jgfrX2RpnhfQdEUDSNEsLLHRobdVb88ZrVJJ71hLGP7KNo4VdWfLOjfs9eM9RZTqX2PSYj1M0wkfH+6mf1Ir2DwT8FvDfg+SO8mU6tqScrcXSjbGfVE6D6nJr0WmzSRwQvNPIkUSDLO7BVUepJ6VzTr1J6Nm0aMIajvrXNeNvHui+BNJN1q0we4cH7PZxnMsx9h2Hqx4H6VwXj74+6Xo8clh4OMeqX/Ktdkf6PCfUf89D9Pl9z0r511bV7/XNTm1DVruS7u5jl5pTkn29h6AcCtKOGc9ZbEVK6jpE3/HXxD1rx7qPnarL5VrG2bexiP7qL3/2m/2j+nSuTJzRSV6cYqKsjgcm3dhXZ/CMZ+Lnhz/r7/8AZGrjK7X4QjPxc8O/9fR/9Aapn8LHD4kfYvpXzP8AtJf8j7pv/YNH/o16+l6+aP2k/wDkfNM/7Bo/9GNXm4b+Kj0K/wAB47S0lFeueYLWr4b8Rah4V1+21jR5fLubduh+7IvdGHdSP85rJpRUuKasyk2ndH2z4L8Yaf428NQavph27vlngJy0EgHKH+h7jBrbu7WC/s5rS8iSe3nQxyxOMq6kYINfHXw58fXngDxIt7CGmsJ8Je2oP+sTP3h/tDkg/Ud6+vdI1ay1zSLbU9KuFuLO6QPFIvceh9COhHY15Nak6bPSpVFUXmfJvxU+Hc/gLxIVtw8mkXZL2cx52+sbH+8P1GDXC19xeKvDGn+MPDlzo+qpmGYZRwPmicfddfcf/Wr448XeFNQ8G+IrjSNVT95EcxygfLMh6Ovsf0PFduHrc65Xuctalyu62MOiiius5RaCM9aSlpWGdn4O+K/irwWUhsL37XYL1srv50x/snqv4HHtXvXg746+GPE/l22pv/YmoNx5dy2YnP8AsydPwOK+UqCAetc9ShCZtCtKJ98qQyhkIZSMgg5BFDAMpVwGUjBBGQRXxl4S+JvirwYVj0jUS9mDzZ3I8yI/QHlf+AkV7f4T/aH8P6vst/E1u+i3J480EyQMfqBlfxGPeuGdCcNjshXjI1/F3wN8J+J/MuLOFtGvnOTNZj5GP+1H0/LFeH+Lfgn4t8LeZPDa/wBrWKc/aLIbmA/2o/vD8MivrGyvLXUbRLrTrmG6t5BlJYXDKw+oqbcRRCvOGg5UoT1PgYgqxVgQQcEEYIpK+0fFHw38KeMAz6zpUf2kji7tz5Uo/wCBDr+Oa8a8V/s4anYxyXPhPUBqUa8i1uAI5cegb7rH64rshioS30OSWHkttTxOlqa6tLixu5bW9hkguIWKSRSLtZGHUEVEBmuq5z2EpK7Dwb8MfE3jj97pFosVkGw17dEpFn2OMsfoD+Ferab+zLZLGDrHiS4kkxytpbqgH4sTn8qxlXpxdmzSNKctkfPWaSvoy+/Zl0p4j/ZniK9hk7faIEkX/wAd215Z40+EfifwTG91d263unKeb21yyr/vL1X+XvRGvTnomEqM4q7Rw1FKRiitjISiiimAUUUUCCiiigYUUUUAFFFFIAooooAKWkpKAHUCkpaLDNnw14n1bwpq8eo6HdvbzIQWQH5JR/dZejA//qwa+3rWWSazhlmj8qSSNWePOdhIyR+HSvlD4JeCz4r8cRXd3Fu03SitxOSPld8/u0/EjJ9l96+s8+tebimm7I7sPezbFpKKK4jsCiiigAooooAKKKKACiiigAooooAKKKKACiiigAooooAKKKKACiiigAooooAO1FHaigQtJS0lAwooooAKKKKACiiigAooooAKKKKACiiigAooooAKKKKACiiigAooooAKKKKACiiigArw39oTwAbyzXxhpcWZrdRHfoo+9H0WT/gPQ+2PSvcqjmhiubeSC4jWSKVSjowyGUjBBq6c3CV0ROKnGzPgk0ldr8UvAkvgTxfLaxqzabc5lspD/czyhPqvT6YNcVXsxkpK6PJlFxdmFJRRWhIUUUUALXrv7P3gyLXfFE2u6hEJLTSNpiVhw9w33T77QC31K15DX1p8BdOjsvhHYSoMPezTXEh9TvKD9EFcuJlyw9TehHmnr0PReT16mvNPHfxv0HwdfSabYwtrOpwttmjhlCRQn+6z4PzewBx3xXS/ErX5/C3w41nV7Jtt1DAEgb+47sEDfhuz+FfF5Jyckk55JOST61x4eiqjbex1V6rgrRPdLf8AacuxOPtfheBos8+VekMB+KEH9K9h8GeO9F8c6Y13okzboiBPbSjEkJPTI9D2I4P4V8Uius+GniW48LfEHS72BysM0621ygPDxOwBB+nBHuBXTUw0be6YU68r+8fZ+aaaM4OD2rxz4w/FXxB4J8QW+laJDZKk9oJ/PmjZ3BLMuAMgdvSvPjBzlyo7pTUFdnsfPaqeo6rp+kwmbVr+1sYh/HczLGP1Ir4/1b4o+NtaUre+JLwIf4LYiAfT92Bn8a5SSR5pTLM7SyMcl5GLMfxNdUcG3uzmlil0R9cap8bPAWmb1/twXsi/8s7OB5M/Rsbf1rjNU/aZ02PK6L4durj0e7nWIfku7+dfPBNJW8cJTW5i8RNnquq/tDeM77cun/YNLQ9DDb+Y4/F8j9K4LXPFeveJZN+vavd33OQksnyL9EGFH4CsejNbxpQjsjFzlLdgTSUUVoSFFFFAgrt/g/8A8ld8Pf8AXw3/AKLauIrt/g9/yV7w9/18N/6LaoqfAy4fEj7Cr5o/aT/5HrS/+waP/RjV9L180ftJ/wDI96X/ANg0f+jGry8N/FR6GI/hnjtFFFeweYFLSUUAOFelfCD4nv4H1b+z9Vdn0K8f94Ov2Zzx5gHp6j8e3PmlKKznBTVmXCTi7o+9beeO5t45reRZYZVDxyIcqykZBB7jFc5448AaP4+0pbTVt8MsJ3QXUOPMiPcDPUHuDXD/ALO93r1z4NuU1Ih9It5fK093Hz56uoPdASMe5I7YHsFeRL93PR7HpxaqR16njS/s1eGBHh9Z1hn/ALwaID8tlc7r/wCzTdQwvL4a1xbpxyLe8i8sn6Opxn6gV9Bu6q213VW7AnBpTkdatV6id7k+xptbHwtrOhan4e1SXTtas5bO6i+9HIOo9QehHuOKoV9n+P8AwHp3j3w+9neBYryME2l2B80L/wBVPcV8e6xpV3oesXWmalEYrq1kMcqH1Hcex6ivQo1lVXmcVWk4PyKNLmikrcxFopKXNIDU0HxNrfhe7+0+H9TuLGTPzCNvlf8A3lPyn8RXsfhX9pGePZb+MtMWZehvLLhvqYzwfwP4V4Rmisp0oz3RpGpKOzPt7w74u0Dxbbed4e1SC8AGWjU7ZE/3kPI/Ktscda+CoJ5rW4Se1leCaM5SSNirKfUEciu6sfjd4+sLH7LHrYmULtWS4to5JF/4ERkn65rjnhX9lnVHErqjb/aMSzX4kW5tdv2hrBDdBf725tuffbj8MVS+Dnw1j8bazLe6ujf2Np5HmqDj7RIeRHn0xyfbA7157e6hdalfz32o3ElzdTuZJZpGyzn1Jr7D+Gnh9PDfw50exVAsr263FwcctLINzZ+mQPoBWtRunSUTOmlVqOTOmt4YrW2jt7WJIIIlCRxRqFVFHQADoKfJKkKb5nWNf7ztgVzHxE8ZxeA/Btxq7Is1yWEFpCx4klbOM+wAJPsK+Q9e8Q6t4m1B73Xr+a+uHOcyN8qeyr0UewrlpUXU16HTUqqnofckUsc674JElX1RgR+lOdVkjaORVdGBVlYZBHoRXwrouuap4dv1vdCv5rG4U53QtgN7EdCPYivrH4VfEAePvC5nuVSLU7NhFeRpwCSPldR6Ng/QginUoOnqKnWU9Dxn41/DCLwnfDXdCi26RdybZIVHFtKew/2T29Dx6V5LX3H4o0KHxN4V1HRrkAreQMik/wALdVb8GANfD80LwTyQyjEkblHHoQcGuvDVHNWfQ5q8FF3XUjopcUldhyhRRRQIKKKKACiiigAooooAKKKKBhRiiigQVPZ2lxf30FnZxNNcXEixRRr1dmOAPzNQivd/2evABmuG8ZapFiOPdFpyOPvN0eX8OVH/AAL2rKpPljc1pw5nY9b+Hng2DwN4OtdJi2tckebdyr/y1lIGT9BwB7AV1NFFeTN3PTirIKKKKyNAooooAKKKKACiiigAooooAKKKKACiiigAooooAKKKKACiiigAooooAKKKKACiiigQtFFFAxKKKKACiiigAooooAKKKKACiiigAooooAKKKKACiiigAooooAKKKKACiiigAooooAKKKKAOW+Ifgq28d+EZ9Ll2x3S/vLScj/Vyjp+B6H618bajYXWl6lcWGoQtBdW0hjljYcqw4NfeVeLfHr4bHWLFvFmiw7r60jxexIOZoh/GP9pR+Y+ldeGq8r5XsctenzLmR82UUUV6p5wUUUtAAOa+sfgFqKX3wns4FPzWNxNbuPT5t4/RxXz34B+HWs+PtTEWnp5FjG4FzfSL8kQ9B/ebH8I/HA5r6w8H+D9J8EaCNL0RHEZfzJZZW3PLJgAsew4A4GBXn4qpFrl6nZh4SvzdCj8U9Cn8SfDHWtOslL3DQiWJB1Zo2D4/HbivjDkE5BB9D2r77zXkHj74Caf4m1GbVPD14mlXsxLzQyIWhlY/xccoT3xke1Z4atGF4yNa9Jz1R8x10/w60GfxJ8QdH0+3QsPtKTTHHCRIQzk/gMfUiu7tf2a/FD3QW91bSYIM/NJG8kjY9l2j+de0+A/h1o3w/wBPeLTA9xeTgC4vZgN8mP4QP4Vz2H45roq4mCjaOrOenQk3rsdaTkk18wftF3iT/Ei3t0OWtdOjR/YszN/IivpbUL+10vTbi/1CZYLW2jMksjHhVHWvivxh4il8V+LtS1uddpvJiyJ/cQDCL+CgVzYSLc+Y6cTJKNjEozRRXqHnBmkoopiCiiigAooooAKKKKACu5+Dn/JX/D3/AF3f/wBFPXD13Hwb/wCSveH/APrs/wD6LesqnwMuHxI+wfSvmf8AaT/5HzS/+waP/RjV9MDtXzP+0n/yP2mf9g0f+jXrzMN/FR6OI/hs8dooFLXsHliUuKKUKWYBRkk4AHegBtLnAOOtTXFrcWkgju4JYHI3BZUKkj1waiHHPpzSewz7d8F6PHoHgjRtLiUKLe0jDY7uRuY/ixJrm/jH46n8EeDFfTGCanqEvkWzkZ8oAZeTHcgYA92FdppdxHd6PZXMJBjmto5EI7goCK8h/aV0ua58L6RqcQLR2Vy8cuP4RIowfzTH4141NKVVJnqVLxg7HzpdXE15cPPeTSXE0jFnllYszH1JPWvQvhd8U9T8Ia1bWOo3Ml1oU8gjlhlYt9nycb0J6Y7joRnvzXnANW9MsbjVNVtNPskMlxdTJDGoHUscV6k4Raszz4ylF6H3aPbn39a+bv2ktFjtPFmmavEoU39s0cuP4mjIwf8AvlgPwr6Pij8qJI87tihc+uBivBP2m7mMv4btQQZFFxKR3CnYB/I/lXm0HaqrHdW/hs8EopKK9c8wWkpaSmAUUUUALmikopDFPT2r71tCj2Vu0WChiQrj02jFfBPUEV9kfCfxLF4m+GulXCuGntYRZ3K55V4wF5+o2n8a4sUtEzrwz1aOD/abjm/4R3QJFB8hbyQOe24oNv6Bq+dK+2/GvhOz8beFbnRr9jGJMPFMoyYpB91h/h3BNfJXij4d+JfCV9JBqemTtEDhLqCMvFIPUMOn0OD7UYWpHl5eoYiD5uY5mvbf2aVuP+Em1spu+zfYkEnpv8z5fxxurzLw74F8S+J71LfSNIupNxw00kZSJB6s54FfVnw58C2vgHwuunwuJ7yZvNvLkDHmPjoP9kdB+J70YmpFR5VuKhTblfodavUY9a+HfFOx/GmuGH/VtqNwUx6eY2K+zfEuvW3hjwzf6zeHEVnCZMf326Ko9yxA/GviOF1n1CI3rkJLKDO+eQC3zH9TWeEW8i8U9omrpngnxPrWnfb9I0HULy0yQJoYCVbHXHr+FZV9p17pk5g1K0ns5R1S4iMbfka+6bSCG0tIbeyjSG1hjVIY4xhVQDgD2xTb6wstUtjb6nZwXkLdY54w4/I01i5J6oPqytufCFJX1jrvwG8EayGa0tZ9Imb+OzlO3P8AuNkflivNte/Zt12z3SeHtUtdSQdIpx5Mn58qf0reOJpvfQxlh5o8Xore13wR4m8NMf7b0S9tUH/LUx74z/wNcisEHI45+ldKkpLQwcWtwopa3vDngfxJ4tfHh/SLi6jBwZsbIl+rtgfrSlJR3YKLb0MGkr122/Zv8XzRB577SLdiPuNM7EfkmKzdX+AXjnS4mkt7W11NFGSLOfLf98sFJrP21O9rl+yn2PNKKmurO5sbqS2vYJbeeI7ZIpUKsh9CD0qLFa3uRYSloq1p2n3erapbafpsDXF3dSCOKJerMf5fXsKG7K4JHR/DfwNcePfF0OnLuSxhxLfTj+CPPQH+83Qfie1fY9jY22m2FvZWMKwW1vGsUUSDARQMACua+HPga18A+E4dNh2y3kuJb24A/wBbKRzj/ZHQD0HqTXW15lapzO56NKnyoSg0tJXI2dAUUUUhhRRRQAUUUUAFFFFABRRRQAUUUUAFFFFABRRRQAUUUUAFFFFABRRRQAUUUUAHaijtRQAtFFFACUUUUAFFFFABRRRQAUUUUAFFFFABRRRQAUUUUAFFFFABRRRQAUUUUAFFFFABRRRQAUUUUAFJ14IyPQ0tJQB8u/Gz4Ynwrqza9osONGvZPnjUcWsp/h9lPb06eleT1946lptnrGl3GnanAtxaXMZjljbowP8AX37V8i+PfhnqvhDxgmlWlvPfW96xOnSRoWaYf3MD+MdD+B716WGrXXLI4K1Gz5kcQa9W+F/wWvfFrQ6v4iWWx0ThkT7st2P9n+6v+137eo7H4ZfAZbCSLWPHUcc1wpDwaYCGSM9jIejH/Z6euele5AYAAAAAwAO1RWxP2YDpUOsirpumWWj6bDYaXax2lpAu2OGJcKo/x9+9JqurWGh6XNqGrXUdpaQLuklkOAP8T7Dk1leMvG+jeBtHN9rM4DsCLe1Q5knb0Uenqegr5R8d/EHWPHuqfaNUk8q1jYm3soz+7hHr/tN7n9K5qVGVR+RvUqxpq3U+hPDnx38I+INTlsriSTSX8wrbyXmAky9juHCn2P516ShWRA8bB0YZDKcg18D9eta2k+Kdf0FQui61f2KZz5cFwyp/3znH6V0ywn8rOeOJf2j7jxWXrviHSPDNg15r2oQWMA6GRvmf2VRyx9gK+Rp/il45uYvLl8U6jtPXZIEP5qAa5q6vLm+uWuL24muZ2+9LNIXY/ieamOElf3mXLFK2iPRvin8XLjxy/wDZulLJZ6HE+4I3D3LDoz+gHZfxPPTzImgmkruhBQVkccpOTuwooorUgKKXFJQAUUUUAFFFFABS0U6ON5ZFjjRnd2CqqjJYngADuaTYDfrXrnwW8A+JD430nxDcaVPbaXbszme4Hl7gY2A2qeWBJHIGK9F+FvwZsfDFpBq/ia3jvNccCRIpAGjs/QAdC47t2PT1PrHJ6151bE3vGJ20sPs5BXgP7Q3hLXNU1yy1nTNMuLuyt7LyppIF3lCHY8qOcYPXGK9/xRXLSm6cuZHXUgpx5WfAtL9a+nfif8EYPFU/9q+F/s9hqjv/AKQkh2xTg9WOBw3uBz9aseB/gZoPhgRXet7Na1NSG3Sp+5iP+ynf6t+Qr0Xi4ct1ucP1efNY8X8DfB/xH402XXlf2bpjc/a7lSN4/wBherfXge9fRXgz4X+GvBUSvYWgur7HzXtyA0mf9nsv4V14GAAOAOAPSqup6rYaLp732r3kFlaxjLSzuFA/xPsK4KladXQ6oUYQ1PLv2i9BhvPAcGshQLnTrlV345Mcnykf99bT+dfMleyfF34y2fi3SpfDvh22c6e0iPLezfK0u1sgInULkA5PJ9BXjXeu/CxlGnaRxV3GU7o+o/gT42i1/wAHRaHcygalpCeWEZuZIP4GH0+6foPWup+J8mmr8MNeGtuqW7Wjqmeplx+7C+p3ha+PtN1O90fUYb/S7mS1u4G3RzRHBU/1+nQ1q+J/HXiTxisC+I9Ue8S35jjEaRop9dqAAn3PNZSwrc+ZPQ1jiFycrWpzwB719A/s8+CtOfT28Y3Mn2i+WWS2toiPlt8Abm92IPHoD78fP1d78OPirqHw8Fzbx2iahYXLeY1s8hjKyYxuVsHGQACMc4Fb1oylG0TKnKMZXkfXbMqRs8jKiqCzMxwFA6kmvj34qeLV8Z+Pr2/tWLWMOLa0J7xr/F/wI5P4itXxx8bte8Zae+mwwx6Tp0gxLDBIXeYejOQOPYAe+axvhd4btfF/xD0/SdSz9jIeadVOC6opbZntk4B9s1jRpeyvOZdar7S0InHcZxkZ+tFfbs/g7w3d6OdLm0KwNiV2iFYFAUexAyD7jmvm34q/CW48DXB1HSzJdaHM+FduWtmPRX9R6N+B56608RGbs9BToOKvueaUlLRiuo5hKKXFJQAUUUUALXd/Cr4iy+APETNchpdIvcJeRKMlcdJFHqPTuM+1cHS1nOKkrMuMnF3R936bqVnq+nQ3+l3Md1azrujlibIYf57VbBI6HFfE3hbxz4i8GXBk8P6i8EbnMlu4DxSfVTxn3GD716jpv7TWoRQqur+HLa4k7yW1y0QP/ASrfzrzZ4aaemp3xxEHufRByepJqKeaG1t5J7qWOCGJS8ksjBVRR1JJ6CvAr39py4aErpvhiOKQjh7i9Lgf8BCDP515j4t+I/ibxp8mt6iTahty2cC+XCD/ALo+99WJpQws5PXQJYiCWmp1Xxm+KKeM75NI0ORv7Es5N3mYI+1SDjeR/dHOB759MeV9etBNFelCmoR5UcMpOTuz1TwT8edb8K6ZDpep2SaxY26hIS0vlyxKOi7sEMAOgIz716tov7QHgjVAq3811pEp4xdQllz/ALyZGPrivlWjFZSw8Jamka84n3XpWtaXrlv5+jala30X963lD4/LpV7BFfBNvNNaXCz2k0kEynKyRMUYfQjmu70L42eOtC2INWGowKMCK/jEv/j/AA/61zSwslszeOJXVH13nIIPIPUGuT1/4YeDvExZ9T0O3Wdv+W9sPJkz65XGfxzXnWgftK2M5WLxNoktoeAZ7OTzV+pU4I/AmvUvDnjjw34tU/2Bq9vdSBdxgyUlA9SjYbHvisHCcDdThPQ4XR/2efC+l+I11C4urrUbSP5o7C5Vdu7tuYfeA9MD3z0r1aKKO3hSG3jSKJBhI0UKqj0AHSn15z8T/i3Z+AVSwsoUv9amXeIGbCQKejSEc89lHJ9qm86krbsdoU432PRaMkV8jXvxt8f3lw0i66LVSciK2tYlVfYZUn8ya1dA/aB8X6ZKBq72+swd1liWJx9GQAfmDW31adjJYiF7Hqnx08G2Gt+CLvXBEkep6XH5iTgYMkYPzI3qOcj0I96+V69h+InxyXxd4T/sXRtOmslugPtskzAnAIOxMdiRyTjjjFeP4rsw8ZxhaRy15RlO8Q6cmvpX4E/DNtBsR4o12Dbqd5Hi1hcc28Rx8xHZ2/QcdyK4z4H/AAv/AOEgv4/E+vQf8Su1fNpDIOLmQH7xHdFP5n2Br6YrKtV6I1o07e8wpaKTNcEnc7EgoooqSgooooAKKKKACiiigAooooAKKKKACiiigAooooAKKKKACiiigAooooAKKKKACiiigA7UUdqKAFoopKACiiigAooooAKKKKACiiigAooooAKKKKACiiigAooooAKKKKACiiigAooooAKKKKACiiigAooooAKTAyDjkdD6UtFAgxXnPxL+L2meBoHsbAx6hrrD5bYHKQZ/ikI6f7vU+w5rtPEVrqN94bv7XRL37BqEsLLb3O3Plv2P9M9utfFGu6bqOj63dWOtxSxX8Uh88SnLMx53Z756575rpw9GNR6s569SUFoGu69qXiTVpdS1u8ku7uXq7/wjsqjoAPQVmmg0leqkkrI85u4tGaSimIXNFJRQAUUUtABRXR+EPAXiDxveGHQbIvEhxLdSnZDF9W9fYZNe8eFf2d/Dulok3iWeXWbnqYwTFCp+g5b8T+FYTrwho9zWFKU9j5mjR5pBHCrSOeioNx/IVsW/gzxRdqGtvDmrSqehWxkIP/jtfaOl6HpWiQiLR9MtLFAMYt4VT+Q5rQye5Nczxj6I6VhV1Z8UD4c+ND08Kax/4BP/AIUf8K48an/mVNY/8A3/AMK+180n40vrc+w/q0e58Vj4a+Nj/wAypq342rCoNS8B+K9HsWvNU8PahbWyffleA7V+uOn419t0jqroyuoZWGGVhkEehFL63PsH1WPc+Bq9U/Z/8Nxa38Qm1G6jEkGjw+eoIyPOY7Y8/T5mHuormfilotl4e+J2s6bpgCWscqvGg6R70Vyv0BbFeufsxwINA8QXAH7x7uOMn2VCR/6Ea6a0/wB1ddTClD95Z9D2/H514l8V/jdcaDqk/h7we0X2u3O27v3UOIn7xoDwWHcnIB4xmvZ9Qne00u6uYhl4YXkUepCkivg15XmcyysXkkJd2Y8sx5J/WuPD0lOTcuh04io4xSR1bfFDxw119o/4SrU9+c4875f++Pu/pXsPwl+NV1r+pxeH/FzRtezHba3qqEEzf3HUcBj2I69MZ6/OYNTWlzLZ3sF1bOUmgkWSN1OCrA5B/Ou2dGDjaxyQqyi7n3p1FQzyx28LzXEiQxRjc8kjBVUepJ6U6J2eFHYYZlBI9CRXgX7S93dx3eg2guZVtJopnaAOQjurKNxHfAPevMhDnnynoznyR5jb8b/tA6VpIey8IImrXgypunyLeM+3d/wwPc14F4i8U6z4q1A3mv6hLeS/wBzhIx6Ko4UfSsgmkr1KdGNPY86pUlPcUmm0UVuZBRRRQAUUlFAC1s+E/Edz4S8VWGuWKh5LSTc0bHAkQjDofTKkjPbrWNSipkrqw07O59w+FvE+meLtBh1bRJ/NgkGGQ8PE3dHHYj/64yK07yzttRsZrO+gS4tp0KSxSDKup6g18X+CfHOr+BNbF/pEm6J8C5tXP7u4X0I7H0PUfmD9beD/ABlpXjfQk1PRpfRZ7dyPMgf+6w/kehry61Jwdz0aVRTXmfN3xY+FNx4GvzqGlrJPoVw+I3PJt2P/ACzb+h7/AFrzavvG/sLTVdPnsdRgS4tbhDHLFIMh1PavKdK/Z18NWevXF3qV3cahYls21i3yBB6O4OWx7Y963pYpKNpmNSg2/dPmPIzjPPpQTj7xx9eK+5tM8NaHosQj0jR7GzUf88bdVJ+pxk1cubG0vIjFeWsFxGeqSxKwP4EU/rmuwLC6as+DqSvqnxj8B/DXiCCSbQoxol/1Uwg+S59Gj6D6rj8a+bvEvhjVPCetS6Xrds0FxHyD1WRezKe4NdFOtGptuYVKUobmPSig0lbGI6kpKKAFozSUUAFFFFABRRRQAuaM0lGaBi5r2r9mmzjk8Va1eMoMkFkiIfTe/P8A6CK8Ur2D9nDVUtPHl/p8rBft9ifLB/idGDY/75LH8Kwr39mzWjb2iPpockD3r4e8Warca14w1bUbxi01xdyMc9gGIVfoAAPwr7gB6V8c/Fbwy/hf4janbbCtvcyG6tzjgo5JwPocj8K5MJbnZ1Ym/KjjaKSlxXonAKK9E+FHwwn8e6t9qvlkh0K1f9/KODO3B8tT/M9h7kVR+Gfw2vviBrW0b7fSrdh9ru8dO+xfVj+nU9gfrjSdKsdD0m30zSrdLa0tkCRxoOg/qT1J6k1y1qtvdR00aXN7zJrS1gsbOG0s4Ugt4EEcUUYwqKBgAD0xU1Apa86UjvSEoooqCgooooAKKKKACiiigAooooAKKKKACiiigAooooAKKKKACiiigAooooAKKKKACiiigAooooAO1FFFAC0lLRQAlFFFABRRRQAUUUUAFFFFABRRRQAUUUUAFFFFABRRRQAUUUUAFFFFABRRRQAUUUUAFFFFABRRRQAUUUUAJXD/ABN+GVh8QdJypW11e3U/ZbrHX/Yf1U/p1HcHuaKcZOLuiZRUlZnwjrOjX/h/WLjS9Xtntry3bbJG4/Ig9weoI61Rr7J+I3w20z4haSI7jFrqUCn7LequSn+y395T6duor5N8TeGNW8I63Lpeu2zQXCcq3VJV7Mh7ivXo1lUXmebUouD8jIoooroMLBS0VYsbC61O/hstPt5Lm6nYJHFEpZmPsKTaSuwSK4GSMcn0r2r4afAe41dYtX8apLaWRw0VgDtlmHq/dF9up9q7X4W/BS18LrDrHidI7zWeGjg4aO0P/sz+/QdvWvW8etebWxLfuw2O6lh7ayKthp9ppdjFZabbRWtrCu2OGFAqqPoKs9BnoO5Ncx42+IGh+A9O8/V599065gsojmWY/TsP9o8V8zeNviz4k8aySRT3JsNNY/LY2rFVx/tt1f8AHj2rCnRlU22NqlaMND6P8Q/FjwX4akeG/wBbhmuU629oDM+fQ7cgH6kVwN/+01pMcmNM8N31yv8AeuLhIf0AevnX6UV2xwsFucssRN7aHvTftPv/AA+ER+Opf/aqb/w09N28Jx/+DI//ABqvB6Kv6tT7Ee3qdz3tP2nnH3/CSn6al/8Aaqgv/wBpy9ks5E0zwxDb3DDCSz3plVT67RGufzrwuij6vT7B7efcsajqF1qupXF/qM7XF1cyGWaV+rsepr2z9mXWUi1LXdEkbDzxx3cQ9dpKv/6EteFVr+FfEd34S8UWOt6fzNaSbihPEiHhkPsRkVdSHNDlQqc+WVz7lYK6FXG5WGCD3FfGvxL8A3ngXxRPbtE7abO5eyuCPldCc7c/3l6Efj3r608OeI9O8U6Db6vo0wltp1zj+KNu6MOzCrOqaVp+t6fJY6vZw3lrJ96KZAyn39j715tKo6MjuqU1UifCPNd78JfAF1418V28ssLDR7GVZbycj5WxyIge5J6+gyfSvoCL4JfD2K689fD4Yg5Ecl1Kyf8AfJbFdtZ2Vrp9nHaWFtFa20QwkMKBFUewFb1MVdWijGGHd7yJic8180/tJapHdeNtN06NgzafZky4/haRs4/75Cn8a998WeKdN8HeHp9X1eQLHEMRRA/NPJ/CijuT+gya+MNf1q78Ra9e6vqL77m8lMsh7DPQD2AwB9KjC025cxeImkuUzaKKK9Q88KKKKBBRRRQAUYoopgJS0hopAOFdB4N8Y6p4J15NT0eT/Znt2PyTpn7rD+R6iuep2cciplFNWZSbTuj7f8J+JrLxh4ZtNa0wOsNwpyjj5o3Bwyn6EHnv1rZPFY3g7R4tA8F6RpkCBBb2kYYDu5XLn6liT+NcL8e/GFz4c8Fw6bp0jRXWsSNCZVOGSFQDJg9idyr9Ca8bl5p2R6vNyxuybxT8d/Cnhy8ks7Pz9auoyVf7GVESEdjITgn/AHQaydK/aS8N3dwseraTf6cjHHnKyzqvucYP5A1809OB0pRXesNC2pxPETufdum6nZavp0N/pV1Hd2k67opomyrD/PGO1cz8TPAtv478JzWuxV1G3BksZscq/wDdJ/ut0P4HtXiXwC8YT6R4yXw9cSFtP1YkIhPEc4GVYemQNp9ePSvpwGuOcXSnodcJKpE+C5opIJ3hmUpJGxV1YcqQcEUyu9+NWkR6P8WNVSBdsd0I7sAerrlv/Hga4KvVhLmimebNcrsFJS0lWQFFFFMAooooAKKKKACiiigAq/oesXfh/XbPVtOfZdWcoljPY46g+xGQfY1QoqWrqw07O59ueD/F2meNfD8OqaTIvzKBNAWG+B+6sP5HuOa8X/aR1fR7y60nT7SaOfVLQubgxnPlRkDCsfUnnHb8a8QhnmgYtBNJESMExuVyPTim8kknqetckMOoT5rnTOu5x5bCYrt/ht8M9R+IGq/LutdJt2H2q8x+OxPVj+nU9gbfwx+FF/48uxd3W+z0SJ8S3OMNKR1SPPU+p6D9K+qtI0iw0HSYNN0i2S1tLddscaD9T6k9yeTTrV7e7EKVHm95jND0PTvDejQaXo1sltaW64VF7nuxPcnuTWiKQClrzpSO9IWkooqCgooooAKKKKACiiigAooooAKKKKACiiigAooooAKKKKACiiigAooooAKKKKACiiigAooooAKKKKACiiigBaKKKAEooooAKKKKACiiigAooooAKKKKACiiigAooooAKKKKACiiigAooooAKKKKACiiigAooooAKKKKACiiigAooooAKwfF/g3R/G+iNpuuQb1HMM6cSQN/eU/06Gt6kpptO6E0mrM+NPH/AMONX8Aap5V8puLCVsW1+i4SQeh/ut7flmuQr7w1XSrHXNLn07VrWO6tJ12yRSDIP+B9CORXz74h/Zx1NPEsK+Gr2OTSLiT53uW/eWi98/3x6Y59fWvRpYpNWmcNSg07xPJfD3hzVPFOtRaXodq1zcyckDhUXuzHsB619WfDb4X6Z8P9P3jbeaxMuLi9Zeg/uJ/dX9T37Aa/gvwPo/gXRxY6ND874M9zJzJO3qx9PQDgV0TskUbSSMqIoyzMcBR6k1y1q7qO3Q3pUVDV7jgK8q+KHxosvCSy6R4daK+1v7rv96K0/wB7+8/+z27+h5T4pfHTzPP0LwPOQnKXGqIcE+qxf/F/l614MzZJ755JPetaOH5vemZVa9tIlrU9UvdY1Ka/1S6ku7udt0k0rZZj/Qeg6CqdFJXopWVkcQUUUUxBRRRQAUUUUAFKKbS0DOl8G+PNd8C6i1zodwvlSEefayjdFN9R2PuOa938P/tF+GNQiVfEFtdaPPj5mCGeLPsVG781r5kpa56lCM9WawrShoj6/Pxn+Hwj3/8ACSw49BbzZ/LZmuX8RftGeHbGJk8OWdzq1xj5XkQwRD6lhuP5fjXzRRWawsE9TR4mbWhveLPGes+NNU+3a7deay5EMKDbHCp7Kvb69T3NYBNFJXVGKirI5229woooqiQooooAKKKKACiiigANJS0UwClzgZpBRSYz7z0+dLrTLW4iOUmgSRSO4KgivE/2mtOmfS9A1FFJhgmmhkI7FwpX/wBANdb8EPFieI/h3a2kjg3ukAWkyk8lB/q2+hXj6qa7PxL4dsPFfh260fVULW9wuMr95GHRh7g15Cfs6l30PTa9pDTqfDFKK7zxd8H/ABV4XvpFi0641Syz+7u7OIyBh/tKMlT9ePesfSPh74t1u7WCw8PagSxwXmgaJF+rMABXpe0p2vc4OSSdrGj8I7CbUPitoCQKT5Nz9ocj+FEBYk/y/GvsKvPvhT8Lovh/YS3N7Kl1rN2oWaVPuQp18tD355J74HpXe3d1BYWU95eSLDb26GSWRjgKoGSa8yvU9pLQ76MOSOp8t/tA3CT/ABXnjQjNvZwRv9SC38mFeYVs+Lddl8S+LdT1mcENe3DSKp/hToq/goArGr1KUeWCR59R80mwpKWkrUzCiiigAooooAKKKKACiiloASilqa0s7i/vIrSxgkuLiZgkcUSlmcnsAKTaSGQj3r2L4XfBG58Q+TrPi2OW00k4eK1Pyy3Q7E91Q+vU9sda7H4X/AyDRGh1rxnHHdaguHgsMho7c9i/ZmHp0HucY9n69a8+tiL6QOylQ6yIbW1t7K0itbKCO3t4VCRxRqFVFHQACpgKMUtcTZ22CiiipGFFFFABRRRQAUUUUAFFFFABRRRQAUUUUAFFFFABRRRQAUUUUAFFFFABRRRQAUUUUAFFFFABRRRQAUUUUAFFHaigBaKKKAENFLSUAFFFFABRRRQAUUUUAFFFFABRRRQAUUUUAFFFFABRRRQAUUUUAFFFFABRRRQAUUUUAFFFFABRRRQAUUUUAFFFFABSUtFACV8u/Fz4ral4m1C60GwS403SraQxyxSKUluGB/jHZfRfxPt9RVxfjz4X6F48ty94htNRVcRX0K/OPZh/GPY/gRWtGUIyvJGNaEpRtFnx0TTa67xv8NfEPgS5P9qW5msS2Ir+AZif0z3U+x/DNcjXsRkpK6PMlFp2YUUUVZIUUUUAFFFFAgooooGFFFFABS0lFIBc0UlFABRRRQAUUUUAFFFFABRRRQAUUUUAFFFFMBKWkpRQB03gPxrfeBPE8Wq2I82Ijy7q3JwJ488j2PcHsa+vfDPijSvF2jx6loV0s8Lj5lzh4m7q69iP/wBVfDorS0TxBq/hvUBe6FqE1jcDgtE3DD0YHhh7EGuStQU9VudNKs4aPY+6MkdKOT1NfNGjftJeIrSMR61pdlqWBjzIyYHPucZH5AVrTftOymP/AEfwsofHV77I/SOuF4ep2OtV6fc+gcVkeKvDtv4r8L3ui3ckkUV0mPMjPKMCCp98EDjvXifhr9o++l8RJH4psLOHSpjtMlqr77f0Y5J3D1AAPceh+gLe4iureO4tpUmhlUPHJG25XUjIIPcVEqc6b1KjONRaHxH4s8M6j4S8Q3GlavEUmjOUcD5Zk7Op7g/p0rEr7Q+IPgDTvH+gNZ3mIbuLLWl2B80Tf1U9xXyH4i8Paj4X1y40nWIDDcwHB/uuOzKe4PrXp0ayqLXc4atLkd1sZdJS0ldBzhRRRTEFFFFABRS0UDCinJG8sixxqzuxwqqMlj6AV7R8PfgDe6oYtS8a+ZYWfDJYKcTSj/bP8A9vvfSsqlWNNamkKcpuyPOvBngLXPHOpfZtEtv3SEefdy5WKEe57n2HNfUXw/8AhjovgCz3Wi/a9TkXE1/Ko3H1VB/CvsOT3JrqNM0ux0bTorDSrSKztIRhIYl2qP8AE+9W68yrWlU32O+nRjDXqLRRRXObhRRRQMKKKKACiiigAooooAKKKKACiiigAooooAKKKKACiiigAooooAKKKKACiiigAooooAKKKKACiiigAooooAKKKKACiiigBaKKKAA0lKaSgAooooAKKKKACiiigAooooAKKKKACiiigAooooAKKKKACiiigAooooAKKKKACiiigAooooAKKKKACiiigAooooAKKKKAEopaSgCOeCG7t5Le6iSaGRdrxyKGVh6EHrXivjr9niyv2lvvBM62E5+Y2ExJhY/7DdU+nI+le3YpauFSUHeJE4RmtT4V1zw9q3hrUmsNdsJrK4Xosq8MPVT0Ye4NZ1fdetaFpfiPTXsNcsYb22b+CVc4PqD1B9xXhnjP9nGWPzLvwReeavX+z7tvmHsknf6N+dehTxUZaS0OKeHktVqeDUVd1XRtS0K/ay1mynsrlOscyFSfcdiPcVSrsTT2OVoKKKKZIUUUUAFFFFABRRRQMKKKKACiiigAooooAKKKKACiiigAooooAKKKKACiiigApc0lFIBaSijNACivWvg78Wm8JXCaF4hlZ9Dmb91KeTZuT1/3D3Hbr615JS1nOCkrM0hNxd0ffEMyTQpLC6yRyKGR0bKsDyCD3Fch8SPh1Y/EDQjDIVt9StwTaXePun+63qp/TrXivwc+Lh8MzReH/EsxbRpGxb3DnJs2J6H/AKZn9OvTNfTUcivGroyujAFWU5BB6EGvLlGVKWh6MZRqRPhXWtFv/D+sXGl6tbtb3ds22RG/Qg9weoPes+vsL4nfDOy+IGj7o9ltq9up+y3RHX/pm/qp/Tr618latpN9omrXGm6rbvbXds+ySNx0Pr7g9Qe9ejRrKovM4atJwfkUqKXFFdBgJS0V03hL4feI/GtwF0PT2aAHD3c3yQp/wI9foMmplJRV2xqLeiOZ+tdv4I+E/iTxuyTWsH2HTSfmvroFVI/2B1c/Tj3r3DwT8B/D3hvy7vXdut6ivzDzVxBGf9lP4vq2foK9SVQqhVAVVGAAMACuCpintA7KeG6yOL8D/Cvw74GjWWzg+2aljD39yAX/AOAjog+nPqTXa4oxS1wuTbuzsUVFWQlLRRSKCiiigAooooAKKKKACiiigAooooAKKKKACiiigAooooAKKKKACiiigAooooAKKKKACiiigAooooAKKKKACiiigAooooAKKKKACijtRQAtFFFACGig0UAFFFFABRRRQAUUUUAFFFFABRRRQAUUUUAFFFFABRRRQAUUUUAFFFFABRRRQAUUUUAFFFFABRRRQAUUUUAFFFFABRRRQAUUUUAFFFFACUUtFAGbrfh/SPEtg1lr2nwX1ueiyrkqfUHqD7ivF/Fn7Nsb+Zc+DNSMZ6iyvTlfosnUfiD9a95pa0hUnDZmc6cZ7nw74i8Ia/4UufJ8QaXcWZzhZHXMb/RxwfzrGxivve4t4Ly3eC7hjnhcYaOVAysPcGvM/E/wB8I65vl0tZdEuW5zandET7xngfhiu2GLX2kck8M/snynRXp/iX4B+MND3y6dFHrVsvO+1OJMe8Z5/ImvNrq0uLG5a3vbeW2mU4aKZCjD8DXXGpGezOaUJR3RDRRRWhAUUUUAFFFFAgooooAKKKKACiiigAooooAKKKKACiiigAooooGFFFFABSUtFIBKWiigYvXrXs/wa+Lp0J4fDfii4J0tjttLuQ/8ep/uMf7nv/D9OnjAp3XrWU6amrM0hNwd0fe6sGUFSCpGQR3Fef8AxW+GNv470j7TZKkOt2qf6PKeBMvXy2Poex7H2zXn/wADPihc/aYPCGuNJPG3y2FxgsY/+mbf7Poe3Tp0+gh0ry5KVGZ6EXGrE+Cru1nsbyW0vInguIXMckUgwyMDggj1rsfCnwi8XeLdkttp5sbNv+Xq+zGpHqB95vwGPevq5vCugPrz61Jo9m+pyABrp4QznAwOT0OO/WtWuiWLbXuoxjhl1Z5X4R+APhjQdlxre7XLxef342wqfaMdf+BE16jDDFbwpDBGkUSDCIihVUegA6VJRXHKUpO7Z0xhGOwlLRRUlhRRRQAUUUUAFFFFABRRRQAUUUUAFFFFABRRRQAUUUUAFFFFABRRRQAUUUUAFFFFABRRRQAUUUUAFFFFABRRRQAUUUUAFFFFABRRRQAUUUUAFFHaigBaKKKAEooooAKKKKACiiigAooooAKKKKACiiigAooooAKKKKACiiigAooooAKKKKACiiigAooooAKKKKACiiigAooooAKKKKACiiigAooooAKKKKACiiigAooooAKSlooASs/V9B0jxBam31zTba/iP8M8QbH0PUfhWjSU02tgdmeSa/8As6+FdS3SaLc3ejyHoqt50X/fLcj8682139nnxfpm59Ka01iIdPJk8uT/AL5bj8jX1JS1tHEVI9TGVCEj4W1fw5rOgymPWtKvLFgcfv4SoP0PQ/nWb9Dn6V99OiyxmOVVdGGCrDIP4GuT1n4V+CdeLPf+HrVJW/5a2wMDfXKYrpjjP5kc8sL2Z8YUtfSerfs06BcMW0bWr6xJ6JOqzqP5GuN1P9m7xTa5Ol6hpuoKOgLNCx/Agj9a3jiab6mMqE10PHsUYrstS+EfjvS8m48N3kij+K22zD/x0k1y95peoacxXULG6tWHUTwMn8xWyqQezMnCS3RVxRRkdmB/GirJsJRS0ZoASilzRQISilozQAlLijNFAwxRiijgdTQAYoqe2srq9kCWVtNcOeiwxlz+ldJp3wv8baqR9k8M6gAejTReSPzfFQ5xW7KUZPZHKUV6xpn7OnjK8wb+XTtOU9RLOZGH4ICP1rsdK/Zm02La2t+Ibm4PeO0hEY/Nsn9KxeJprqaKjN9D52q3p2k6jq84h0mwub2U/wAFvC0h/QV9caN8HPAui7Wh0KK7kX/lpfOZifwPy/pXZ21rb2UIhsreK2iXokKBFH4CsZYz+VG0cK+rPlfQPgF4z1ja9/Db6PCec3cmXx/uLk/nivUfDv7O/hfTNsuuXF1rMw6ozeTFn/dX5j+LV63ilrmliKkupvGhCJR0rRNL0O2+z6Np1rYRd0t4gmfrjr+NXjRRXObpJbBRRRQMKKKKACiiigAooooAKKKKACiiigAooooAKKKKACiiigAooooAKKKKACiiigAooooAKKKKACiiigAooooAKKKKACiiigAooooAKKKKACiiigAooooAKKKKADtRR2ooAWiiigBKKKKACiiigAooooAKKKKACiiigAooooAKKKKACiiigAooooAKKKKACiiigAooooAKKKKACiiigAooooAKKKKACiiigAooooAKKKKACiiigAooooAKKKKACiiigAooooAKKKKACiiigAooooAM46UMN4w43A9QwzRRQBk3vhTw7qWf7Q0DTLknqZLRCfzxWDdfB/wBeEmTwzaoT3hd4/8A0FhXaUU1Jolxi90eZ3P7P3gKfPlWt/bf9cr1jj/vrNZ0v7NvhB/9VqOsx/8AbaNv/ZK9dorRVZrqR7KHY8Xk/Zm8PH/Va9qif7yRt/QVA37Mmk/weJb4fW2Q/wBa9vop+3qdxexp9jw4fsx6Z38T3n/gIn/xVTJ+zLoY/wBZ4i1Fv92GMf417XRT9vU7i9hT7Hj0P7NfhRP9dqusSfR4l/8AZK0rf9nvwJDjzYdRuP8ArpeEf+ggV6fRUutUfUfsafY4e1+DXw/tMFPDkMhHeeaST+bYrcs/BPhawwbPw3pURHRhZoT+ZGa3KKhyb3ZahFbIbFGkCBIEWJR0VFCgfgKd160UVJQUUUUDCiiigAooooAKKKKACiiigAooooAKKKKACiiigAooooAKKKKACiiigAooooAKKKKACiiigAooooAKKKKACiiigAooooAKKKKACiiigAooooAKKKKACiiigAooooAKKKKACiiigAooooAO1FHaigBaKKKAEooooAKKKKACiiigAooooAKKKKACiiigAooooAKKKKACiiigAooooAKKKKACiiigAooooAKKKKACiiigAooooAKKKKACiiigAooooAKKKKACiiigAooooAKKKKACiiigAooooAKKKKACiiigAooooAKKKKACiiigAooooAKKKKACiiigAooooAKKKKACiiigAooooAKKKKACiiigAooooAKKKKACiiigAooooAKKKKACiiigAooooAKKKKACiiigAooooAKKKKACiiigAooooAKKKKACiiigAooooAKKKKACiiigAooooAKKKKACiiigAooooAKKKKACijtRQAtFFFACUUUUAFFFFABRRRQAUUUUAFFFFABRRRQAUUUUAFFFFABRRRQAUUUUAFFFFABRRRQAUUUUAFFFFABRRRQAUUUUAFFFFABRRRQAUUUUAFFFFABRRRQAUUUUAFFFFABRRRQAUUUUAFFFFABRRRQAUUUUAFFFFABRRRQAUUUUAFFFFABRRRQAUUUUAFFFFABRRRQAUUUUAFFFFABRRRQAUUUUAFFFFABRRRQAUUUUAFFFFABRRRQAUUUUAFFFFABRRRQAUUUUAFFFFABRRRQAUUUUAFFFFABRRRQAUUUUAFFFFABRRRQAUUUUAFFFFABRRRQAUUUUAFFFFABRR2ooAWiiigBKKKKACiiigAooooAKKKKACiiigAooooAKKKKACiiigAooooAKKKKACiiigAooooAKKKKACiiigAooooAKKKKACiiigAooooAKKKKACiiigAooooAKKKKACiiigAooooAKKKKACiiigAooooAKKKKACiiigAooooAKKKKACiiigAooooAKKKKACiiigAooooAKKKKACiiigAooooAKKKKACiiigAooooAKKKKACiiigAooooAKKKKACiiigAooooAKKKKACiiigAooooAKKKKACiiigAooooAKKKKACiiigAooooAKKKKACiiigAooooAKKKKACiiigAooooAWiiigBKKKKACiiigAooooAKKKKACiiigAooooAKKKKACiiigAooooAKKKKACiiigAooooAKKKKACiiigAooooAKKKKACiiigAooooAKKKKACiiigAooooAKKKKACiiigAooooAKKKKACiiigAooooAKKKKACiiigAooooAKKKKACiiigAooooAKKKKACiiigAooooAKKKKACiiigAooooAKKKKACiiigAooooAKKKKACiiigAooooAKKKKACiiigAooooAKKKKACiiigAooooAKKKKACiiigAooooAKKKKACiiigAooooAKKKKACiiigAooooAKKKKACiiigAooooELRRRQMSiiigAooooAKKKKACiiigAooooAKKKKACiiigAooooAKKKKACiiigAooooAKKKKACiiigAooooAKKKKACiiigAooooAKKKKACiiigAooooAKKKKACiiigAooooAKKKKACiiigAooooAKKKKACiiigAooooAKKKKACiiigAooooAKKKKACiiigAooooAKKKKACiiigAooooAKKKKACiiigAooooAKKKKACiiigAooooAKKKKACiiigAooooAKKKKACiiigAooooAKKKKACiiigAooooAKKKKACiiigAooooAKKKKACiiigAooooAKKKKACiiigAooooAO1FLSUCFooooGJRRRQAUUUUAFFFFABRRRQAUUUUAFFFFABRRRQAUUUUAFFFFABRRRQAUUUUAFFFFABRRRQAUUUUAFFFFABRRRQAUUUUAFFFFABRRRQAUUUUAFFFFABRRRQAUUUUAFFFFABRRRQAUUUUAFFFFABRRRQAUUUUAFFFFABRRRQAUUUUAFFFFABRRRQAUUUUAFFFFABRRRQAUUUUAFFFFABRRRQAUUUUAFFFFABRRRQAUUUUAFFFFABRRRQIKKKKBhRRRQAUUUUAFFFFABRRRQAUUUUAFFFFABRRRQAUUUUAFFFFABRRRQAUUUUAFFFFABRRRQAUUUUAFFFFAC0lHaigQtFFFAxKKWigQlFLRQAmKMUtFACYoxS0UAJRilooATFLRRQAUUUUAFFFFACYoxS0UAJijFLRQAmKMUtFABijFFFABikxS0UAJijFLRQAmKMUtFACYoxS0UAJijFLRQAmKMUtFABRRRQAmKMUtFACYoxS0UAJijFLRQAmKMUtFACYoxS0UAJijFLRQAmKMUtFACYoxS0UAJijFLRQAmKMUtFACYoxS0UAJijFLRQAmKKWigBMUYpaKAExRilooATFGKWigBMUYpaKAExS4oooAKTFLRQAmKMUtFACYoxS0UAJijFLRQAmKMUtFACYoxS0UAJijFLRQAmKWiigAooooATFGKWigBMUYpaKAExRilooATFGKWigBMUYpaKAExRilooATFGKWigBMUtFFABRRRQAUmKWigBMUUtFACYoxS0UAJRilooATFLRRQAUUUUAJRS0UDE7UUtJQAtFLiigQlFLikxQAUUYpaAEopaKAEopaKAEopaKAEopaKAEopaKAEopaKAEopaKAEopaKAEoxS0UAJiilooATFFLRQAlFLRQAlFLRQAlFLRQAlFLRQAlFLRQAlFLRQAlFLRQAlFLRQAlFLRQAlFLRQAlFLRQAlFLRQAlFLRQAlFLRQAlFLRQAlFLRQAlFLRQAlFLRQAlFLRQAlFLRQAlFLRQAlFLRQAlFLRQAlFLRQAlFLRQAlFLRQAlFLRQAlFLRQAlFLRQAlFLRQAlGKWigBMUYpaKAEopaKAEopaKAEopaKAExRilooATFFLRQAlFLRQAlFLRQAlFLRQAmKMUtFACYoxS0UAJRS0UAJRS0UAJRS0UAJijFLRQAmKKWigBKKWigBKKWjFACUUtJSA//Z;clipPath=inset(11.33% 9.33% 9.33% 7.67% round 49%);" parent="dEZm_ng8QWsbmra9nYXP-2159" vertex="1">
          <mxGeometry x="28" y="25" width="34.66" height="33.13" as="geometry" />
        </mxCell>
        <mxCell id="dEZm_ng8QWsbmra9nYXP-2162" value="" style="group" parent="1" vertex="1" connectable="0">
          <mxGeometry x="530" y="1349.5" width="64" height="49" as="geometry" />
        </mxCell>
        <mxCell id="dEZm_ng8QWsbmra9nYXP-2163" value="Furi Analytics" style="verticalLabelPosition=bottom;html=1;verticalAlign=top;align=center;strokeColor=#666666;fillColor=#f5f5f5;shape=mxgraph.azure.worker_role;fontColor=#333333;" parent="dEZm_ng8QWsbmra9nYXP-2162" vertex="1">
          <mxGeometry width="50" height="40" as="geometry" />
        </mxCell>
        <mxCell id="dEZm_ng8QWsbmra9nYXP-2164" value="" style="shape=image;verticalLabelPosition=bottom;labelBackgroundColor=default;verticalAlign=top;aspect=fixed;imageAspect=0;image=https://upload.wikimedia.org/wikipedia/commons/thumb/2/20/Rustacean-orig-noshadow.svg/1200px-Rustacean-orig-noshadow.svg.png;" parent="dEZm_ng8QWsbmra9nYXP-2162" vertex="1">
          <mxGeometry x="26" y="21" width="39" height="26" as="geometry" />
        </mxCell>
        <mxCell id="dEZm_ng8QWsbmra9nYXP-2166" style="edgeStyle=orthogonalEdgeStyle;rounded=0;orthogonalLoop=1;jettySize=auto;html=1;entryX=0;entryY=0.5;entryDx=0;entryDy=0;entryPerimeter=0;" parent="1" source="dEZm_ng8QWsbmra9nYXP-2163" target="dEZm_ng8QWsbmra9nYXP-2097" edge="1">
          <mxGeometry relative="1" as="geometry" />
        </mxCell>
        <mxCell id="dEZm_ng8QWsbmra9nYXP-2168" value="" style="group" parent="1" vertex="1" connectable="0">
          <mxGeometry x="604" y="1090" width="64" height="49" as="geometry" />
        </mxCell>
        <mxCell id="dEZm_ng8QWsbmra9nYXP-2169" value="&lt;span style=&quot;background-color: rgb(255, 255, 255);&quot;&gt;Furi Shortener&lt;/span&gt;" style="verticalLabelPosition=bottom;html=1;verticalAlign=top;align=center;strokeColor=#666666;fillColor=#f5f5f5;shape=mxgraph.azure.worker_role;fontColor=#333333;" parent="dEZm_ng8QWsbmra9nYXP-2168" vertex="1">
          <mxGeometry width="50" height="40" as="geometry" />
        </mxCell>
        <mxCell id="dEZm_ng8QWsbmra9nYXP-2170" value="" style="shape=image;verticalLabelPosition=bottom;labelBackgroundColor=default;verticalAlign=top;aspect=fixed;imageAspect=0;image=https://upload.wikimedia.org/wikipedia/commons/thumb/2/20/Rustacean-orig-noshadow.svg/1200px-Rustacean-orig-noshadow.svg.png;" parent="dEZm_ng8QWsbmra9nYXP-2168" vertex="1">
          <mxGeometry x="26" y="21" width="39" height="26" as="geometry" />
        </mxCell>
        <mxCell id="dEZm_ng8QWsbmra9nYXP-2171" style="edgeStyle=entityRelationEdgeStyle;rounded=0;orthogonalLoop=1;jettySize=auto;html=1;exitX=1;exitY=0.5;exitDx=0;exitDy=0;exitPerimeter=0;entryX=0;entryY=0.5;entryDx=0;entryDy=0;entryPerimeter=0;curved=1;" parent="1" source="dEZm_ng8QWsbmra9nYXP-2089" target="dEZm_ng8QWsbmra9nYXP-2169" edge="1">
          <mxGeometry relative="1" as="geometry">
            <Array as="points">
              <mxPoint x="521" y="1156" />
            </Array>
          </mxGeometry>
        </mxCell>
        <mxCell id="oaGu5y_zX-QXOi4U40vD-5" value="&amp;nbsp;furi.live " style="edgeLabel;html=1;align=center;verticalAlign=middle;resizable=0;points=[];" vertex="1" connectable="0" parent="dEZm_ng8QWsbmra9nYXP-2171">
          <mxGeometry x="-0.8482" y="1" relative="1" as="geometry">
            <mxPoint x="14" y="1" as="offset" />
          </mxGeometry>
        </mxCell>
        <mxCell id="dEZm_ng8QWsbmra9nYXP-2172" style="edgeStyle=orthogonalEdgeStyle;rounded=0;orthogonalLoop=1;jettySize=auto;html=1;entryX=0;entryY=0.5;entryDx=0;entryDy=0;entryPerimeter=0;curved=1;" parent="1" source="dEZm_ng8QWsbmra9nYXP-2169" target="dEZm_ng8QWsbmra9nYXP-2090" edge="1">
          <mxGeometry relative="1" as="geometry">
            <Array as="points">
              <mxPoint x="710" y="1100" />
              <mxPoint x="710" y="1100" />
            </Array>
          </mxGeometry>
        </mxCell>
        <mxCell id="oaGu5y_zX-QXOi4U40vD-2" style="rounded=0;orthogonalLoop=1;jettySize=auto;html=1;entryX=0.015;entryY=0.714;entryDx=0;entryDy=0;entryPerimeter=0;edgeStyle=entityRelationEdgeStyle;curved=1;" edge="1" parent="1" source="dEZm_ng8QWsbmra9nYXP-2105" target="dEZm_ng8QWsbmra9nYXP-2090">
          <mxGeometry relative="1" as="geometry" />
        </mxCell>
        <mxCell id="oaGu5y_zX-QXOi4U40vD-3" style="edgeStyle=entityRelationEdgeStyle;rounded=0;orthogonalLoop=1;jettySize=auto;html=1;entryX=0.003;entryY=0.277;entryDx=0;entryDy=0;entryPerimeter=0;curved=1;" edge="1" parent="1" source="dEZm_ng8QWsbmra9nYXP-2169" target="dEZm_ng8QWsbmra9nYXP-2095">
          <mxGeometry relative="1" as="geometry" />
        </mxCell>
        <mxCell id="oaGu5y_zX-QXOi4U40vD-10" style="edgeStyle=orthogonalEdgeStyle;rounded=1;orthogonalLoop=1;jettySize=auto;html=1;entryX=0;entryY=0.5;entryDx=0;entryDy=0;entryPerimeter=0;curved=0;" edge="1" parent="1" source="dEZm_ng8QWsbmra9nYXP-2169" target="dEZm_ng8QWsbmra9nYXP-2098">
          <mxGeometry relative="1" as="geometry">
            <Array as="points">
              <mxPoint x="616" y="985" />
            </Array>
          </mxGeometry>
        </mxCell>
      </root>
    </mxGraphModel>
  </diagram>
</mxfile>
